<svg width="20" height="19" viewBox="0 0 20 19" fill="none" xmlns="http://www.w3.org/2000/svg">
<path d="M8.16671 13.6249L13.6667 9.49992L8.16671 5.37492V13.6249ZM10 0.333252C4.94004 0.333252 0.833374 4.43992 0.833374 9.49992C0.833374 14.5599 4.94004 18.6666 10 18.6666C15.06 18.6666 19.1667 14.5599 19.1667 9.49992C19.1667 4.43992 15.06 0.333252 10 0.333252ZM10 16.8333C5.95754 16.8333 2.66671 13.5424 2.66671 9.49992C2.66671 5.45742 5.95754 2.16659 10 2.16659C14.0425 2.16659 17.3334 5.45742 17.3334 9.49992C17.3334 13.5424 14.0425 16.8333 10 16.8333Z" fill="#101566"/>
</svg>
