<svg width="97" height="104" viewBox="0 0 97 104" fill="none" xmlns="http://www.w3.org/2000/svg">
<g opacity="0.7">
<path fill-rule="evenodd" clip-rule="evenodd" d="M61.1846 102.425C40.2766 93.4408 36.6441 80.7298 37.2755 61.2949C37.2897 60.7564 37.6302 45.6293 37.8857 34.1936C38.212 19.4562 40.9718 2.24604 16.7435 0H0V61.6704H0.0496628C1.37637 93.0157 31.8977 108.469 61.1846 102.425Z" fill="white"/>
<path fill-rule="evenodd" clip-rule="evenodd" d="M57.5743 33.3588C57.9869 52.3898 54.0386 62.2876 48.1269 66.2241C77.4223 68.5039 95.7622 64.7869 96.3171 35.9005L97 0.373047H77.2872C59.0825 0.373047 57.5885 12.9188 57.5743 33.3588Z" fill="white"/>
<path fill-rule="evenodd" clip-rule="evenodd" d="M44.3961 72.1461C59.3803 112.562 97 93.6877 97 61.5576C86.4651 72.5822 62.7526 79.3099 44.3961 72.1461Z" fill="white"/>
</g>
</svg>
