<svg width="181" height="52" viewBox="0 0 181 52" fill="none" xmlns="http://www.w3.org/2000/svg">
<g clip-path="url(#clip0_1_63)">
<path fill-rule="evenodd" clip-rule="evenodd" d="M29.1411 50.0676C19.183 45.7829 17.4529 39.7209 17.7536 30.4521C17.7604 30.1953 17.9226 22.9809 18.0442 17.5271C18.1997 10.4987 19.5141 2.29089 7.97461 1.21973H0V30.6312H0.0236535C0.65554 45.5802 15.1923 52.9499 29.1411 50.0676Z" fill="#00275F"/>
<path fill-rule="evenodd" clip-rule="evenodd" d="M27.411 17.122C27.607 26.2049 25.7316 30.9289 22.9236 32.8076C36.8386 33.8957 45.5499 32.1217 45.8134 18.3351L46.1378 1.37891H36.7744C28.1274 1.37891 27.4178 7.36662 27.411 17.122Z" fill="#00CFCC"/>
<path d="M60.1373 42.4715L60.1441 42.2012C60.1982 42.1876 60.2624 42.1741 60.3401 42.164C60.4888 42.1437 60.607 42.1133 60.6983 42.0761C60.7287 42.0254 60.7489 41.9748 60.7591 41.9274C60.776 41.799 60.7861 41.6132 60.7861 41.3665L60.7794 39.9237C60.7794 39.775 60.7726 39.383 60.7557 38.7511C60.7523 38.5822 60.7388 38.4774 60.7219 38.4369C60.7151 38.4234 60.705 38.4132 60.6881 38.4031C60.6509 38.3794 60.5834 38.3625 60.4854 38.3591C60.4414 38.3591 60.3299 38.3456 60.1542 38.322L60.1441 38.0821L60.9044 38.0652L62.0161 38.028H62.1479C62.1749 38.0212 62.2019 38.0212 62.229 38.0212C62.2526 38.0212 62.3101 38.0212 62.4081 38.0212H62.6243C62.7967 38.0212 62.9825 38.0449 63.1853 38.099C63.2562 38.1159 63.3474 38.1564 63.4623 38.2138C63.5772 38.2713 63.6786 38.3456 63.7631 38.4335C63.8475 38.5213 63.9118 38.6227 63.9523 38.7342C63.9928 38.8457 64.0131 38.964 64.0131 39.0856C64.0131 39.2242 63.9827 39.3492 63.9219 39.4573C63.8611 39.5689 63.7665 39.6668 63.6448 39.7615C63.5806 39.8054 63.4353 39.8797 63.2055 39.9845C63.5468 40.0622 63.807 40.2007 63.9861 40.4069C64.1652 40.613 64.253 40.8394 64.253 41.0894C64.253 41.2381 64.226 41.3936 64.1686 41.5591C64.128 41.6808 64.0604 41.7957 63.9624 41.897C63.834 42.0356 63.6955 42.1403 63.5536 42.2079C63.4083 42.2789 63.2123 42.3363 62.9589 42.3802C62.8305 42.4039 62.6412 42.414 62.381 42.414L61.8032 42.4005C61.5599 42.4005 61.2693 42.4107 60.9314 42.4343C60.8368 42.4377 60.5732 42.4478 60.1373 42.4647V42.4715ZM61.7187 39.8932C61.81 39.9068 61.9147 39.9135 62.0364 39.9135C62.3743 39.9135 62.6311 39.8493 62.8068 39.7243C62.9825 39.5993 63.067 39.383 63.067 39.0755C63.067 38.8593 62.9859 38.6768 62.8203 38.5315C62.6547 38.3862 62.4047 38.3152 62.0735 38.3152C61.9789 38.3152 61.8505 38.3287 61.6917 38.3524C61.6917 38.4031 61.6917 38.4808 61.6985 38.5754C61.7086 38.768 61.7154 39.0383 61.7154 39.383V39.6668C61.7154 39.7175 61.7154 39.7919 61.7154 39.8899L61.7187 39.8932ZM61.7593 42.0559C61.908 42.1167 62.0431 42.1471 62.1715 42.1471C62.4283 42.1471 62.6412 42.1065 62.8034 42.0288C62.9656 41.9511 63.0839 41.843 63.1616 41.7011C63.2359 41.5591 63.2731 41.3868 63.2731 41.1739C63.2731 40.961 63.2326 40.7819 63.1515 40.6502C63.04 40.4677 62.9014 40.346 62.7392 40.2852C62.577 40.2244 62.3371 40.1906 62.0161 40.1906C61.8742 40.1906 61.7762 40.2007 61.7221 40.221V41.1401L61.7289 41.9207C61.7289 41.9579 61.7424 42.0018 61.7627 42.0491L61.7593 42.0559Z" fill="#00275F"/>
<path d="M67.7843 41.5593C67.8215 41.5796 67.8485 41.5931 67.8654 41.5998C67.9161 41.6235 67.96 41.6505 67.9904 41.6843C67.9296 41.9107 67.7809 42.1067 67.5444 42.2723C67.3078 42.4379 67.0105 42.519 66.6523 42.519C66.4259 42.519 66.2029 42.4716 65.9799 42.377C65.7568 42.2824 65.5811 42.1574 65.4493 41.9986C65.348 41.8769 65.2702 41.7316 65.2196 41.5559C65.1689 41.3802 65.1418 41.2349 65.1418 41.1099C65.1418 40.9646 65.1723 40.7956 65.2365 40.6098C65.3007 40.4239 65.4054 40.2482 65.5541 40.0826C65.7028 39.9171 65.892 39.7853 66.1184 39.6873C66.3448 39.5893 66.6016 39.542 66.8888 39.542C67.2808 39.542 67.5545 39.6028 67.7066 39.7245C67.8586 39.8461 67.9363 39.9678 67.9363 40.0894C67.9363 40.211 67.9059 40.3023 67.8417 40.3732C67.7775 40.4442 67.693 40.478 67.5849 40.478C67.4937 40.478 67.4058 40.4476 67.3281 40.3868C67.2504 40.3259 67.1862 40.2212 67.1321 40.0793C67.0916 39.9745 67.0409 39.9002 66.9767 39.8529C66.9125 39.8089 66.8381 39.7853 66.7503 39.7853C66.5374 39.7853 66.3482 39.8765 66.1792 40.059C66.0103 40.2415 65.9292 40.4881 65.9292 40.8058C65.9292 41.1842 66.0305 41.485 66.2367 41.708C66.4428 41.931 66.6726 42.0425 66.9328 42.0425C67.0612 42.0425 67.1727 42.029 67.2605 41.9986C67.318 41.9783 67.3957 41.9344 67.4903 41.8668C67.514 41.8499 67.5613 41.7992 67.6322 41.7215C67.7032 41.6438 67.7471 41.5897 67.7741 41.5627L67.7843 41.5593Z" fill="#00275F"/>
<path d="M68.7065 40.6442C68.764 40.4516 68.818 40.3232 68.862 40.259C68.9904 40.0731 69.1255 39.9278 69.2675 39.8231C69.4094 39.7183 69.5412 39.6507 69.656 39.6169C69.8047 39.573 69.9264 39.5527 70.0176 39.5527C70.2305 39.5527 70.4028 39.5696 70.5346 39.6034C70.6664 39.6372 70.7745 39.6845 70.8624 39.7453C70.9908 39.8332 71.0922 39.9211 71.1665 40.0123C71.2442 40.1035 71.305 40.2083 71.3557 40.3299C71.403 40.4516 71.4301 40.6002 71.4368 40.7726L71.0584 40.7658C70.9536 40.7658 70.7272 40.7557 70.3724 40.7354C70.2406 40.7253 70.1494 40.7185 70.1021 40.7185C70.0852 40.7185 69.9635 40.7185 69.7371 40.7253H69.4465C69.4432 40.7557 69.4398 40.7827 69.4398 40.8064C69.4398 40.928 69.4533 41.053 69.4837 41.1848C69.5141 41.3166 69.5581 41.4349 69.6155 41.5362C69.6729 41.6376 69.7473 41.7255 69.8351 41.7964C69.923 41.8674 70.0108 41.9215 70.1055 41.9519L70.3014 42.0161C70.4772 42.0161 70.592 42.0093 70.6529 41.9992C70.761 41.9755 70.8556 41.9485 70.9401 41.9113C71.0212 41.8775 71.1226 41.8167 71.2408 41.7322C71.3219 41.7897 71.3895 41.8437 71.4436 41.8911C71.2442 42.1107 71.0381 42.2695 70.8252 42.3675C70.6123 42.4655 70.3724 42.5162 70.1088 42.5162C69.9297 42.5162 69.7844 42.4993 69.6696 42.4689C69.5175 42.4283 69.3823 42.3641 69.2573 42.283C69.1323 42.2019 69.0309 42.0938 68.9431 41.9721C68.8552 41.8471 68.7876 41.7187 68.7471 41.5869C68.6896 41.4146 68.6626 41.2761 68.6626 41.1713C68.6626 40.9753 68.6795 40.7962 68.7099 40.6374L68.7065 40.6442ZM70.6799 40.4989C70.6799 40.3705 70.6529 40.2488 70.6056 40.1339C70.5583 40.019 70.4839 39.9278 70.3859 39.8636C70.2879 39.7994 70.1866 39.7656 70.0852 39.7656C69.9331 39.7656 69.798 39.8332 69.6729 39.965C69.5479 40.0968 69.4803 40.2792 69.4668 40.509L70.2406 40.5158C70.2913 40.5158 70.3589 40.5124 70.4501 40.5056C70.5143 40.4989 70.5616 40.4955 70.5887 40.4955C70.6089 40.4955 70.6394 40.4955 70.6799 40.4955V40.4989Z" fill="#00275F"/>
<path d="M71.9033 39.7081C71.981 39.6946 72.0486 39.6879 72.0993 39.6879C72.1263 39.6879 72.1568 39.6879 72.1905 39.6913C72.3967 39.7048 72.5656 39.7115 72.694 39.7115H72.8697L73.3529 39.6811C73.3698 39.6946 73.3867 39.7081 73.4003 39.725C73.3935 39.823 73.3867 39.8872 73.3834 39.9143C73.3496 39.921 73.3225 39.9244 73.3056 39.9278C73.255 39.9345 73.2144 39.9413 73.1908 39.9481C73.1671 39.9548 73.1401 39.9582 73.1097 39.9616C73.0759 39.9717 73.0556 39.9852 73.0522 40.0089C73.0657 40.0629 73.0792 40.1069 73.0928 40.144L73.2549 40.4786C73.3834 40.7962 73.5151 41.0902 73.6537 41.3571L73.8429 41.7491C73.8564 41.7221 73.9443 41.4991 74.1031 41.08C74.2957 40.5833 74.4005 40.3029 74.414 40.2387C74.4241 40.2049 74.4275 40.1745 74.4275 40.1508C74.4275 40.1272 74.4207 40.09 74.4072 40.0393C74.3565 40.0021 74.316 39.9819 74.2856 39.9683C74.2552 39.9582 74.1808 39.9447 74.0659 39.9312L73.9578 39.9041L73.9477 39.8568C73.9477 39.8332 73.9477 39.8163 73.9477 39.8061C73.9477 39.7892 73.9477 39.7588 73.9578 39.7183C74.0254 39.7149 74.0761 39.7115 74.1031 39.7115L74.3768 39.7284L74.5593 39.7352C74.637 39.7352 74.7688 39.725 74.9614 39.7014C75.0796 39.6879 75.1675 39.6811 75.2249 39.6777C75.2283 39.7352 75.2317 39.7757 75.2317 39.8061C75.2317 39.8197 75.2317 39.8399 75.2283 39.867C75.1878 39.8872 75.1439 39.9041 75.0932 39.9143C75.0121 39.9345 74.9411 39.9548 74.8803 39.9717C74.8465 39.9987 74.8262 40.0224 74.8161 40.0393C74.7789 40.1238 74.6978 40.313 74.5829 40.6036L74.3396 41.2591L73.772 42.6108L73.38 43.5096C73.2955 43.6819 73.1941 43.8306 73.0792 43.9556C73.0353 44.0029 72.988 44.0401 72.9306 44.0638C72.8393 44.1009 72.7312 44.1178 72.6163 44.1178C72.6062 44.1178 72.542 44.1111 72.4305 44.0942C72.3392 44.0705 72.2581 44.0232 72.1905 43.9489C72.1432 43.8948 72.1196 43.8374 72.1196 43.7766C72.1196 43.6515 72.1736 43.5366 72.2784 43.4319C72.373 43.3744 72.444 43.344 72.4879 43.344C72.5893 43.344 72.7075 43.3981 72.8427 43.5028C72.9069 43.5535 72.9576 43.5806 72.9948 43.5806C73.0319 43.5806 73.0623 43.5603 73.086 43.5164C73.282 43.1345 73.4104 42.8608 73.4645 42.702L72.8393 41.32C72.6062 40.7658 72.4237 40.3772 72.3021 40.1542C72.2379 40.0427 72.1939 39.9751 72.1669 39.9548C72.1399 39.9345 72.0993 39.9176 72.0452 39.9008C72.0148 39.894 71.981 39.8805 71.9439 39.8602C71.9337 39.8095 71.9236 39.7588 71.9135 39.7149L71.9033 39.7081Z" fill="#00275F"/>
<path d="M77.3367 39.671L77.2961 39.9042L77.0495 39.9312C76.9616 39.9312 76.9076 39.9413 76.8873 39.9616C76.867 39.9819 76.8535 40.0427 76.8467 40.1373C76.8467 40.1643 76.8467 40.2015 76.84 40.2522C76.8231 40.4414 76.8163 40.5563 76.8163 40.6036V40.9213C76.9853 40.874 77.1171 40.8131 77.2083 40.7388C77.2995 40.6644 77.4279 40.5124 77.5969 40.2792C77.9483 39.796 78.2896 39.5527 78.6207 39.5527C78.7829 39.5527 78.908 39.5933 78.9958 39.6744C79.0803 39.7555 79.1242 39.8535 79.1242 39.9684C79.1242 40.0528 79.0938 40.1272 79.0364 40.1914C78.9789 40.2556 78.8978 40.2894 78.7965 40.2894C78.6849 40.2894 78.5836 40.2353 78.4957 40.1272C78.4383 40.0562 78.3842 40.0224 78.3335 40.0224C78.2592 40.0224 78.1815 40.0528 78.1071 40.1137C78.0294 40.1745 77.9213 40.2928 77.7827 40.4685C77.6678 40.6138 77.58 40.7151 77.5225 40.7658C77.6442 40.803 77.7658 40.8773 77.8976 40.9855C78.0294 41.0936 78.2389 41.3436 78.5329 41.739C78.6849 41.9417 78.7931 42.0668 78.864 42.1141C78.9316 42.1614 79.06 42.2087 79.2425 42.2627V42.3743C79.2425 42.3912 79.2425 42.4182 79.2425 42.4554C79.2155 42.4554 79.1614 42.452 79.0769 42.4418C78.9654 42.4317 78.8438 42.4249 78.7154 42.4249C78.5701 42.4249 78.3943 42.4317 78.1916 42.4486C78.1578 42.3979 78.0801 42.2932 77.9618 42.1411L77.6307 41.7018C77.4279 41.4281 77.286 41.2592 77.1982 41.1983C77.1103 41.1375 76.9819 41.1037 76.8096 41.1037V41.9924L76.8163 42.1174C76.8738 42.1648 76.9819 42.1985 77.1373 42.2154C77.1677 42.2188 77.1948 42.2256 77.2184 42.229V42.3743C77.2184 42.3743 77.2184 42.4047 77.215 42.4283L77.1914 42.4385L76.8366 42.4249C76.6744 42.4148 76.5223 42.408 76.377 42.408C76.2959 42.408 76.1371 42.4182 75.904 42.4385C75.8398 42.4385 75.7925 42.4385 75.7553 42.4418C75.7046 42.4418 75.6607 42.4418 75.6167 42.4418C75.6066 42.4047 75.6032 42.3709 75.6032 42.3337C75.6032 42.3101 75.6032 42.2796 75.6032 42.2425C75.6404 42.2222 75.6843 42.2087 75.7283 42.2019C75.7722 42.1952 75.7992 42.1884 75.8127 42.185L75.9411 42.1749C75.9851 42.1715 76.0189 42.1614 76.0391 42.1512C76.0628 42.131 76.0763 41.7964 76.0797 41.1477V41.0361L76.0864 40.6813V40.2759C76.0864 40.1137 76.0831 40.0123 76.0662 39.9751C76.0493 39.9379 75.9885 39.9177 75.8837 39.9143C75.833 39.9143 75.7519 39.9075 75.6438 39.894L75.5999 39.6609C75.9006 39.6811 76.1169 39.6913 76.252 39.6913H76.4277H76.6981C77.0022 39.6913 77.2184 39.6811 77.3401 39.6609L77.3367 39.671Z" fill="#00275F"/>
<path d="M79.4521 44.171V44.0189C79.4927 43.9953 79.5231 43.9784 79.54 43.9682L79.8002 43.8736C79.9083 43.8297 79.9691 43.7959 79.9827 43.7722C80.0198 43.7047 80.0333 43.5864 80.03 43.4141L80.0063 42.0624L79.9725 40.383C79.9658 40.2614 79.9387 40.1735 79.8948 40.1228C79.8509 40.0722 79.7292 40.0181 79.5366 39.9606V39.7849C79.7563 39.741 79.9421 39.6903 80.0942 39.6261C80.2057 39.5822 80.3544 39.4943 80.547 39.3693L80.7193 39.3625V39.4572V39.8221C80.7193 39.8356 80.7193 39.8694 80.7227 39.9235C80.9187 39.8052 81.0809 39.7241 81.2093 39.6869C81.3951 39.6329 81.6012 39.6058 81.8243 39.6058C82.0473 39.6058 82.2602 39.6633 82.4392 39.7816C82.4528 39.7917 82.473 39.8018 82.4967 39.8187C82.6082 39.8998 82.6927 39.9775 82.7434 40.0519C82.8549 40.2141 82.9393 40.3695 82.9867 40.5283C83.0238 40.6466 83.0441 40.7919 83.0441 40.971C83.0441 41.2075 83.0137 41.4069 82.9529 41.5691C82.892 41.7313 82.7873 41.8969 82.6386 42.0624C82.4899 42.228 82.3277 42.3463 82.1588 42.4139C81.9865 42.4848 81.8074 42.5186 81.6215 42.5186C81.4357 42.5186 81.3039 42.5085 81.2228 42.4848C81.0707 42.4409 80.922 42.3801 80.77 42.2956C80.7632 42.3328 80.7598 42.3564 80.7598 42.3699L80.77 42.4612C80.77 42.4848 80.77 42.5152 80.77 42.5524C80.77 42.5693 80.77 42.6571 80.7632 42.8193L80.7767 43.4377C80.7767 43.4377 80.7767 43.4952 80.77 43.5729V43.61C80.77 43.6945 80.7767 43.7553 80.7869 43.7925C80.797 43.8162 80.8173 43.8398 80.8477 43.8669C80.8714 43.877 80.8916 43.8871 80.9119 43.8973C80.9829 43.9108 81.0437 43.9243 81.0978 43.9378C81.1518 43.9513 81.2059 43.9615 81.2667 43.9716C81.287 43.9953 81.2971 44.029 81.2971 44.0696C81.2971 44.0932 81.2971 44.1304 81.2937 44.1777H81.2329C81.1011 44.1777 81.0099 44.1777 80.9558 44.171L80.4422 44.127H80.1989L80.0807 44.1338L79.8982 44.1439C79.8306 44.1439 79.7563 44.1507 79.6752 44.1608C79.5941 44.171 79.5332 44.1743 79.4995 44.1743H79.4555L79.4521 44.171ZM80.7362 41.7414C80.7463 41.7684 80.7497 41.7887 80.7531 41.8022C80.7767 41.907 80.8105 41.9813 80.8477 42.0219C80.9187 42.103 80.9998 42.157 81.0876 42.1841C81.2228 42.2212 81.3444 42.2415 81.4458 42.2415C81.5641 42.2415 81.679 42.2179 81.7905 42.1672C81.902 42.1165 81.9932 42.0523 82.0608 41.9678C82.0709 41.9577 82.0844 41.9408 82.1013 41.9205C82.1182 41.8833 82.1284 41.8563 82.1385 41.8394C82.2297 41.6637 82.2737 41.4745 82.2737 41.2751C82.2737 40.9102 82.1655 40.5993 81.9459 40.3492C81.7938 40.1701 81.5776 40.0823 81.3005 40.0823C81.1349 40.0823 80.9457 40.1262 80.7362 40.2107C80.7328 40.2986 80.7294 40.5452 80.7294 40.9541L80.7362 41.6096C80.7362 41.6096 80.7362 41.6705 80.7362 41.7414Z" fill="#00275F"/>
<path d="M86.7205 41.8057L86.7982 41.8564C86.8185 41.8733 86.832 41.8902 86.8354 41.9138V41.9307C86.7847 42.1335 86.7137 42.272 86.6259 42.3464C86.538 42.4207 86.4265 42.4612 86.2981 42.4612C86.1697 42.4612 86.0514 42.4241 85.9534 42.3497C85.8588 42.2754 85.771 42.147 85.6899 41.9611C85.5919 42.1335 85.4567 42.2619 85.2776 42.3497C85.0985 42.4376 84.8856 42.4815 84.6288 42.4815C84.3923 42.4815 84.22 42.4308 84.1085 42.3328C83.9969 42.2348 83.9429 42.1064 83.9429 41.9442C83.9429 41.8699 83.9598 41.7922 83.9936 41.7178C84.0274 41.6435 84.078 41.5658 84.1524 41.4881C84.2267 41.4104 84.345 41.3293 84.5072 41.238C84.5308 41.2245 84.6187 41.1873 84.764 41.1231L85.6088 40.7852C85.6155 40.7007 85.6189 40.6129 85.6189 40.525C85.6189 40.2209 85.5817 40.0114 85.5074 39.8999C85.4635 39.8323 85.3824 39.7985 85.2709 39.7985C85.1593 39.7985 85.0546 39.8188 84.96 39.8627C84.8654 39.9067 84.7944 39.9607 84.7539 40.0283C84.7234 40.079 84.6964 40.1736 84.6728 40.3088C84.6559 40.4068 84.6423 40.4676 84.6288 40.4811C84.595 40.525 84.5342 40.5622 84.443 40.5994C84.3551 40.6332 84.2943 40.6602 84.2605 40.6771C84.1389 40.7345 84.0409 40.765 83.9699 40.765C83.9395 40.7379 83.9226 40.7007 83.9226 40.6501C83.9226 40.5217 83.9496 40.4101 84.0037 40.3189C84.0848 40.1871 84.2065 40.0587 84.372 39.9371C84.5376 39.8154 84.6897 39.7276 84.8316 39.6769C85.0276 39.6127 85.2641 39.5823 85.5446 39.5823C85.727 39.5823 85.8825 39.6161 86.0109 39.6836C86.1427 39.7512 86.2305 39.8492 86.2812 39.981C86.3319 40.1128 86.3589 40.3493 86.3589 40.6906L86.3522 41.2515L86.3589 41.6604V41.7652C86.3589 41.8598 86.3724 41.924 86.3961 41.9611C86.4197 41.9983 86.4535 42.0152 86.4941 42.0152C86.5177 42.0152 86.538 42.0084 86.5583 41.9949L86.6597 41.8361L86.7205 41.8125V41.8057ZM85.6054 41.0184C85.477 41.0623 85.3317 41.1333 85.1695 41.2346C85.0073 41.336 84.8958 41.4374 84.8316 41.5388C84.7877 41.6131 84.764 41.7043 84.764 41.8125C84.764 41.9105 84.7944 41.9916 84.8519 42.0524C84.9093 42.1132 84.9803 42.147 85.0546 42.147C85.183 42.147 85.2878 42.1098 85.3756 42.0389C85.4939 41.9409 85.5648 41.8631 85.5851 41.8057C85.6054 41.7483 85.6155 41.5861 85.6155 41.3157C85.6155 41.2177 85.6121 41.1164 85.602 41.0184H85.6054Z" fill="#00275F"/>
<path d="M87.6802 38.2241C87.7849 38.2241 87.8795 38.2646 87.9606 38.3491C88.0417 38.4336 88.0823 38.5316 88.0823 38.6465C88.0823 38.7614 88.0417 38.8593 87.9606 38.9438C87.8795 39.0283 87.7782 39.0689 87.6633 39.0689C87.5484 39.0689 87.447 39.0283 87.3659 38.9472C87.2848 38.8661 87.2443 38.7647 87.2443 38.6498C87.2443 38.535 87.2848 38.4336 87.3659 38.3525C87.447 38.2714 87.5416 38.2275 87.6498 38.2275H87.6802V38.2241ZM87.2983 42.2249C87.3355 42.2181 87.3997 42.2114 87.4909 42.2012C87.6261 42.1877 87.7072 42.1708 87.741 42.1506C87.7748 42.1303 87.7984 42.0965 87.8119 42.0458C87.8255 41.9951 87.8322 41.8431 87.8322 41.5896L87.8187 41.2382L87.8255 40.6638C87.8255 40.5793 87.8255 40.4914 87.8187 40.4002C87.8187 40.3597 87.8153 40.3292 87.8153 40.3123C87.8153 40.2245 87.8018 40.1704 87.7782 40.1468C87.7342 40.1028 87.6464 40.0758 87.5213 40.0589L87.3321 40.0319V39.8596C87.5382 39.8291 87.6599 39.8089 87.7038 39.7953C87.8255 39.7616 87.937 39.7143 88.0383 39.6534C88.1397 39.5926 88.2411 39.5115 88.3357 39.4101H88.5452C88.5553 39.5183 88.5621 39.5825 88.5621 39.6095V39.8967C88.5621 39.944 88.5621 40.0623 88.5722 40.2448L88.5486 41.593V42.0762C88.5486 42.0999 88.552 42.1269 88.5621 42.1506C88.6466 42.1708 88.8054 42.2046 89.0385 42.2486C89.0487 42.2925 89.0521 42.3263 89.0521 42.3499C89.0521 42.3702 89.0487 42.4006 89.0419 42.4412H88.8358L88.2039 42.4209C87.8356 42.4209 87.6193 42.4209 87.5585 42.4276C87.4301 42.4412 87.3591 42.4479 87.3456 42.4479H87.3017C87.3017 42.3871 87.2983 42.3398 87.2983 42.3094V42.2283V42.2249ZM88.3898 38.6634C88.3898 38.535 88.4303 38.4302 88.5114 38.3457C88.5925 38.2646 88.6905 38.2207 88.8088 38.2207C88.927 38.2207 89.025 38.2613 89.1061 38.3457C89.1872 38.4268 89.2278 38.5282 89.2278 38.6431C89.2278 38.758 89.1872 38.8593 89.1061 38.9404C89.025 39.0215 88.9237 39.0621 88.8088 39.0621C88.6939 39.0621 88.5993 39.0215 88.5148 38.9404C88.4303 38.8593 88.3898 38.7681 88.3898 38.6634Z" fill="#00275F"/>
<path d="M90.7619 40.951L90.8869 40.9612L91.3634 40.9544L91.4918 40.9612L91.7215 40.9679C91.8128 40.9679 91.9344 40.9679 92.0865 40.9578V40.5692C92.0865 40.2448 92.0865 40.0556 92.0763 40.0049C92.0696 39.9542 92.002 39.9272 91.8804 39.9238C91.8297 39.9238 91.7486 39.9137 91.6405 39.9035L91.5965 39.667C91.8973 39.6873 92.1135 39.6974 92.2487 39.6974H92.4244H92.6947C92.9988 39.6974 93.2151 39.6873 93.3401 39.667L93.2962 39.9035C93.1543 39.9204 93.0698 39.9272 93.0495 39.9272C92.9448 39.9272 92.8873 39.9441 92.8738 39.9779C92.8603 40.0083 92.8535 40.1299 92.8502 40.3394L92.84 40.7584L92.8299 41.3667C92.8299 41.8499 92.8468 42.127 92.8806 42.1979C93.0225 42.2317 93.1272 42.252 93.2016 42.2621C93.2388 42.2655 93.2725 42.2723 93.3063 42.2824V42.4885L92.9042 42.4682C92.7758 42.4615 92.6575 42.4581 92.5427 42.4581L92.0459 42.475L91.6236 42.4885V42.2824C91.6573 42.2723 91.6945 42.2655 91.7317 42.2621C91.8601 42.2452 91.9648 42.2249 92.0493 42.1979C92.0899 41.9681 92.1101 41.7046 92.1101 41.4038L92.1034 41.2112C91.9581 41.218 91.8195 41.2214 91.681 41.2214C91.4816 41.2214 91.3363 41.2214 91.2383 41.2146L90.9511 41.2078C90.8937 41.2078 90.8295 41.2079 90.7653 41.218V41.3869V41.8701C90.7653 41.9918 90.7788 42.1033 90.8092 42.1979C90.9511 42.2317 91.0559 42.252 91.1268 42.2621C91.164 42.2655 91.1978 42.2723 91.2282 42.2824L91.235 42.4885L90.8295 42.4682C90.7011 42.4615 90.5828 42.4581 90.4645 42.4581L89.9678 42.475L89.5454 42.4885V42.2824C89.5792 42.2723 89.6164 42.2655 89.6536 42.2621C89.7786 42.2452 89.8833 42.2249 89.9712 42.1979C90.0016 42.0459 90.0185 41.7688 90.0185 41.3667L90.005 40.4171C90.0016 40.1401 89.9881 39.988 89.9678 39.9643C89.9475 39.9407 89.8901 39.9272 89.7989 39.9272C89.7482 39.9272 89.6671 39.917 89.5589 39.9069L89.515 39.6704C89.8158 39.6906 90.032 39.7008 90.1672 39.7008H90.3429H90.6132C90.9173 39.7008 91.1336 39.6906 91.2552 39.6704L91.2147 39.9069C91.0728 39.9238 90.9883 39.9306 90.968 39.9306C90.8599 39.9306 90.8024 39.9475 90.7889 39.9812C90.7754 40.0117 90.7686 40.1333 90.7653 40.3428C90.7653 40.6131 90.7585 40.8159 90.7484 40.9544L90.7619 40.951Z" fill="#00275F"/>
<path d="M96.6346 41.5593C96.6718 41.5796 96.6988 41.5931 96.7157 41.5998C96.7664 41.6235 96.8103 41.6505 96.8407 41.6843C96.7799 41.9107 96.6312 42.1067 96.3947 42.2723C96.1582 42.4379 95.8608 42.519 95.5026 42.519C95.2762 42.519 95.0532 42.4716 94.8302 42.377C94.6072 42.2824 94.4315 42.1574 94.2997 41.9986C94.1983 41.8769 94.1206 41.7316 94.0699 41.5559C94.0192 41.3802 93.9922 41.2349 93.9922 41.1099C93.9922 40.9646 94.0226 40.7956 94.0868 40.6098C94.151 40.4239 94.2558 40.2482 94.4044 40.0826C94.5531 39.9171 94.7423 39.7853 94.9687 39.6873C95.1951 39.5893 95.4519 39.542 95.7392 39.542C96.1311 39.542 96.4048 39.6028 96.5569 39.7245C96.7123 39.8461 96.7867 39.9678 96.7867 40.0894C96.7867 40.211 96.7563 40.3023 96.6921 40.3732C96.6279 40.4442 96.5434 40.478 96.4353 40.478C96.344 40.478 96.2562 40.4476 96.1784 40.3868C96.1007 40.3259 96.0365 40.2212 95.9825 40.0793C95.9419 39.9745 95.8912 39.9002 95.827 39.8529C95.7628 39.8089 95.6885 39.7853 95.6006 39.7853C95.3877 39.7853 95.1985 39.8765 95.0296 40.059C94.8606 40.2415 94.7795 40.4881 94.7795 40.8058C94.7795 41.1842 94.8809 41.485 95.087 41.708C95.2931 41.931 95.5229 42.0425 95.7831 42.0425C95.9115 42.0425 96.023 42.029 96.1109 41.9986C96.1683 41.9783 96.246 41.9344 96.3406 41.8668C96.3643 41.8499 96.4116 41.7992 96.4826 41.7215C96.5501 41.6438 96.5975 41.5897 96.6245 41.5627L96.6346 41.5593Z" fill="#00275F"/>
<path d="M98.5945 40.8559L98.973 40.8458L99.098 40.839C99.6623 40.839 100.041 40.9066 100.233 41.0417C100.426 41.1769 100.521 41.3628 100.521 41.5993C100.521 41.8831 100.406 42.096 100.176 42.2447C99.9462 42.3934 99.6251 42.4643 99.2095 42.4643L98.7533 42.4576L97.3848 42.4947L97.3916 42.292L97.6112 42.2582C97.6957 42.2481 97.7633 42.2312 97.8106 42.2143C97.8444 42.1535 97.8613 41.8493 97.8613 41.3019L97.8511 40.7241L97.841 40.322C97.841 40.1193 97.8342 40.0044 97.8241 39.974C97.8106 39.9436 97.7531 39.9267 97.645 39.9233L97.3983 39.8996L97.3679 39.7104H97.7835L97.9086 39.7003C98.0066 39.6969 98.1451 39.6935 98.3208 39.6935L98.706 39.6867H98.9527C98.9966 39.6901 99.0676 39.68 99.169 39.6631L99.1284 39.8929C98.9797 39.9098 98.8885 39.9165 98.8581 39.9165C98.7263 39.9165 98.6452 39.9334 98.6216 39.9638C98.5979 39.9942 98.5844 40.072 98.5844 40.2004V40.5248V40.7038C98.5844 40.7478 98.5844 40.7985 98.5878 40.8525L98.5945 40.8559ZM98.6114 42.1636C98.6891 42.1873 98.8108 42.2008 98.9662 42.2008C99.4798 42.2008 99.7367 42.0183 99.7367 41.65C99.7367 41.4912 99.6724 41.3628 99.544 41.258C99.4156 41.1566 99.223 41.106 98.9628 41.106C98.8581 41.106 98.7364 41.1161 98.6013 41.133C98.6013 41.16 98.6013 41.1769 98.6013 41.1803V41.3898C98.5945 41.6196 98.5878 41.846 98.5878 42.0656C98.5878 42.096 98.5945 42.1264 98.6114 42.1602V42.1636Z" fill="#00275F"/>
<path d="M102.896 39.671L102.856 39.9042L102.609 39.9312C102.521 39.9312 102.467 39.9413 102.447 39.9616C102.427 39.9819 102.413 40.0427 102.406 40.1373C102.406 40.1643 102.406 40.2015 102.4 40.2522C102.383 40.4414 102.376 40.5563 102.376 40.6036V40.9213C102.545 40.874 102.677 40.8131 102.768 40.7388C102.859 40.6644 102.987 40.5124 103.156 40.2792C103.508 39.796 103.849 39.5527 104.18 39.5527C104.342 39.5527 104.468 39.5933 104.555 39.6744C104.643 39.7555 104.684 39.8535 104.684 39.9684C104.684 40.0528 104.653 40.1272 104.596 40.1914C104.538 40.2556 104.457 40.2894 104.356 40.2894C104.244 40.2894 104.143 40.2353 104.055 40.1272C103.998 40.0562 103.944 40.0224 103.893 40.0224C103.819 40.0224 103.741 40.0528 103.667 40.1137C103.589 40.1745 103.481 40.2928 103.342 40.4685C103.227 40.6138 103.14 40.7151 103.082 40.7658C103.204 40.803 103.329 40.8773 103.457 40.9855C103.586 41.0936 103.798 41.3436 104.092 41.739C104.244 41.9417 104.356 42.0668 104.424 42.1141C104.491 42.1614 104.62 42.2087 104.802 42.2627V42.3743C104.802 42.3912 104.802 42.4182 104.802 42.4554C104.775 42.4554 104.721 42.452 104.636 42.4418C104.525 42.4317 104.403 42.4249 104.275 42.4249C104.13 42.4249 103.954 42.4317 103.748 42.4486C103.714 42.3979 103.636 42.2932 103.518 42.1411L103.187 41.7018C102.984 41.4281 102.839 41.2592 102.754 41.1983C102.666 41.1375 102.538 41.1037 102.366 41.1037V41.9924L102.372 42.1174C102.43 42.1648 102.538 42.1985 102.693 42.2154C102.724 42.2188 102.751 42.2256 102.775 42.229V42.3743C102.775 42.3743 102.775 42.4047 102.775 42.4283L102.751 42.4385L102.393 42.4249C102.231 42.4148 102.078 42.408 101.933 42.408C101.852 42.408 101.693 42.4182 101.46 42.4385C101.396 42.4385 101.349 42.4385 101.311 42.4418C101.261 42.4418 101.213 42.4418 101.173 42.4418C101.163 42.4047 101.159 42.3709 101.159 42.3337C101.159 42.3101 101.159 42.2796 101.159 42.2425C101.197 42.2222 101.24 42.2087 101.284 42.2019C101.328 42.1952 101.355 42.1884 101.369 42.185L101.497 42.1749C101.541 42.1715 101.575 42.1614 101.595 42.1512C101.619 42.131 101.632 41.7964 101.636 41.1477V41.0361L101.643 40.6813V40.2759C101.646 40.1137 101.639 40.0123 101.622 39.9751C101.605 39.9379 101.545 39.9177 101.44 39.9143C101.389 39.9143 101.308 39.9075 101.2 39.894L101.156 39.6609C101.457 39.6811 101.673 39.6913 101.808 39.6913H101.984H102.254C102.558 39.6913 102.775 39.6811 102.896 39.6609V39.671Z" fill="#00275F"/>
<path d="M107.242 39.8968L107.198 39.667C107.495 39.6906 107.715 39.7008 107.85 39.7008H108.026H108.296C108.6 39.7008 108.816 39.6906 108.941 39.667L108.897 39.8968L108.651 39.9204C108.543 39.9204 108.482 39.9373 108.472 39.9745C108.461 40.0083 108.455 40.1975 108.448 40.5388L108.441 40.7618L108.431 41.0423C108.431 41.7722 108.448 42.1607 108.482 42.2081C108.614 42.2385 108.722 42.2587 108.799 42.2689C108.833 42.2723 108.867 42.279 108.904 42.2892V42.4885L108.674 42.4784C108.434 42.4649 108.255 42.4581 108.14 42.4581L107.225 42.4885V42.2892C107.262 42.279 107.296 42.2723 107.333 42.2689C107.468 42.252 107.573 42.2317 107.651 42.2081C107.678 42.0661 107.691 41.7789 107.691 41.3531V41.1132L107.671 40.7449C107.671 40.7111 107.674 40.6503 107.684 40.5624C106.992 41.3295 106.549 41.7924 106.36 41.9512C106.37 42.0628 106.387 42.1472 106.41 42.2114C106.542 42.2418 106.65 42.2621 106.728 42.2723C106.762 42.2756 106.796 42.2824 106.829 42.2925L106.836 42.4919L106.603 42.4818C106.36 42.4682 106.184 42.4615 106.069 42.4615L105.153 42.4919V42.2925C105.191 42.2824 105.224 42.2756 105.262 42.2723C105.393 42.2554 105.498 42.2351 105.579 42.2114C105.606 42.0695 105.62 41.9175 105.62 41.762V41.218V40.7213V40.5388L105.613 40.3192C105.613 40.1164 105.603 40.0015 105.589 39.9677C105.576 39.9373 105.515 39.9204 105.41 39.917C105.366 39.917 105.285 39.9103 105.17 39.9001L105.126 39.6704C105.424 39.6906 105.643 39.7008 105.779 39.7008H105.954H106.225C106.529 39.7008 106.745 39.6906 106.867 39.6704L106.826 39.9001L106.579 39.9238C106.468 39.9238 106.407 39.9407 106.397 39.9779C106.387 40.0117 106.38 40.2009 106.377 40.5422L106.366 40.7483L106.356 40.9916V41.6404L106.975 40.9646C107.154 40.7584 107.302 40.5929 107.428 40.4678C107.549 40.3462 107.63 40.255 107.671 40.1975C107.674 40.1367 107.678 40.0961 107.678 40.0725C107.678 39.9745 107.61 39.9204 107.482 39.9137C107.414 39.9137 107.333 39.9069 107.242 39.8968Z" fill="#00275F"/>
<path d="M111.546 39.8965L111.503 39.6668C111.8 39.6904 112.02 39.7006 112.155 39.7006H112.33H112.601C112.905 39.7006 113.121 39.6904 113.246 39.6668L113.202 39.8965L112.956 39.9202C112.847 39.9202 112.787 39.9371 112.776 39.9743C112.766 40.0081 112.76 40.1973 112.753 40.5386L112.746 40.7616L112.736 41.0421C112.736 41.7719 112.753 42.1605 112.787 42.2078C112.918 42.2382 113.026 42.2585 113.104 42.2687C113.138 42.272 113.172 42.2788 113.209 42.2889V42.4883L112.979 42.4782C112.739 42.4646 112.56 42.4579 112.445 42.4579L111.53 42.4883V42.2889C111.567 42.2788 111.601 42.272 111.638 42.2687C111.773 42.2518 111.878 42.2315 111.955 42.2078C111.982 42.0659 111.996 41.7787 111.996 41.3529V41.113L111.976 40.7447C111.976 40.7109 111.979 40.6501 111.989 40.5622C111.296 41.3293 110.854 41.7922 110.665 41.951C110.675 42.0625 110.692 42.147 110.715 42.2112C110.847 42.2416 110.955 42.2619 111.033 42.272C111.067 42.2754 111.1 42.2822 111.134 42.2923L111.141 42.4917L110.908 42.4815C110.665 42.468 110.489 42.4613 110.374 42.4613L109.458 42.4917V42.2923C109.495 42.2822 109.529 42.2754 109.566 42.272C109.698 42.2551 109.803 42.2349 109.884 42.2112C109.911 42.0693 109.924 41.9172 109.924 41.7618V41.2178V40.721V40.5386L109.918 40.3189C109.918 40.1162 109.908 40.0013 109.894 39.9675C109.881 39.9371 109.82 39.9202 109.715 39.9168C109.671 39.9168 109.59 39.9101 109.475 39.8999L109.431 39.6702C109.729 39.6904 109.948 39.7006 110.083 39.7006H110.259H110.529C110.833 39.7006 111.05 39.6904 111.171 39.6702L111.131 39.8999L110.884 39.9236C110.773 39.9236 110.712 39.9405 110.702 39.9776C110.692 40.0114 110.685 40.2007 110.681 40.542L110.671 40.7481L110.661 40.9914V41.6402L111.28 40.9643C111.459 40.7582 111.607 40.5926 111.732 40.4676C111.854 40.346 111.935 40.2547 111.976 40.1973C111.979 40.1365 111.982 40.0959 111.982 40.0723C111.982 39.9743 111.915 39.9202 111.786 39.9134C111.719 39.9134 111.638 39.9067 111.546 39.8965ZM110.222 38.5044C110.222 38.4098 110.256 38.3287 110.323 38.2645C110.391 38.2003 110.472 38.1665 110.57 38.1665C110.651 38.1665 110.719 38.1867 110.773 38.2307C110.827 38.2746 110.898 38.376 110.986 38.5348C111.107 38.751 111.239 38.8592 111.384 38.8592C111.53 38.8592 111.661 38.751 111.78 38.5348C111.857 38.3929 111.925 38.2982 111.982 38.2442C112.04 38.1901 112.114 38.1631 112.205 38.1631C112.297 38.1631 112.378 38.1969 112.442 38.2645C112.506 38.332 112.54 38.4098 112.54 38.5044C112.54 38.6868 112.428 38.8288 112.202 38.9234C111.979 39.0214 111.709 39.0687 111.398 39.0687C111.033 39.0687 110.746 39.018 110.536 38.9132C110.327 38.8085 110.222 38.6733 110.222 38.5044Z" fill="#00275F"/>
<path d="M119.193 39.1936L119.055 39.2003C119.024 39.2003 118.984 39.2003 118.94 39.1936C118.92 39.1497 118.893 39.0855 118.859 38.9942C118.778 38.8523 118.724 38.7543 118.7 38.707C118.585 38.5381 118.521 38.4502 118.507 38.4401C118.494 38.4299 118.44 38.4232 118.345 38.4198C118.271 38.4198 118.163 38.4164 118.028 38.4063C117.801 38.3894 117.561 38.3792 117.308 38.3792C117.206 38.3792 117.105 38.3792 117.007 38.386C116.946 38.4096 116.916 38.5313 116.916 38.7577L116.923 39.9235C117.166 39.9032 117.379 39.8931 117.561 39.8931C117.926 39.8931 118.224 39.9235 118.45 39.9877C118.676 40.0519 118.866 40.1397 119.014 40.2512C119.166 40.3627 119.278 40.4945 119.352 40.6432C119.426 40.7919 119.464 40.9507 119.464 41.1197C119.464 41.5285 119.295 41.8563 118.957 42.0996C118.619 42.3429 118.2 42.4645 117.693 42.4645C117.602 42.4645 117.443 42.4578 117.223 42.4409C117.075 42.4307 116.889 42.424 116.673 42.424C116.578 42.424 116.399 42.4307 116.135 42.4476L115.341 42.478L115.348 42.2077C115.392 42.1942 115.459 42.1807 115.544 42.1706C115.706 42.1469 115.828 42.1199 115.905 42.0827C115.963 42.032 115.993 41.7955 115.993 41.3731L115.983 39.5112L115.96 38.7678C115.953 38.5617 115.936 38.4468 115.905 38.4198C115.875 38.3927 115.804 38.3759 115.689 38.3691C115.642 38.3691 115.53 38.3556 115.355 38.3319L115.345 38.0886L115.679 38.0819L116.919 38.092H116.923L118.392 38.0684C118.629 38.0684 118.876 38.0853 119.126 38.119C119.166 38.1562 119.187 38.217 119.187 38.3015V39.2003L119.193 39.1936ZM116.963 42.059C117.108 42.1199 117.244 42.1503 117.375 42.1503C118.109 42.1503 118.477 41.8326 118.477 41.2008C118.477 40.5317 118.105 40.1972 117.365 40.1972C117.166 40.1972 117.017 40.2073 116.923 40.231C116.919 40.3154 116.916 40.3864 116.916 40.4337L116.923 40.6466V41.1501L116.929 41.8495V41.9036C116.929 41.9509 116.939 42.0016 116.963 42.059Z" fill="#00275F"/>
<path d="M123.312 42.4714H123.235L122.772 42.4613H122.528L122.278 42.4545L122.103 42.4647L121.755 42.4714C121.741 42.4309 121.734 42.3971 121.734 42.3734C121.734 42.3464 121.741 42.3058 121.751 42.2518L121.897 42.2281C122.059 42.2045 122.137 42.1707 122.137 42.12C122.137 42.0828 122.126 42.0389 122.103 41.9882C122.086 41.9477 122.052 41.8666 122.008 41.7449C121.964 41.6233 121.88 41.4205 121.748 41.1367L121.66 40.9238C121.593 40.7549 121.522 40.5994 121.454 40.4609C121.424 40.5285 121.38 40.6535 121.319 40.8326C121.268 40.9846 121.187 41.2043 121.075 41.4881C120.94 41.8429 120.866 42.0794 120.859 42.1977C120.917 42.2079 120.994 42.2146 121.089 42.218L121.14 42.2247C121.177 42.2247 121.221 42.2247 121.275 42.2247L121.326 42.2349C121.329 42.2721 121.332 42.3092 121.332 42.3464C121.332 42.4106 121.322 42.4511 121.305 42.468L121.244 42.4748C121.211 42.4782 121.19 42.4816 121.187 42.4816L120.896 42.4748H120.727C120.626 42.468 120.521 42.4613 120.413 42.4613L120.275 42.468L120.129 42.4782H120.048C120.045 42.4343 120.042 42.4005 120.042 42.3768C120.042 42.3532 120.042 42.3194 120.048 42.2788C120.278 42.2247 120.433 42.1741 120.525 42.1268C120.565 42.0558 120.626 41.9105 120.707 41.6909C120.863 41.2752 121.069 40.7751 121.322 40.1838C121.393 40.0182 121.447 39.8898 121.481 39.7986C121.508 39.7276 121.538 39.6567 121.572 39.5857H121.849C122.13 40.2412 122.366 40.7717 122.566 41.1772L122.893 41.9206L122.998 42.147C122.998 42.147 123.056 42.1707 123.16 42.1977C123.252 42.2214 123.309 42.245 123.326 42.2687C123.329 42.2923 123.333 42.3227 123.333 42.3599C123.333 42.4072 123.329 42.4444 123.319 42.468L123.312 42.4714Z" fill="#00275F"/>
<path d="M126.685 41.8057L126.762 41.8564C126.783 41.8733 126.796 41.8902 126.8 41.9138V41.9307C126.749 42.1335 126.678 42.272 126.59 42.3464C126.502 42.4207 126.394 42.4612 126.262 42.4612C126.131 42.4612 126.012 42.4241 125.918 42.3497C125.82 42.2754 125.735 42.147 125.654 41.9611C125.556 42.1335 125.421 42.2619 125.242 42.3497C125.063 42.4376 124.85 42.4815 124.593 42.4815C124.357 42.4815 124.184 42.4308 124.073 42.3328C123.961 42.2348 123.907 42.1064 123.907 41.9442C123.907 41.8699 123.924 41.7922 123.958 41.7178C123.992 41.6401 124.042 41.5658 124.117 41.4881C124.191 41.4137 124.309 41.3293 124.471 41.238C124.495 41.2245 124.583 41.1873 124.728 41.1231L125.573 40.7852C125.58 40.7007 125.583 40.6129 125.583 40.525C125.583 40.2209 125.546 40.0114 125.472 39.8999C125.428 39.8323 125.347 39.7985 125.235 39.7985C125.124 39.7985 125.019 39.8188 124.924 39.8627C124.83 39.9067 124.759 39.9607 124.718 40.0283C124.688 40.079 124.661 40.1736 124.637 40.3088C124.62 40.4068 124.607 40.4676 124.593 40.4811C124.559 40.525 124.498 40.5622 124.407 40.5994C124.319 40.6332 124.259 40.6602 124.225 40.6771C124.103 40.7345 124.005 40.765 123.934 40.765C123.904 40.7379 123.887 40.7007 123.887 40.6501C123.887 40.5217 123.914 40.4101 123.968 40.3189C124.049 40.1871 124.171 40.0587 124.336 39.9371C124.502 39.8154 124.654 39.7276 124.796 39.6769C124.992 39.6127 125.228 39.5823 125.509 39.5823C125.691 39.5823 125.847 39.6161 125.975 39.6836C126.104 39.7512 126.195 39.8492 126.245 39.981C126.296 40.1128 126.323 40.3493 126.323 40.6906L126.316 41.2515L126.323 41.6604V41.7652C126.323 41.8598 126.337 41.924 126.36 41.9611C126.387 41.9949 126.418 42.0152 126.458 42.0152C126.482 42.0152 126.506 42.0084 126.523 41.9949L126.624 41.8361L126.685 41.8125V41.8057ZM125.573 41.0184C125.445 41.0623 125.299 41.1333 125.137 41.2346C124.975 41.336 124.863 41.4374 124.799 41.5388C124.755 41.6131 124.732 41.7043 124.732 41.8125C124.732 41.9105 124.762 41.9916 124.819 42.0524C124.877 42.1132 124.948 42.147 125.022 42.147C125.151 42.147 125.255 42.1098 125.347 42.0389C125.465 41.9409 125.536 41.8631 125.556 41.8057C125.576 41.7483 125.587 41.5861 125.587 41.3157C125.587 41.2177 125.583 41.1164 125.573 41.0184Z" fill="#00275F"/>
<path d="M128.543 42.1988C128.662 42.2292 128.787 42.2495 128.915 42.263H128.942C128.979 42.2732 129.02 42.2799 129.064 42.2833L129.077 42.4793C129.03 42.4725 128.858 42.4691 128.564 42.4691L128.087 42.459L127.705 42.4759L127.283 42.4894V42.2833C127.317 42.2732 127.354 42.2664 127.391 42.263C127.516 42.2461 127.621 42.2258 127.712 42.1988C127.742 42.0468 127.759 41.7663 127.759 41.354L127.746 40.4147C127.742 40.1376 127.729 39.9889 127.709 39.9652C127.688 39.9416 127.631 39.9281 127.54 39.9247C127.489 39.9247 127.408 39.9146 127.3 39.9044L127.256 39.6679C127.361 39.678 127.462 39.6814 127.563 39.6848C127.715 39.6882 127.867 39.6983 128.023 39.7084C128.28 39.7253 128.509 39.7321 128.709 39.7321C128.956 39.7321 129.168 39.722 129.344 39.7051C129.462 39.6915 129.574 39.6848 129.685 39.6814L130.06 39.6611C130.05 39.7828 130.044 39.9179 130.044 40.0666C130.044 40.3099 130.044 40.4485 130.033 40.4822C130.023 40.516 130.003 40.5296 129.959 40.5296C129.902 40.5296 129.861 40.4721 129.837 40.3572C129.807 40.2018 129.76 40.1004 129.702 40.0463C129.645 39.9957 129.598 39.9619 129.564 39.9484C129.53 39.9348 129.385 39.9281 129.128 39.9281C128.807 39.9281 128.628 39.945 128.584 39.9821C128.54 40.0159 128.52 40.1274 128.52 40.3133V40.5735L128.499 41.3574C128.499 41.8474 128.516 42.1312 128.55 42.2022L128.543 42.1988Z" fill="#00275F"/>
<path d="M133.281 39.9717C133.426 40.1137 133.534 40.2725 133.605 40.4549C133.676 40.6374 133.713 40.8097 133.713 40.9686C133.713 41.2727 133.666 41.516 133.575 41.7018C133.433 41.9823 133.244 42.1884 133.007 42.3236C132.771 42.4587 132.494 42.5229 132.179 42.5229C131.824 42.5229 131.527 42.4452 131.28 42.2864C131.034 42.1276 130.858 41.9485 130.753 41.7458C130.649 41.543 130.594 41.293 130.594 40.9956C130.594 40.8435 130.618 40.6915 130.669 40.5394C130.72 40.3874 130.787 40.2522 130.875 40.1407C130.963 40.0292 131.057 39.9312 131.162 39.8568C131.314 39.7487 131.466 39.671 131.618 39.6237C131.77 39.5764 131.956 39.5527 132.173 39.5527C132.646 39.5527 133.014 39.6913 133.281 39.9717ZM131.426 41.1443C131.446 41.4247 131.46 41.5869 131.47 41.6309C131.5 41.7829 131.544 41.9147 131.608 42.0228C131.652 42.0938 131.723 42.1546 131.821 42.2087C131.919 42.2628 132.041 42.2898 132.176 42.2898C132.341 42.2898 132.48 42.2357 132.595 42.131C132.706 42.0262 132.791 41.8606 132.838 41.6376C132.869 41.4889 132.885 41.249 132.885 40.9145C132.885 40.5023 132.818 40.2117 132.683 40.0393C132.548 39.867 132.368 39.7825 132.145 39.7825C131.97 39.7825 131.828 39.8298 131.713 39.9278C131.598 40.0258 131.52 40.1677 131.473 40.3603C131.443 40.482 131.426 40.7455 131.422 41.1443H131.426Z" fill="#00275F"/>
<path d="M137.62 43.2756C137.569 43.2823 137.535 43.2857 137.515 43.2857H137.474C137.444 43.2316 137.41 43.1607 137.376 43.0728C137.265 42.7991 137.153 42.6234 137.042 42.5457C136.93 42.468 136.714 42.4308 136.4 42.4308H135.927L135.2 42.4207C135.018 42.4207 134.899 42.4308 134.845 42.4477C134.791 42.468 134.741 42.5153 134.693 42.5896C134.646 42.664 134.585 42.8093 134.514 43.0255C134.47 43.1539 134.443 43.2283 134.433 43.2452C134.423 43.2452 134.403 43.2452 134.376 43.2452C134.332 43.2485 134.305 43.2519 134.298 43.2519C134.288 43.2519 134.268 43.2519 134.24 43.2519C134.261 43.11 134.274 42.9951 134.281 42.9106C134.308 42.5693 134.342 42.3396 134.386 42.2247C134.413 42.2145 134.447 42.2044 134.491 42.201C134.555 42.1976 134.616 42.1875 134.676 42.174C134.876 41.7685 135.143 41.1366 135.47 40.2783L135.643 39.8255L135.748 39.5586H136.021C136.048 39.6228 136.248 40.0553 136.613 40.8494C136.981 41.6435 137.187 42.0692 137.231 42.1267C137.275 42.1841 137.342 42.2281 137.44 42.2652C137.498 42.2889 137.535 42.3193 137.552 42.3632C137.569 42.4072 137.579 42.5525 137.586 42.8025L137.62 43.2756ZM136.379 42.1537C136.336 42.0219 136.281 41.8834 136.224 41.7313L135.967 41.0386C135.825 40.6467 135.741 40.4203 135.714 40.3594L135.024 42.1571C135.308 42.1774 135.592 42.1875 135.873 42.1875C136.031 42.1875 136.2 42.174 136.383 42.1503L136.379 42.1537Z" fill="#00275F"/>
<path d="M138.008 42.4451L138.001 42.2255L138.383 42.1748C138.441 42.1579 138.478 42.1342 138.501 42.1038C138.522 42.0734 138.535 42.0058 138.535 41.8977V41.8605C138.535 41.8335 138.535 41.7828 138.539 41.7119C138.542 41.6409 138.545 41.5767 138.545 41.5226C138.545 41.4787 138.542 41.3976 138.535 41.276V41.107V40.9482L138.545 40.394C138.545 40.3231 138.539 40.2521 138.525 40.1778C138.501 40.144 138.454 40.1136 138.387 40.0899C138.319 40.0663 138.204 40.046 138.042 40.0358V39.8466C138.275 39.8331 138.481 39.7858 138.657 39.7013C138.779 39.6473 138.907 39.5493 139.049 39.4141H139.275C139.285 39.6946 139.289 40.0595 139.289 40.5089L139.265 41.8943C139.265 41.9889 139.268 42.0768 139.279 42.1511C139.35 42.1748 139.464 42.2018 139.62 42.2255C139.681 42.2356 139.731 42.2458 139.765 42.2593L139.758 42.4451C139.698 42.4451 139.654 42.4451 139.623 42.4451C139.59 42.4451 139.539 42.4451 139.468 42.4384C139.238 42.4282 138.931 42.4215 138.542 42.4215C138.43 42.4215 138.322 42.4248 138.221 42.435C138.12 42.4451 138.045 42.4485 138.008 42.4485V42.4451ZM138.485 38.3936C138.485 38.272 138.525 38.1706 138.603 38.0929C138.681 38.0152 138.785 37.9746 138.907 37.9746C139.039 37.9746 139.15 38.0152 139.238 38.0996C139.326 38.1807 139.37 38.2753 139.37 38.3801C139.37 38.4578 139.353 38.5355 139.316 38.6099C139.282 38.6876 139.225 38.7484 139.15 38.7957C139.076 38.843 138.998 38.8667 138.917 38.8667C138.809 38.8667 138.708 38.8194 138.616 38.7281C138.525 38.6369 138.478 38.5254 138.478 38.397L138.485 38.3936Z" fill="#00275F"/>
<path d="M142.354 39.8965L142.31 39.6668C142.607 39.6904 142.827 39.7006 142.962 39.7006H143.138H143.408C143.712 39.7006 143.928 39.6904 144.053 39.6668L144.009 39.8965L143.763 39.9202C143.655 39.9202 143.594 39.9371 143.584 39.9743C143.573 40.0081 143.567 40.1973 143.56 40.5386L143.553 40.7616L143.543 41.0421C143.543 41.7719 143.56 42.1605 143.594 42.2078C143.725 42.2382 143.834 42.2585 143.911 42.2687C143.945 42.272 143.979 42.2788 144.016 42.2889V42.4883L143.786 42.4782C143.546 42.4646 143.367 42.4579 143.252 42.4579L142.337 42.4883V42.2889C142.374 42.2788 142.408 42.272 142.445 42.2687C142.58 42.2518 142.685 42.2315 142.762 42.2078C142.789 42.0659 142.803 41.7787 142.803 41.3529V41.113L142.783 40.7447C142.783 40.7109 142.786 40.6501 142.796 40.5622C142.104 41.3293 141.661 41.7922 141.472 41.951C141.482 42.0625 141.499 42.147 141.522 42.2112C141.654 42.2416 141.762 42.2619 141.84 42.272C141.874 42.2754 141.908 42.2822 141.941 42.2923L141.948 42.4917L141.715 42.4815C141.472 42.468 141.296 42.4613 141.181 42.4613L140.265 42.4917V42.2923C140.302 42.2822 140.336 42.2754 140.373 42.272C140.505 42.2551 140.61 42.2349 140.691 42.2112C140.718 42.0693 140.732 41.9172 140.732 41.7618V41.2178V40.721V40.5386L140.725 40.3189C140.725 40.1162 140.715 40.0013 140.701 39.9675C140.688 39.9371 140.627 39.9202 140.522 39.9168C140.478 39.9168 140.397 39.9101 140.282 39.8999L140.238 39.6702C140.536 39.6904 140.755 39.7006 140.89 39.7006H141.066H141.336C141.641 39.7006 141.857 39.6904 141.979 39.6702L141.938 39.8999L141.691 39.9236C141.58 39.9236 141.519 39.9405 141.509 39.9776C141.499 40.0114 141.492 40.2007 141.489 40.542L141.478 40.7481L141.468 40.9914V41.6402L142.087 40.9643C142.266 40.7582 142.414 40.5926 142.539 40.4676C142.661 40.346 142.742 40.2547 142.783 40.1973C142.786 40.1365 142.789 40.0959 142.789 40.0723C142.789 39.9743 142.722 39.9202 142.593 39.9134C142.526 39.9134 142.445 39.9067 142.354 39.8965ZM141.029 38.5044C141.029 38.4098 141.063 38.3287 141.13 38.2645C141.198 38.2003 141.279 38.1665 141.377 38.1665C141.458 38.1665 141.526 38.1867 141.58 38.2307C141.634 38.2746 141.705 38.376 141.793 38.5348C141.914 38.751 142.046 38.8592 142.191 38.8592C142.337 38.8592 142.468 38.751 142.587 38.5348C142.664 38.3929 142.732 38.2982 142.789 38.2442C142.847 38.1901 142.921 38.1631 143.013 38.1631C143.104 38.1631 143.185 38.1969 143.249 38.2645C143.313 38.332 143.347 38.4098 143.347 38.5044C143.347 38.6868 143.236 38.8288 143.009 38.9234C142.786 39.0214 142.516 39.0687 142.205 39.0687C141.84 39.0687 141.553 39.018 141.343 38.9132C141.134 38.8085 141.029 38.6733 141.029 38.5044Z" fill="#00275F"/>
<path d="M145.776 40.951L145.901 40.9612L146.378 40.9544L146.506 40.9612L146.736 40.9679C146.827 40.9679 146.949 40.9679 147.101 40.9578V40.5692C147.101 40.2448 147.101 40.0556 147.091 40.0049C147.084 39.9542 147.017 39.9272 146.895 39.9238C146.844 39.9238 146.763 39.9137 146.655 39.9035L146.611 39.667C146.912 39.6873 147.128 39.6974 147.263 39.6974H147.439H147.709C148.013 39.6974 148.23 39.6873 148.355 39.667L148.311 39.9035C148.169 39.9204 148.084 39.9272 148.064 39.9272C147.959 39.9272 147.902 39.9441 147.888 39.9779C147.875 40.0083 147.868 40.1299 147.865 40.3394L147.855 40.7584L147.844 41.3667C147.844 41.8499 147.861 42.127 147.895 42.1979C148.037 42.2317 148.142 42.252 148.216 42.2621C148.253 42.2655 148.287 42.2723 148.321 42.2824V42.4885L147.919 42.4682C147.79 42.4615 147.672 42.4581 147.557 42.4581L147.06 42.475L146.638 42.4885V42.2824C146.672 42.2723 146.709 42.2655 146.746 42.2621C146.875 42.2452 146.979 42.2249 147.064 42.1979C147.104 41.9681 147.125 41.7046 147.125 41.4038L147.118 41.2112C146.973 41.218 146.834 41.2214 146.696 41.2214C146.496 41.2214 146.351 41.2214 146.253 41.2146L145.966 41.2078C145.908 41.2078 145.844 41.2079 145.78 41.218V41.3869V41.8701C145.78 41.9918 145.793 42.1033 145.824 42.1979C145.966 42.2317 146.07 42.252 146.141 42.2621C146.179 42.2655 146.212 42.2723 146.243 42.2824L146.25 42.4885L145.844 42.4682C145.716 42.4615 145.597 42.4581 145.479 42.4581L144.982 42.475L144.56 42.4885V42.2824C144.594 42.2723 144.631 42.2655 144.668 42.2621C144.793 42.2452 144.898 42.2249 144.989 42.1979C145.02 42.0459 145.036 41.7688 145.036 41.3667L145.023 40.4171C145.02 40.1401 145.006 39.988 144.986 39.9643C144.965 39.9407 144.908 39.9272 144.817 39.9272C144.766 39.9272 144.685 39.917 144.577 39.9069L144.533 39.6704C144.834 39.6906 145.05 39.7008 145.185 39.7008H145.361H145.631C145.935 39.7008 146.152 39.6906 146.273 39.6704L146.233 39.9069C146.091 39.9238 146.006 39.9306 145.986 39.9306C145.878 39.9306 145.82 39.9475 145.807 39.9812C145.793 40.0117 145.787 40.1333 145.783 40.3428C145.783 40.6131 145.776 40.8159 145.766 40.9544L145.776 40.951Z" fill="#00275F"/>
<path d="M150.963 39.8968L150.92 39.667C151.217 39.6906 151.437 39.7008 151.572 39.7008H151.747H152.018C152.322 39.7008 152.538 39.6906 152.663 39.667L152.619 39.8968L152.373 39.9204C152.264 39.9204 152.204 39.9373 152.193 39.9745C152.183 40.0083 152.177 40.1975 152.17 40.5388L152.163 40.7618L152.153 41.0423C152.153 41.7722 152.17 42.1607 152.204 42.2081C152.335 42.2385 152.443 42.2587 152.521 42.2689C152.555 42.2723 152.589 42.279 152.626 42.2892V42.4885L152.396 42.4784C152.156 42.4649 151.977 42.4581 151.862 42.4581L150.947 42.4885V42.2892C150.984 42.279 151.018 42.2723 151.055 42.2689C151.19 42.252 151.295 42.2317 151.372 42.2081C151.399 42.0661 151.413 41.7789 151.413 41.3531V41.1132L151.393 40.7449C151.393 40.7111 151.396 40.6503 151.406 40.5624C150.713 41.3295 150.271 41.7924 150.082 41.9512C150.092 42.0628 150.109 42.1472 150.132 42.2114C150.264 42.2418 150.372 42.2621 150.45 42.2723C150.484 42.2756 150.517 42.2824 150.551 42.2925L150.558 42.4919L150.325 42.4818C150.082 42.4682 149.906 42.4615 149.791 42.4615L148.875 42.4919V42.2925C148.912 42.2824 148.946 42.2756 148.983 42.2723C149.115 42.2554 149.22 42.2351 149.301 42.2114C149.328 42.0695 149.341 41.9175 149.341 41.762V41.218V40.7213V40.5388L149.335 40.3192C149.335 40.1164 149.325 40.0015 149.311 39.9677C149.298 39.9373 149.237 39.9204 149.132 39.917C149.088 39.917 149.007 39.9103 148.892 39.9001L148.848 39.6704C149.146 39.6906 149.365 39.7008 149.5 39.7008H149.676H149.946C150.25 39.7008 150.467 39.6906 150.588 39.6704L150.548 39.9001L150.301 39.9238C150.19 39.9238 150.129 39.9407 150.119 39.9779C150.109 40.0117 150.102 40.2009 150.098 40.5422L150.088 40.7483L150.078 40.9916V41.6404L150.696 40.9646C150.876 40.7584 151.024 40.5929 151.149 40.4678C151.271 40.3462 151.352 40.255 151.393 40.1975C151.396 40.1367 151.399 40.0961 151.399 40.0725C151.399 39.9745 151.332 39.9204 151.203 39.9137C151.136 39.9137 151.055 39.9069 150.963 39.8968Z" fill="#00275F"/>
<path d="M155.268 39.8965L155.224 39.6668C155.522 39.6904 155.741 39.7006 155.877 39.7006H156.052H156.323C156.627 39.7006 156.843 39.6904 156.968 39.6668L156.924 39.8965L156.677 39.9202C156.569 39.9202 156.509 39.9371 156.498 39.9743C156.488 40.0081 156.481 40.1973 156.475 40.5386L156.468 40.7616L156.458 41.0421C156.458 41.7719 156.475 42.1605 156.509 42.2078C156.64 42.2382 156.748 42.2585 156.826 42.2687C156.86 42.272 156.894 42.2788 156.931 42.2889V42.4883L156.701 42.4782C156.461 42.4646 156.282 42.4579 156.167 42.4579L155.251 42.4883V42.2889C155.289 42.2788 155.322 42.272 155.36 42.2687C155.495 42.2518 155.6 42.2315 155.677 42.2078C155.704 42.0659 155.718 41.7787 155.718 41.3529V41.113L155.698 40.7447C155.698 40.7109 155.701 40.6501 155.711 40.5622C155.018 41.3293 154.576 41.7922 154.386 41.951C154.397 42.0625 154.413 42.147 154.437 42.2112C154.569 42.2416 154.677 42.2619 154.755 42.272C154.789 42.2754 154.822 42.2822 154.856 42.2923L154.863 42.4917L154.63 42.4815C154.386 42.468 154.211 42.4613 154.096 42.4613L153.18 42.4917V42.2923C153.217 42.2822 153.251 42.2754 153.288 42.272C153.42 42.2551 153.525 42.2349 153.606 42.2112C153.633 42.0693 153.646 41.9172 153.646 41.7618V41.2178V40.721V40.5386L153.64 40.3189C153.64 40.1162 153.63 40.0013 153.616 39.9675C153.602 39.9371 153.542 39.9202 153.437 39.9168C153.393 39.9168 153.312 39.9101 153.197 39.8999L153.153 39.6702C153.45 39.6904 153.67 39.7006 153.805 39.7006H153.981H154.251C154.555 39.7006 154.772 39.6904 154.893 39.6702L154.853 39.8999L154.606 39.9236C154.495 39.9236 154.434 39.9405 154.424 39.9776C154.413 40.0114 154.407 40.2007 154.403 40.542L154.393 40.7481L154.383 40.9914V41.6402L155.001 40.9643C155.181 40.7582 155.329 40.5926 155.454 40.4676C155.576 40.346 155.657 40.2547 155.698 40.1973C155.701 40.1365 155.704 40.0959 155.704 40.0723C155.704 39.9743 155.637 39.9202 155.508 39.9134C155.441 39.9134 155.36 39.9067 155.268 39.8965ZM153.944 38.5044C153.944 38.4098 153.978 38.3287 154.045 38.2645C154.113 38.2003 154.194 38.1665 154.292 38.1665C154.373 38.1665 154.441 38.1867 154.495 38.2307C154.549 38.2746 154.62 38.376 154.707 38.5348C154.829 38.751 154.961 38.8592 155.106 38.8592C155.251 38.8592 155.383 38.751 155.502 38.5348C155.579 38.3929 155.647 38.2982 155.704 38.2442C155.762 38.1901 155.836 38.1631 155.927 38.1631C156.019 38.1631 156.1 38.1969 156.164 38.2645C156.228 38.332 156.262 38.4098 156.262 38.5044C156.262 38.6868 156.15 38.8288 155.924 38.9234C155.701 39.0214 155.431 39.0687 155.12 39.0687C154.755 39.0687 154.468 39.018 154.258 38.9132C154.049 38.8085 153.944 38.6733 153.944 38.5044Z" fill="#00275F"/>
<path d="M62.2764 47.6559V47.4261L62.2662 46.8347C62.2662 46.5712 62.2527 46.409 62.2223 46.3482C62.1513 46.2975 62.0635 46.2738 61.9689 46.2738C61.9148 46.2738 61.8641 46.2704 61.8168 46.2603C61.8134 46.2029 61.81 46.1589 61.81 46.1353C61.81 46.1184 61.81 46.0947 61.8134 46.0711C62.175 46.0373 62.5095 45.919 62.8102 45.7129H62.9049C62.9251 45.7129 62.9555 45.7129 62.9927 45.7129V45.892L62.986 46.605L63.0096 47.6525C63.2968 47.4835 63.5807 47.4024 63.8578 47.4024C64.2261 47.4024 64.5336 47.5308 64.7769 47.7843C65.0202 48.0411 65.1452 48.3925 65.1452 48.8419C65.1452 49.2913 65.0202 49.6123 64.7701 49.8692C64.5201 50.126 64.199 50.2544 63.8104 50.2544C63.4962 50.2544 63.2259 50.1665 62.9995 49.9908L63.013 50.5923C63.013 50.9978 63.013 51.2512 63.0231 51.3559C63.0299 51.4607 63.0502 51.5317 63.084 51.5688C63.1177 51.606 63.1921 51.6398 63.307 51.6601L63.3678 51.677C63.432 51.6938 63.4894 51.704 63.5435 51.7107C63.5638 51.731 63.5739 51.7648 63.5739 51.8087C63.5739 51.8324 63.5739 51.8696 63.5739 51.9169C63.3813 51.9169 63.1988 51.9067 63.0265 51.8865L62.7258 51.8662H62.4825L62.3642 51.8729L62.1817 51.8831C62.1142 51.8831 62.0398 51.8898 61.9621 51.9C61.8776 51.9101 61.8168 51.9135 61.783 51.9135C61.7796 51.9135 61.7627 51.9135 61.7391 51.9135V51.7614C61.783 51.7243 61.8709 51.6871 61.9993 51.6465C62.1479 51.5992 62.2358 51.5452 62.2628 51.4877C62.2899 51.4303 62.3034 51.3053 62.3034 51.1093V50.0111L62.2966 49.9908C62.0669 50.1665 61.7999 50.2544 61.4924 50.2544C61.0768 50.2544 60.7524 50.1091 60.5125 49.8185C60.2726 49.5279 60.1543 49.1866 60.1543 48.798C60.1543 48.4094 60.2759 48.0512 60.5192 47.791C60.7625 47.5308 61.0666 47.399 61.4383 47.399C61.7154 47.399 61.9959 47.4835 62.2865 47.6491L62.2764 47.6559ZM62.2696 49.1832C62.2595 48.9602 62.2561 48.7642 62.2561 48.5952L62.2628 48.3519C62.2628 48.1391 62.202 47.9735 62.0804 47.8552C61.9587 47.737 61.8033 47.6761 61.6174 47.6761C61.1545 47.6761 60.9247 48.0715 60.9247 48.8588C60.9247 49.2373 60.9957 49.5211 61.141 49.7137C61.2863 49.9063 61.4485 50.0009 61.6309 50.0009C61.7729 50.0009 61.9148 49.9401 62.05 49.8185C62.1851 49.6968 62.2595 49.4873 62.2696 49.1866V49.1832ZM63.0096 49.1832C63.0096 49.4468 63.0704 49.6461 63.2022 49.7881C63.334 49.93 63.4861 49.9976 63.6618 49.9976C63.8375 49.9976 63.9963 49.9097 64.1416 49.7306C64.2903 49.5515 64.3646 49.2508 64.3646 48.8284C64.3646 48.4871 64.3072 48.21 64.1957 47.9938C64.0842 47.7809 63.9084 47.6728 63.6685 47.6728C63.4759 47.6728 63.3205 47.7336 63.1988 47.8586C63.0806 47.9803 63.0198 48.1492 63.0164 48.3587L63.0096 49.1798V49.1832Z" fill="#00275F"/>
<path d="M68.6222 47.7169C68.7675 47.8588 68.8756 48.0176 68.9465 48.2001C69.0175 48.3825 69.0547 48.5549 69.0547 48.7137C69.0547 49.0178 69.0074 49.2611 68.9161 49.4469C68.7742 49.7274 68.585 49.9335 68.3484 50.0687C68.1119 50.2039 67.8348 50.2681 67.5206 50.2681C67.1658 50.2681 66.8684 50.1903 66.6217 50.0315C66.3751 49.8727 66.1994 49.6936 66.0946 49.4909C65.9899 49.2881 65.9358 49.0381 65.9358 48.7407C65.9358 48.5887 65.9594 48.4366 66.0101 48.2845C66.0608 48.1325 66.1284 47.9973 66.2163 47.8858C66.3041 47.7743 66.3987 47.6763 66.5035 47.602C66.6555 47.4938 66.8076 47.4161 66.9596 47.3688C67.1117 47.3215 67.2976 47.2979 67.5138 47.2979C67.9869 47.2979 68.3552 47.4364 68.6222 47.7169ZM66.767 48.8894C66.7873 49.1699 66.8008 49.3321 66.811 49.376C66.8414 49.528 66.8853 49.6598 66.9495 49.768C66.9934 49.8389 67.0644 49.8997 67.1624 49.9538C67.2604 50.0079 67.382 50.0349 67.5172 50.0349C67.6828 50.0349 67.8213 49.9808 67.9362 49.8761C68.0511 49.7713 68.1322 49.6058 68.1795 49.3827C68.2099 49.2341 68.2268 48.9941 68.2268 48.6596C68.2268 48.2474 68.1592 47.9568 68.0241 47.7844C67.8889 47.6121 67.7098 47.5276 67.4868 47.5276C67.3111 47.5276 67.1692 47.5749 67.0543 47.6729C66.9394 47.7709 66.8617 47.9128 66.8143 48.1054C66.7839 48.2271 66.767 48.4907 66.7637 48.8894H66.767Z" fill="#00275F"/>
<path d="M70.9166 48.6949L71.0416 48.7051L71.518 48.6983L71.6464 48.7051L71.8762 48.7118C71.9675 48.7118 72.0891 48.7118 72.2412 48.7017V48.3131C72.2412 47.9887 72.2412 47.7995 72.231 47.7488C72.2243 47.6981 72.1567 47.6711 72.035 47.6677C71.9843 47.6677 71.9033 47.6576 71.7951 47.6474L71.7512 47.4109C72.0519 47.4312 72.2682 47.4413 72.4034 47.4413H72.5791H72.8494C73.1535 47.4413 73.3698 47.4312 73.4948 47.4109L73.4509 47.6474C73.3089 47.6643 73.2245 47.6711 73.2042 47.6711C73.0994 47.6711 73.042 47.688 73.0285 47.7218C73.015 47.7522 73.0082 47.8738 73.0048 48.0833L72.9947 48.5023L72.9846 49.1106C72.9846 49.5938 73.0014 49.8709 73.0352 49.9418C73.1772 49.9756 73.2819 49.9959 73.3529 50.006C73.39 50.0094 73.4238 50.0162 73.4576 50.0263V50.2324L73.0555 50.2121C72.9271 50.2054 72.8088 50.202 72.6906 50.202L72.1938 50.2189L71.7715 50.2324V50.0263C71.8053 50.0162 71.8424 50.0094 71.8796 50.006C72.008 49.9891 72.1128 49.9688 72.1972 49.9418C72.2378 49.712 72.2581 49.4485 72.2581 49.1477L72.2513 48.9551C72.106 48.9619 71.9675 48.9653 71.8289 48.9653C71.6295 48.9653 71.4842 48.9653 71.3863 48.9585L71.099 48.9517C71.0416 48.9517 70.9774 48.9517 70.9132 48.9619V49.1308L70.9098 49.614C70.9098 49.7357 70.9233 49.8472 70.9537 49.9418C71.0957 49.9756 71.2004 49.9959 71.2714 50.006C71.3085 50.0094 71.3423 50.0162 71.3727 50.0263L71.3795 50.2324L70.974 50.2121C70.8456 50.2054 70.7273 50.202 70.6091 50.202L70.1123 50.2189L69.69 50.2324V50.0263C69.7238 50.0162 69.7609 50.0094 69.7981 50.006C69.9231 49.9891 70.0279 49.9688 70.1157 49.9418C70.1461 49.7898 70.163 49.5127 70.163 49.1106L70.1495 48.161C70.1461 47.884 70.1326 47.7319 70.1123 47.7082C70.0921 47.6846 70.0346 47.6711 69.9434 47.6711C69.8927 47.6711 69.8116 47.6609 69.7035 47.6508L69.6595 47.4143C69.9603 47.4345 70.1765 47.4447 70.3117 47.4447H70.4874H70.7577C71.0619 47.4447 71.2781 47.4345 71.3998 47.4143L71.3592 47.6508C71.2173 47.6677 71.1328 47.6745 71.1125 47.6745C71.0078 47.6745 70.947 47.6914 70.9335 47.7251C70.9199 47.7556 70.9132 47.8772 70.9098 48.0867C70.9098 48.357 70.903 48.5598 70.8929 48.6983L70.9166 48.6949Z" fill="#00275F"/>
<path d="M77.266 51.0178C77.2153 51.0245 77.1816 51.0279 77.1613 51.0279H77.1207C77.0903 50.9738 77.0565 50.9029 77.0227 50.815C76.9112 50.5413 76.7997 50.3656 76.6882 50.2879C76.5767 50.2102 76.3604 50.173 76.0462 50.173H75.5731L74.8466 50.1629C74.6641 50.1629 74.5459 50.173 74.4918 50.1899C74.4377 50.2102 74.3871 50.2575 74.3398 50.3318C74.2925 50.4061 74.2316 50.5515 74.1607 50.7677C74.1167 50.8961 74.0897 50.9705 74.0796 50.9873C74.0694 50.9873 74.0492 50.9873 74.0221 50.9873C73.9782 50.9907 73.9545 50.9941 73.9444 50.9941C73.9343 50.9941 73.914 50.9941 73.887 50.9941C73.9072 50.8522 73.9208 50.7373 73.9275 50.6528C73.9545 50.3115 73.9883 50.0818 74.0323 49.9669C74.0593 49.9567 74.0931 49.9466 74.137 49.9432C74.2012 49.9398 74.262 49.9297 74.3229 49.9162C74.5256 49.5107 74.7892 48.8788 75.1169 48.0205L75.2893 47.5677L75.394 47.3008H75.6677C75.6948 47.365 75.8907 47.7975 76.2591 48.5916C76.6274 49.3857 76.8335 49.8114 76.8774 49.8689C76.9214 49.9263 76.9889 49.9703 77.0836 50.0074C77.141 50.0311 77.1782 50.0615 77.1951 50.1054C77.212 50.1493 77.2221 50.2946 77.2289 50.5447L77.2627 51.0178H77.266ZM76.0259 49.8959C75.982 49.7641 75.9279 49.6256 75.8705 49.4735L75.6137 48.7808C75.4717 48.3888 75.3873 48.1624 75.3602 48.1016L74.6709 49.8993C74.9547 49.9196 75.2386 49.9297 75.5191 49.9297C75.6779 49.9297 75.8468 49.9162 76.0293 49.8925L76.0259 49.8959Z" fill="#00275F"/>
<path d="M79.2495 50.2159L79.2563 49.9455C79.3103 49.932 79.3745 49.9185 79.4523 49.9084C79.6009 49.8881 79.7192 49.8577 79.8104 49.8205C79.8409 49.7698 79.8611 49.7191 79.8713 49.6718C79.8882 49.5434 79.8983 49.3576 79.8983 49.1109L79.8915 47.668C79.8915 47.5194 79.8848 47.1274 79.8679 46.4955C79.8645 46.3266 79.851 46.2218 79.8341 46.1812C79.8273 46.1677 79.8172 46.1576 79.8003 46.1475C79.7631 46.1238 79.6955 46.1069 79.5976 46.1035C79.5536 46.1035 79.4421 46.09 79.2664 46.0664L79.2563 45.8264L80.0166 45.8096L81.1283 45.7724H81.2601C81.2871 45.7656 81.3141 45.7656 81.3412 45.7656C81.3648 45.7656 81.4223 45.7656 81.5202 45.7656H81.7365C81.9088 45.7656 82.0947 45.7893 82.2974 45.8433C82.3684 45.8602 82.4596 45.9008 82.5745 45.9582C82.6894 46.0157 82.7908 46.09 82.8753 46.1779C82.9597 46.2657 83.0239 46.3671 83.0645 46.4786C83.105 46.5901 83.1253 46.7084 83.1253 46.83C83.1253 46.9686 83.0949 47.0936 83.0341 47.2017C82.9732 47.3132 82.8786 47.4112 82.757 47.5058C82.6928 47.5498 82.5475 47.6241 82.3177 47.7289C82.659 47.8066 82.9192 47.9451 83.0983 48.1512C83.2774 48.3574 83.3652 48.5838 83.3652 48.8338C83.3652 48.9825 83.3382 49.1379 83.2807 49.3035C83.2402 49.4252 83.1726 49.54 83.0746 49.6414C82.9462 49.78 82.8077 49.8847 82.6658 49.9523C82.5205 50.0233 82.3245 50.0807 82.071 50.1246C81.9426 50.1483 81.7534 50.1584 81.4932 50.1584L80.9154 50.1449C80.6721 50.1449 80.3815 50.155 80.0436 50.1787C79.949 50.1821 79.6854 50.1922 79.2495 50.2091V50.2159ZM80.8309 47.6376C80.9222 47.6511 81.0269 47.6579 81.1485 47.6579C81.4865 47.6579 81.7433 47.5937 81.919 47.4687C82.0947 47.3436 82.1792 47.1274 82.1792 46.8199C82.1792 46.6036 82.0981 46.4212 81.9325 46.2759C81.7669 46.1306 81.5169 46.0596 81.1857 46.0596C81.0911 46.0596 80.9627 46.0731 80.8039 46.0968C80.8039 46.1475 80.8039 46.2252 80.8106 46.3198C80.8208 46.5124 80.8275 46.7827 80.8275 47.1274V47.4112C80.8275 47.4619 80.8275 47.5363 80.8275 47.6343L80.8309 47.6376ZM80.8715 49.8002C81.0201 49.8611 81.1553 49.8915 81.2837 49.8915C81.5405 49.8915 81.7534 49.8509 81.9156 49.7732C82.0778 49.6955 82.1961 49.5874 82.2738 49.4454C82.3481 49.3035 82.3853 49.1312 82.3853 48.9183C82.3853 48.7054 82.3447 48.5263 82.2636 48.3945C82.1521 48.2121 82.0136 48.0904 81.8514 48.0296C81.6892 47.9688 81.4493 47.935 81.1283 47.935C80.9864 47.935 80.8884 47.9451 80.8343 47.9654V48.8845L80.8411 49.6651C80.8411 49.7022 80.8546 49.7462 80.8748 49.7935L80.8715 49.8002Z" fill="#00275F"/>
<path d="M84.0983 50.189L84.0916 49.9694L84.4768 49.9187C84.5342 49.9018 84.5714 49.8781 84.595 49.8477C84.6153 49.8173 84.6288 49.7497 84.6288 49.6416V49.6044C84.6288 49.5774 84.6288 49.5267 84.6356 49.4558C84.6356 49.3848 84.639 49.3206 84.639 49.2665C84.639 49.2226 84.639 49.1415 84.6288 49.0199L84.6356 48.8509L84.6288 48.6921L84.639 48.1379C84.639 48.067 84.6322 47.996 84.6187 47.9217C84.595 47.8879 84.5477 47.8575 84.4835 47.8338C84.4159 47.8101 84.3011 47.7899 84.1389 47.7797V47.5905C84.372 47.577 84.5781 47.5297 84.7539 47.4452C84.8721 47.3911 85.0039 47.2932 85.1458 47.158H85.3722C85.3824 47.4385 85.3857 47.8034 85.3857 48.2528L85.3621 49.6382C85.3621 49.7328 85.3655 49.8207 85.3756 49.895C85.4466 49.9187 85.5614 49.9457 85.7169 49.9694C85.7777 49.9795 85.825 49.9897 85.8622 50.0032L85.8554 50.189C85.7946 50.189 85.7507 50.189 85.7203 50.189C85.6865 50.189 85.6358 50.189 85.5648 50.1823C85.3351 50.1721 85.0276 50.1654 84.639 50.1654C84.5275 50.1654 84.4193 50.1687 84.3179 50.1789C84.2166 50.189 84.1422 50.1924 84.1051 50.1924L84.0983 50.189ZM84.5748 46.1375C84.5748 46.0159 84.6153 45.9145 84.693 45.8368C84.7707 45.7591 84.8755 45.7185 84.9971 45.7185C85.1323 45.7185 85.2404 45.7591 85.3283 45.8435C85.4162 45.9246 85.4601 46.0192 85.4601 46.124C85.4601 46.2017 85.4432 46.2794 85.406 46.3538C85.3688 46.4281 85.3148 46.4923 85.2404 46.5396C85.1661 46.5869 85.0884 46.6106 85.0073 46.6106C84.8992 46.6106 84.7978 46.5633 84.7065 46.472C84.6153 46.3808 84.568 46.2693 84.568 46.1409L84.5748 46.1375Z" fill="#00275F"/>
<path d="M86.2238 48.1346C86.2407 48.1008 86.2609 48.0535 86.2778 47.9893L86.3184 47.8744C86.3657 47.7325 86.413 47.5703 86.4637 47.3844L86.4975 47.2763H86.6529C86.663 47.2932 86.6732 47.3067 86.6799 47.3168C86.7374 47.4115 86.7712 47.4655 86.7881 47.4757C86.8117 47.4824 86.9266 47.4858 87.1395 47.4858L87.8457 47.4757H88.1127H88.9C88.9067 47.4757 88.9304 47.4757 88.9743 47.4689C89.0183 47.4621 89.0453 47.4554 89.0622 47.4419C89.0791 47.4283 89.096 47.3912 89.1196 47.3304L89.15 47.2695C89.194 47.2695 89.2582 47.2695 89.3393 47.2695V47.8L89.346 48.0264C89.346 48.1684 89.3426 48.2495 89.3325 48.2697C89.2582 48.2934 89.194 48.3069 89.1433 48.3103C89.1061 48.2562 89.0588 48.1548 88.998 48.0095C88.9439 47.8811 88.9034 47.8102 88.873 47.7899C88.8459 47.7696 88.7479 47.7595 88.5857 47.7595H88.3999C88.3357 47.7595 88.2613 47.7595 88.1836 47.7527L88.1904 48.0332L88.1836 48.3981L88.1701 48.9962C88.1701 49.5639 88.187 49.8816 88.2174 49.9424C88.3593 49.9762 88.4675 49.9964 88.535 50.0066C88.5722 50.01 88.606 50.0167 88.6398 50.0269V50.233L88.2377 50.2127C88.1093 50.2059 87.991 50.2026 87.8795 50.2026L87.3794 50.2195L86.957 50.233L86.9638 50.0269C86.9942 50.0167 87.028 50.01 87.0652 50.0066C87.1936 49.9897 87.2983 49.9694 87.3828 49.9424C87.42 49.7667 87.4369 49.5267 87.4369 49.226L87.4233 48.4928C87.4233 48.1278 87.4166 47.8879 87.4064 47.7663C87.3051 47.7629 87.224 47.7595 87.1665 47.7595C86.9638 47.7595 86.8388 47.773 86.7813 47.8034C86.7239 47.8338 86.6394 47.9217 86.5211 48.0738L86.4569 48.1515C86.413 48.2055 86.3826 48.2326 86.3623 48.2326C86.3218 48.2326 86.2711 48.1988 86.2136 48.1346H86.2238Z" fill="#00275F"/>
<path d="M92.7691 49.5508L92.8468 49.6015C92.8671 49.6184 92.8806 49.6353 92.884 49.659V49.6758C92.8333 49.8786 92.7624 50.0171 92.6745 50.0915C92.5866 50.1658 92.4785 50.2064 92.3467 50.2064C92.2149 50.2064 92.0967 50.1692 92.0021 50.0949C91.9041 50.0205 91.8196 49.8921 91.7385 49.7063C91.6405 49.8786 91.5053 50.007 91.3296 50.0949C91.1539 50.1827 90.9376 50.2266 90.6808 50.2266C90.4443 50.2266 90.272 50.176 90.1605 50.078C90.049 49.98 89.9949 49.8516 89.9949 49.6894C89.9949 49.615 90.0118 49.5373 90.0456 49.463C90.0794 49.3886 90.1301 49.3109 90.2044 49.2332C90.2787 49.1555 90.397 49.0744 90.5592 48.9831C90.5828 48.9696 90.6707 48.9325 90.816 48.8682L91.6608 48.5303C91.6675 48.4459 91.6709 48.358 91.6709 48.2702C91.6709 47.966 91.6337 47.7565 91.5594 47.645C91.5155 47.5774 91.4344 47.5437 91.3229 47.5437C91.2114 47.5437 91.1066 47.5639 91.012 47.6079C90.9174 47.6518 90.8464 47.7059 90.8059 47.7734C90.7755 47.8241 90.7484 47.9187 90.7248 48.0539C90.7079 48.1519 90.6944 48.2127 90.6808 48.2262C90.647 48.2702 90.5862 48.3073 90.495 48.3445C90.4071 48.3783 90.3463 48.4053 90.3125 48.4222C90.1909 48.4797 90.0929 48.5101 90.0219 48.5101C89.9915 48.483 89.9746 48.4459 89.9746 48.3952C89.9746 48.2668 90.0016 48.1553 90.0557 48.064C90.1368 47.9322 90.2585 47.8038 90.424 47.6822C90.5896 47.5605 90.7417 47.4727 90.8836 47.422C91.0796 47.3578 91.3161 47.3274 91.5966 47.3274C91.779 47.3274 91.9345 47.3612 92.0629 47.4288C92.1913 47.4963 92.2825 47.5943 92.3332 47.7261C92.3839 47.8579 92.4109 48.0944 92.4109 48.4357L92.4042 48.9967L92.4109 49.4055V49.5103C92.4109 49.6049 92.4244 49.6691 92.4481 49.7063C92.4717 49.7434 92.5055 49.7603 92.5461 49.7603C92.5697 49.7603 92.5934 49.7536 92.6103 49.74L92.7117 49.5812L92.7725 49.5576L92.7691 49.5508ZM91.6574 48.7635C91.529 48.8074 91.3837 48.8784 91.2215 48.9798C91.0593 49.0811 90.9478 49.1825 90.8836 49.2839C90.8397 49.3582 90.816 49.4495 90.816 49.5576C90.816 49.6556 90.8464 49.7367 90.9039 49.7975C90.9613 49.8583 91.0323 49.8921 91.1066 49.8921C91.235 49.8921 91.3398 49.8549 91.431 49.784C91.5493 49.686 91.6202 49.6083 91.6405 49.5508C91.6608 49.4934 91.6709 49.3312 91.6709 49.0609C91.6709 48.9629 91.6675 48.8615 91.6574 48.7635Z" fill="#00275F"/>
<path d="M96.4691 50.2165H96.3913L95.9284 50.2064H95.6851L95.4351 50.1996L95.2594 50.2098L94.9113 50.2165C94.8978 50.176 94.891 50.1422 94.891 50.1185C94.891 50.0915 94.8978 50.051 94.9079 49.9969L95.0532 49.9732C95.2154 49.9496 95.2931 49.9158 95.2931 49.8651C95.2931 49.8279 95.283 49.784 95.2594 49.7333C95.2425 49.6928 95.2087 49.6117 95.1647 49.49C95.1208 49.3684 95.0363 49.1656 94.9045 48.8818L94.8167 48.6689C94.7491 48.5 94.6782 48.3445 94.6106 48.206C94.5802 48.2736 94.5362 48.3986 94.4754 48.5777C94.4247 48.7297 94.3436 48.9494 94.2321 49.2332C94.097 49.588 94.0226 49.8246 94.0159 49.9428C94.0733 49.953 94.151 49.9597 94.2456 49.9631L94.2963 49.9699C94.3335 49.9699 94.3774 49.9699 94.4315 49.9699L94.4822 49.98C94.4855 50.0172 94.4889 50.0543 94.4889 50.0915C94.4889 50.1557 94.4788 50.1963 94.4619 50.2132L94.4011 50.2199C94.3673 50.2233 94.347 50.2267 94.3436 50.2267L94.053 50.2199H93.8841C93.7827 50.2132 93.678 50.2064 93.5698 50.2064L93.4313 50.2132L93.286 50.2233H93.2049C93.2015 50.1794 93.1981 50.1456 93.1981 50.1219C93.1981 50.0983 93.1981 50.0645 93.2049 50.0239C93.4347 49.9699 93.5901 49.9192 93.6813 49.8719C93.7219 49.8009 93.7827 49.6556 93.8638 49.436C94.0192 49.0203 94.2254 48.5202 94.4788 47.9289C94.5498 47.7633 94.6038 47.6349 94.6376 47.5437C94.6646 47.4727 94.695 47.4018 94.7288 47.3308H95.0059C95.2864 47.9864 95.5229 48.5169 95.7223 48.9224L96.0501 49.6657L96.1548 49.8921C96.1548 49.8921 96.2123 49.9158 96.317 49.9428C96.4082 49.9665 96.4657 49.9901 96.4826 50.0138C96.486 50.0374 96.4893 50.0679 96.4893 50.105C96.4893 50.1523 96.486 50.1895 96.4758 50.2132L96.4691 50.2165Z" fill="#00275F"/>
<path d="M96.8103 50.189L96.8036 49.9694L97.1854 49.9187C97.2429 49.9018 97.28 49.8781 97.3037 49.8477C97.324 49.8173 97.3375 49.7497 97.3375 49.6416V49.6044C97.3375 49.5774 97.3375 49.5267 97.3409 49.4558C97.3442 49.3848 97.3476 49.3206 97.3476 49.2665C97.3476 49.2226 97.3442 49.1415 97.3375 49.0199V48.8509V48.6921L97.3476 48.1379C97.3476 48.067 97.3409 47.996 97.3273 47.9217C97.3037 47.8879 97.2564 47.8575 97.1888 47.8338C97.1212 47.8101 97.0063 47.7899 96.8441 47.7797V47.5905C97.0773 47.577 97.2834 47.5297 97.4591 47.4452C97.5808 47.3911 97.7092 47.2932 97.8511 47.158H98.0775C98.0876 47.4385 98.091 47.8034 98.091 48.2528L98.0674 49.6382C98.0674 49.7328 98.0707 49.8207 98.0809 49.895C98.1518 49.9187 98.2667 49.9457 98.4222 49.9694C98.483 49.9795 98.5337 49.9897 98.5675 50.0032L98.5607 50.189C98.4999 50.189 98.456 50.189 98.4255 50.189C98.3917 50.189 98.3411 50.189 98.2701 50.1823C98.0403 50.1721 97.7328 50.1654 97.3442 50.1654C97.2327 50.1654 97.1246 50.1687 97.0232 50.1789C96.9219 50.189 96.8475 50.1924 96.8103 50.1924V50.189ZM97.2868 46.1375C97.2868 46.0159 97.3273 45.9145 97.4051 45.8368C97.4828 45.7591 97.5875 45.7185 97.7092 45.7185C97.841 45.7185 97.9525 45.7591 98.0403 45.8435C98.1282 45.9246 98.1721 46.0192 98.1721 46.124C98.1721 46.2017 98.1552 46.2794 98.118 46.3538C98.0843 46.4315 98.0268 46.4923 97.9525 46.5396C97.8781 46.5869 97.8004 46.6106 97.7193 46.6106C97.6112 46.6106 97.5098 46.5633 97.4186 46.472C97.3273 46.3808 97.28 46.2693 97.28 46.1409L97.2868 46.1375Z" fill="#00275F"/>
<path d="M100.274 48.6949L100.399 48.7051L100.875 48.6983L101.004 48.7051L101.234 48.7118C101.325 48.7118 101.447 48.7118 101.599 48.7017V48.3131C101.599 47.9887 101.599 47.7995 101.588 47.7488C101.582 47.6981 101.514 47.6711 101.392 47.6677C101.342 47.6677 101.261 47.6576 101.153 47.6474L101.109 47.4109C101.409 47.4312 101.626 47.4413 101.761 47.4413H101.937H102.207C102.511 47.4413 102.727 47.4312 102.852 47.4109L102.808 47.6474C102.666 47.6643 102.582 47.6711 102.562 47.6711C102.457 47.6711 102.399 47.688 102.386 47.7218C102.372 47.7522 102.366 47.8738 102.362 48.0833L102.352 48.5023L102.342 49.1106C102.342 49.5938 102.359 49.8709 102.393 49.9418C102.535 49.9756 102.639 49.9959 102.714 50.006C102.751 50.0094 102.785 50.0162 102.818 50.0263V50.2324L102.416 50.2121C102.288 50.2054 102.17 50.202 102.055 50.202L101.558 50.2189L101.136 50.2324V50.0263C101.169 50.0162 101.207 50.0094 101.244 50.006C101.372 49.9891 101.477 49.9688 101.561 49.9418C101.602 49.712 101.622 49.4485 101.622 49.1477L101.616 48.9551C101.47 48.9619 101.332 48.9653 101.193 48.9653C100.994 48.9653 100.848 48.9653 100.75 48.9585L100.463 48.9517C100.406 48.9517 100.342 48.9517 100.277 48.9619V49.1308V49.614C100.277 49.7357 100.291 49.8472 100.321 49.9418C100.463 49.9756 100.568 49.9959 100.639 50.006C100.676 50.0094 100.71 50.0162 100.74 50.0263L100.747 50.2324L100.342 50.2121C100.213 50.2054 100.095 50.202 99.9767 50.202L99.4799 50.2189L99.0575 50.2324V50.0263C99.0913 50.0162 99.1285 50.0094 99.1657 50.006C99.2907 49.9891 99.3955 49.9688 99.4867 49.9418C99.5171 49.7898 99.534 49.5127 99.534 49.1106L99.5205 48.161C99.5171 47.884 99.5036 47.7319 99.4833 47.7082C99.463 47.6846 99.4056 47.6711 99.3144 47.6711C99.2637 47.6711 99.1826 47.6609 99.0744 47.6508L99.0305 47.4143C99.3313 47.4345 99.5475 47.4447 99.6827 47.4447H99.8584H100.129C100.433 47.4447 100.649 47.4345 100.771 47.4143L100.73 47.6508C100.588 47.6677 100.504 47.6745 100.484 47.6745C100.375 47.6745 100.318 47.6914 100.304 47.7251C100.291 47.7556 100.284 47.8772 100.281 48.0867C100.281 48.357 100.274 48.5598 100.264 48.6983L100.274 48.6949Z" fill="#00275F"/>
<path d="M105.461 47.6409L105.417 47.4111C105.714 47.4348 105.934 47.4449 106.069 47.4449H106.245H106.515C106.819 47.4449 107.035 47.4348 107.16 47.4111L107.117 47.6409L106.87 47.6646C106.762 47.6646 106.701 47.6815 106.691 47.7186C106.681 47.7524 106.674 47.9416 106.667 48.2829L106.66 48.506L106.65 48.7864C106.65 49.5163 106.667 49.9049 106.701 49.9522C106.833 49.9826 106.941 50.0029 107.019 50.013C107.052 50.0164 107.086 50.0232 107.123 50.0333V50.2327L106.893 50.2225C106.654 50.209 106.474 50.2022 106.36 50.2022L105.444 50.2327V50.0333C105.481 50.0232 105.515 50.0164 105.552 50.013C105.687 49.9961 105.792 49.9758 105.87 49.9522C105.897 49.8103 105.91 49.5231 105.91 49.0973V48.8574L105.89 48.4891C105.89 48.4553 105.893 48.3944 105.903 48.3066C105.211 49.0736 104.768 49.5366 104.579 49.6954C104.589 49.8069 104.606 49.8914 104.63 49.9556C104.761 49.986 104.869 50.0063 104.947 50.0164C104.981 50.0198 105.015 50.0265 105.049 50.0367L105.055 50.236L104.822 50.2259C104.579 50.2124 104.403 50.2056 104.288 50.2056L103.372 50.236V50.0367C103.41 50.0265 103.443 50.0198 103.481 50.0164C103.612 49.9995 103.717 49.9792 103.798 49.9556C103.825 49.8137 103.839 49.6616 103.839 49.5062V48.9621V48.4654V48.2829L103.832 48.0633C103.832 47.8606 103.822 47.7457 103.808 47.7119C103.795 47.6815 103.734 47.6646 103.629 47.6612C103.585 47.6612 103.504 47.6544 103.389 47.6443L103.345 47.4145C103.643 47.4348 103.862 47.4449 103.998 47.4449H104.173H104.444C104.748 47.4449 104.964 47.4348 105.086 47.4145L105.045 47.6443L104.798 47.6679C104.687 47.6679 104.626 47.6848 104.616 47.722C104.606 47.7558 104.599 47.945 104.596 48.2863L104.586 48.4924L104.575 48.7357V49.3845L105.194 48.7087C105.373 48.5026 105.522 48.337 105.647 48.212C105.768 48.0903 105.849 47.9991 105.89 47.9416C105.893 47.8808 105.897 47.8403 105.897 47.8166C105.897 47.7186 105.829 47.6646 105.701 47.6578C105.633 47.6578 105.552 47.651 105.461 47.6409Z" fill="#00275F"/>
<path d="M109.255 50.2159L109.262 49.9455C109.316 49.932 109.38 49.9185 109.458 49.9084C109.607 49.8881 109.725 49.8577 109.82 49.8205C109.85 49.7698 109.87 49.7191 109.881 49.6718C109.897 49.5434 109.908 49.3576 109.908 49.1109L109.901 47.668C109.901 47.5194 109.894 47.1274 109.877 46.4955C109.874 46.3266 109.86 46.2218 109.843 46.1812C109.837 46.1677 109.826 46.1576 109.81 46.1475C109.772 46.1238 109.705 46.1069 109.607 46.1035C109.563 46.1035 109.451 46.09 109.272 46.0664L109.262 45.8264L110.022 45.8096L111.134 45.7724H111.266C111.293 45.7656 111.32 45.7656 111.347 45.7656C111.371 45.7656 111.431 45.7656 111.526 45.7656H111.742C111.915 45.7656 112.101 45.7893 112.303 45.8433C112.374 45.8602 112.465 45.9008 112.58 45.9582C112.695 46.0157 112.797 46.09 112.881 46.1779C112.966 46.2657 113.03 46.3671 113.07 46.4786C113.111 46.5901 113.131 46.7084 113.131 46.83C113.131 46.9686 113.101 47.0936 113.04 47.2017C112.979 47.3099 112.884 47.4112 112.763 47.5058C112.699 47.5498 112.553 47.6241 112.324 47.7289C112.665 47.8066 112.925 47.9451 113.104 48.1512C113.283 48.3574 113.371 48.5838 113.371 48.8338C113.371 48.9825 113.344 49.1379 113.287 49.3035C113.246 49.4252 113.175 49.54 113.08 49.6414C112.952 49.78 112.814 49.8847 112.672 49.9523C112.526 50.0233 112.33 50.0807 112.077 50.1246C111.948 50.1483 111.759 50.1584 111.499 50.1584L110.921 50.1449C110.678 50.1449 110.387 50.155 110.049 50.1787C109.955 50.1821 109.691 50.1922 109.255 50.2091V50.2159ZM110.837 47.6376C110.928 47.6511 111.033 47.6579 111.154 47.6579C111.492 47.6579 111.749 47.5937 111.925 47.4687C112.101 47.3436 112.185 47.1274 112.185 46.8199C112.185 46.6036 112.101 46.4212 111.938 46.2759C111.773 46.1306 111.523 46.0596 111.192 46.0596C111.097 46.0596 110.969 46.0731 110.813 46.0968C110.813 46.1475 110.813 46.2252 110.82 46.3198C110.83 46.5124 110.837 46.7827 110.837 47.1274V47.4112C110.837 47.4619 110.837 47.5363 110.837 47.6343V47.6376ZM110.877 49.8002C111.023 49.8611 111.161 49.8915 111.29 49.8915C111.546 49.8915 111.759 49.8509 111.921 49.7732C112.084 49.6955 112.202 49.5874 112.276 49.4454C112.351 49.3035 112.388 49.1312 112.388 48.9183C112.388 48.7054 112.347 48.5263 112.266 48.3945C112.155 48.2121 112.016 48.0904 111.857 48.0296C111.695 47.9688 111.455 47.935 111.134 47.935C110.992 47.935 110.894 47.9451 110.84 47.9654V48.8845L110.847 49.6651C110.847 49.7022 110.86 49.7462 110.881 49.7935L110.877 49.8002Z" fill="#00275F"/>
<path d="M116.936 47.7169C117.081 47.8588 117.19 48.0176 117.261 48.2001C117.331 48.3825 117.369 48.5549 117.369 48.7137C117.369 49.0178 117.321 49.2611 117.23 49.4469C117.088 49.7274 116.899 49.9335 116.662 50.0687C116.426 50.2039 116.149 50.2681 115.835 50.2681C115.48 50.2681 115.182 50.1903 114.936 50.0315C114.689 49.8727 114.513 49.6936 114.409 49.4909C114.304 49.2881 114.25 49.0381 114.25 48.7407C114.25 48.5887 114.273 48.4366 114.324 48.2845C114.375 48.1325 114.442 47.9973 114.53 47.8858C114.618 47.7743 114.713 47.6763 114.817 47.602C114.97 47.4938 115.122 47.4161 115.274 47.3688C115.426 47.3215 115.612 47.2979 115.828 47.2979C116.301 47.2979 116.669 47.4364 116.936 47.7169ZM115.081 48.8894C115.101 49.1699 115.115 49.3321 115.125 49.376C115.155 49.528 115.199 49.6598 115.263 49.768C115.307 49.8389 115.378 49.8997 115.476 49.9538C115.574 50.0079 115.696 50.0349 115.831 50.0349C115.997 50.0349 116.135 49.9808 116.25 49.8761C116.362 49.7713 116.446 49.6058 116.493 49.3827C116.524 49.2341 116.541 48.9941 116.541 48.6596C116.541 48.2474 116.473 47.9568 116.338 47.7844C116.203 47.6121 116.024 47.5276 115.801 47.5276C115.625 47.5276 115.483 47.5749 115.368 47.6729C115.253 47.7709 115.176 47.9128 115.128 48.1054C115.098 48.2271 115.081 48.4907 115.078 48.8894H115.081Z" fill="#00275F"/>
<path d="M119.66 48.5979C120.268 48.679 120.572 48.9459 120.572 49.3987C120.572 49.6758 120.44 49.8921 120.177 50.0408C119.913 50.1928 119.596 50.2672 119.217 50.2672C118.47 50.2672 118.095 50.0982 118.095 49.7569C118.095 49.6657 118.122 49.5913 118.18 49.5339C118.234 49.4765 118.308 49.446 118.403 49.446C118.572 49.446 118.69 49.5407 118.754 49.7333C118.795 49.8481 118.845 49.9259 118.906 49.9732C118.967 50.0205 119.062 50.0408 119.187 50.0408C119.383 50.0408 119.525 49.9833 119.616 49.8684C119.707 49.7535 119.754 49.6116 119.754 49.446C119.754 48.9966 119.514 48.7736 119.035 48.7736C119.014 48.7736 118.984 48.7736 118.943 48.7736V48.5776C119.234 48.5776 119.423 48.5236 119.504 48.4154C119.585 48.3073 119.629 48.1789 119.629 48.0302C119.629 47.6923 119.474 47.5267 119.166 47.5267C118.835 47.5267 118.595 47.7531 118.44 48.2059H118.342C118.342 48.2059 118.305 48.2059 118.271 48.2059V48.0606C118.271 47.8781 118.281 47.6991 118.308 47.5233C118.376 47.4659 118.507 47.4152 118.703 47.3713C118.899 47.3274 119.106 47.3037 119.318 47.3037C119.666 47.3037 119.94 47.3612 120.136 47.4727C120.332 47.5842 120.43 47.7464 120.43 47.9559C120.43 48.2735 120.173 48.4898 119.656 48.6047L119.66 48.5979Z" fill="#00275F"/>
<path d="M122.501 48.6949L122.626 48.7051L123.103 48.6983L123.231 48.7051L123.461 48.7118C123.552 48.7118 123.674 48.7118 123.826 48.7017V48.3131C123.826 47.9887 123.826 47.7995 123.816 47.7488C123.809 47.6981 123.742 47.6711 123.62 47.6677C123.569 47.6677 123.488 47.6576 123.38 47.6474L123.336 47.4109C123.637 47.4312 123.853 47.4413 123.988 47.4413H124.164H124.434C124.738 47.4413 124.955 47.4312 125.08 47.4109L125.036 47.6474C124.894 47.6643 124.809 47.6711 124.789 47.6711C124.684 47.6711 124.627 47.688 124.613 47.7218C124.6 47.7522 124.593 47.8738 124.59 48.0833L124.58 48.5023L124.569 49.1106C124.569 49.5938 124.586 49.8709 124.62 49.9418C124.762 49.9756 124.867 49.9959 124.941 50.006C124.978 50.0094 125.012 50.0162 125.046 50.0263V50.2324L124.644 50.2121C124.515 50.2054 124.397 50.202 124.282 50.202L123.785 50.2189L123.363 50.2324V50.0263C123.397 50.0162 123.434 50.0094 123.471 50.006C123.6 49.9891 123.704 49.9688 123.789 49.9418C123.829 49.712 123.85 49.4485 123.85 49.1477L123.843 48.9551C123.698 48.9619 123.559 48.9653 123.421 48.9653C123.221 48.9653 123.076 48.9653 122.978 48.9585L122.691 48.9517C122.633 48.9517 122.569 48.9517 122.505 48.9619V49.1308V49.614C122.505 49.7357 122.518 49.8472 122.549 49.9418C122.691 49.9756 122.795 49.9959 122.866 50.006C122.904 50.0094 122.937 50.0162 122.968 50.0263L122.974 50.2324L122.569 50.2121C122.441 50.2054 122.322 50.202 122.204 50.202L121.707 50.2189L121.285 50.2324V50.0263C121.319 50.0162 121.356 50.0094 121.393 50.006C121.518 49.9891 121.623 49.9688 121.714 49.9418C121.745 49.7898 121.761 49.5127 121.761 49.1106L121.748 48.161C121.745 47.884 121.731 47.7319 121.711 47.7082C121.69 47.6846 121.633 47.6711 121.542 47.6711C121.491 47.6711 121.41 47.6609 121.302 47.6508L121.258 47.4143C121.559 47.4345 121.775 47.4447 121.91 47.4447H122.086H122.356C122.66 47.4447 122.877 47.4345 122.998 47.4143L122.958 47.6508C122.816 47.6677 122.731 47.6745 122.711 47.6745C122.603 47.6745 122.545 47.6914 122.532 47.7251C122.518 47.7556 122.512 47.8772 122.508 48.0867C122.508 48.357 122.501 48.5598 122.491 48.6983L122.501 48.6949Z" fill="#00275F"/>
<path d="M127.766 48.6007C127.817 48.2054 127.979 47.8911 128.259 47.6546C128.536 47.4181 128.898 47.2998 129.337 47.2998C129.807 47.2998 130.182 47.4451 130.459 47.7323C130.736 48.0195 130.875 48.3473 130.875 48.7156C130.875 49.1887 130.736 49.5672 130.459 49.8476C130.182 50.1281 129.81 50.27 129.341 50.27C128.898 50.27 128.523 50.1348 128.222 49.8679C127.921 49.601 127.763 49.2597 127.756 48.844H126.958C126.928 48.844 126.881 48.844 126.82 48.8508V49.0198L126.817 49.6111C126.817 49.7361 126.83 49.8476 126.86 49.9422C127.002 49.976 127.107 49.9963 127.178 50.0064C127.215 50.0098 127.249 50.0166 127.279 50.0267L127.286 50.2328L126.881 50.2126C126.752 50.2058 126.634 50.2024 126.516 50.2024L126.019 50.2193L125.597 50.2328V50.0267C125.63 50.0166 125.668 50.0098 125.705 50.0064C125.83 49.9895 125.935 49.9693 126.022 49.9422C126.056 49.7767 126.073 49.5232 126.073 49.1786L126.06 48.5028L126.053 48.0838C126.053 47.8742 126.043 47.7526 126.029 47.7188C126.016 47.685 125.955 47.6681 125.85 47.6647C125.799 47.6647 125.718 47.658 125.61 47.6445L125.566 47.4113C125.867 47.435 126.083 47.4451 126.218 47.4451H126.394H126.664C126.969 47.4451 127.185 47.435 127.307 47.4113L127.266 47.6445L127.019 47.6715C126.911 47.6715 126.85 47.6952 126.837 47.7357C126.823 47.7763 126.817 47.9689 126.817 48.3135C126.817 48.4352 126.81 48.5298 126.8 48.594L126.925 48.6041H127.32L127.573 48.6075H127.756L127.766 48.6007ZM129.31 47.5194C129.151 47.5194 129.02 47.56 128.908 47.6411C128.797 47.7222 128.719 47.8472 128.665 48.0094C128.611 48.175 128.584 48.4656 128.584 48.8812L128.597 49.1177C128.628 49.7226 128.874 50.0267 129.337 50.0267C129.564 50.0267 129.739 49.9287 129.861 49.7361C129.986 49.5435 130.047 49.1853 130.047 48.6616C130.047 47.8979 129.8 47.5161 129.307 47.5161L129.31 47.5194Z" fill="#00275F"/>
<path d="M133.257 47.4122L133.217 47.6454L132.97 47.6724C132.882 47.6724 132.828 47.6825 132.808 47.7028C132.787 47.7231 132.774 47.7839 132.767 47.8785C132.767 47.9056 132.767 47.9427 132.76 47.9934C132.743 48.1826 132.737 48.2975 132.737 48.3448V48.6625C132.906 48.6152 133.037 48.5543 133.129 48.48C133.22 48.4057 133.348 48.2536 133.517 48.0204C133.869 47.5372 134.21 47.2939 134.541 47.2939C134.703 47.2939 134.828 47.3345 134.916 47.4156C135.004 47.4967 135.045 47.5947 135.045 47.7096C135.045 47.794 135.014 47.8684 134.957 47.9326C134.899 47.9968 134.818 48.0306 134.717 48.0306C134.605 48.0306 134.504 47.9765 134.416 47.8684C134.359 47.7974 134.305 47.7636 134.254 47.7636C134.18 47.7636 134.102 47.794 134.028 47.8549C133.95 47.9157 133.842 48.034 133.703 48.2097C133.588 48.355 133.5 48.4563 133.443 48.507C133.565 48.5442 133.69 48.6185 133.818 48.7267C133.946 48.8348 134.159 49.0848 134.453 49.4802C134.605 49.6829 134.717 49.808 134.784 49.8553C134.852 49.9026 134.98 49.9499 135.163 50.004V50.1155C135.163 50.1324 135.163 50.1594 135.163 50.1966C135.136 50.1966 135.082 50.1932 134.997 50.183C134.886 50.1729 134.764 50.1662 134.636 50.1662C134.49 50.1662 134.315 50.1729 134.109 50.1898C134.075 50.1391 133.997 50.0344 133.879 49.8823L133.548 49.443C133.345 49.1693 133.2 49.0004 133.115 48.9396C133.027 48.8787 132.899 48.8449 132.727 48.8449V49.7336L132.733 49.8587C132.791 49.906 132.899 49.9398 133.054 49.9567C133.085 49.96 133.112 49.9668 133.135 49.9702V50.1155C133.135 50.1155 133.135 50.1459 133.135 50.1695L133.112 50.1797L132.754 50.1662C132.591 50.156 132.439 50.1493 132.294 50.1493C132.213 50.1493 132.054 50.1594 131.821 50.1797C131.757 50.1797 131.709 50.1797 131.672 50.183C131.622 50.183 131.574 50.183 131.534 50.183C131.524 50.1459 131.52 50.1121 131.52 50.0749C131.52 50.0513 131.52 50.0209 131.52 49.9837C131.557 49.9634 131.601 49.9499 131.645 49.9431C131.689 49.9364 131.716 49.9296 131.73 49.9262L131.858 49.9161C131.902 49.9127 131.936 49.9026 131.956 49.8924C131.98 49.8722 131.993 49.5376 131.997 48.8889V48.7774L132.003 48.4226V48.0171C132.007 47.8549 132 47.7535 131.983 47.7163C131.966 47.6792 131.905 47.6589 131.801 47.6555C131.75 47.6555 131.669 47.6487 131.561 47.6352L131.517 47.4021C131.818 47.4223 132.034 47.4325 132.169 47.4325H132.345H132.615C132.919 47.4325 133.135 47.4223 133.257 47.4021V47.4122Z" fill="#00275F"/>
<path fill-rule="evenodd" clip-rule="evenodd" d="M21.0482 35.6365C28.195 54.7384 46.1378 45.8176 46.1378 30.6321C41.1131 35.8426 29.8034 39.0223 21.0482 35.6365Z" fill="#FFBF00"/>
<path fill-rule="evenodd" clip-rule="evenodd" d="M133.227 22.4201L129.419 26.5832V22.4201H126.306V31.8106H128.199L131.973 27.5935V31.8106H135.085V22.4201H133.223H133.227ZM120.434 22.4201V25.6573H117.859V22.4201H114.642V31.8106H117.859V28.5025H120.434V31.8106H123.65V22.4201H120.434ZM108.772 31.8106H112.006V22.4201H108.772V31.8106ZM100.943 29.256C99.7334 29.256 98.8379 28.3437 98.8379 27.1137C98.8379 25.8837 99.7232 24.9781 100.943 24.9781C102.163 24.9781 103.048 25.8938 103.048 27.1137C103.048 28.3335 102.156 29.256 100.943 29.256ZM103.711 22.4134L103.379 23.1365C102.606 22.4979 101.619 22.1295 100.511 22.1295C97.6384 22.1295 95.5873 24.1975 95.5873 27.1069C95.5873 30.0163 97.6384 32.1181 100.511 32.1181C101.599 32.1181 102.575 31.7599 103.346 31.1348L103.619 31.7971H106.116V22.41H103.707L103.711 22.4134ZM88.6838 29.2661C87.4741 29.2661 86.5787 28.3504 86.5787 27.1171C86.5787 25.8837 87.4707 24.968 88.6838 24.968C89.8969 24.968 90.789 25.8837 90.789 27.1171C90.789 28.3504 89.8901 29.2661 88.6838 29.2661ZM89.1163 22.1126C88.0012 22.1126 87.0078 22.4979 86.2374 23.1635L85.8319 22.4201H83.6321V35.1998H86.8287V31.5031C87.491 31.9018 88.2682 32.1248 89.1163 32.1248C91.9886 32.1248 94.0396 30.0399 94.0396 27.1137C94.0396 24.1874 91.9886 22.1126 89.1163 22.1126ZM82.1926 31.8106L78.9656 26.9143L81.8986 22.4235H78.2864L76.0326 26.1067V22.4235H72.7988V31.814H76.0326V27.8402L78.3945 31.814H82.196L82.1926 31.8106ZM68.2911 19.6392L66.5137 24.6638L64.216 19.6392H60.3672L64.7769 28.0868C64.395 28.641 63.8713 28.837 62.9758 28.837H62.1074V31.8782H63.1887C65.8582 31.8782 67.3078 30.7901 68.5378 27.8199L71.9101 19.6358H68.2877L68.2911 19.6392ZM176.688 8.10977C176.036 8.10977 175.665 7.7178 175.665 7.14336C175.665 6.56892 176.036 6.17694 176.688 6.17694H178.016V8.10639H176.688V8.10977ZM175.82 3.91972C173.901 3.91972 172.519 5.25108 172.519 7.08929C172.519 8.25845 173.11 9.20121 174.093 9.71483L172.056 13.3068H175.475L176.986 10.2825H178.016V13.3068H181V3.91634H175.82V3.91972ZM166.96 3.91972V7.15687H164.385V3.91634H161.168V13.3068H164.385V9.99867H166.96V13.3068H170.177V3.91634H166.96V3.91972ZM155.299 3.91972V7.15687H152.724V3.91634H149.507V13.3068H152.724V9.99867H155.299V13.3068H158.516V3.91634H155.299V3.91972ZM142.303 6.14653C143.279 6.14653 143.955 6.65339 144.239 7.59277H140.444C140.708 6.66015 141.364 6.14653 142.306 6.14653H142.303ZM147.426 8.5254C147.426 5.77145 145.331 3.61223 142.303 3.61223C139.275 3.61223 137.204 5.72753 137.204 8.6065C137.204 11.4855 139.373 13.6143 142.303 13.6143C144.658 13.6143 146.557 12.2762 147.216 10.1338H143.999C143.688 10.6846 143.056 11.0158 142.3 11.0158C141.279 11.0158 140.597 10.4582 140.384 9.3803H147.355C147.395 9.0897 147.422 8.80586 147.422 8.52202L147.426 8.5254ZM127.786 3.9231L127.182 9.20459C127.067 10.2521 126.631 10.6812 125.762 10.6812H125.347V13.3406H126.185C128.594 13.3406 129.898 12.1613 130.202 9.29245L130.469 6.62636H131.926V13.3068H135.109V3.91972H127.793L127.786 3.9231ZM119.937 11.1374H118.399V9.48168H119.937C120.498 9.48168 120.832 9.79593 120.832 10.3129C120.832 10.8299 120.498 11.1374 119.937 11.1374ZM120.677 6.75476C120.677 7.22783 120.352 7.55898 119.832 7.55898H118.399V5.97082H119.832C120.352 5.97082 120.677 6.28845 120.677 6.75476ZM122.377 8.33617C123.157 7.93744 123.634 7.2008 123.634 6.29183C123.634 4.8929 122.468 3.9231 120.792 3.9231H115.392V13.3102H120.869C122.681 13.3102 123.931 12.1714 123.931 10.5934C123.931 9.5256 123.343 8.70787 122.377 8.33617ZM108.022 10.7117C106.843 10.7117 105.998 9.85675 105.998 8.61325C105.998 7.36976 106.843 6.51485 108.022 6.51485C109.202 6.51485 110.046 7.37989 110.046 8.61325C110.046 9.84662 109.202 10.7117 108.022 10.7117ZM108.022 13.6143C111.074 13.6143 113.283 11.5125 113.283 8.61325C113.283 5.71401 111.074 3.61223 108.022 3.61223C104.971 3.61223 102.761 5.70049 102.761 8.61325C102.761 11.526 104.961 13.6143 108.022 13.6143ZM97.4424 3.91634V7.1535H94.8675V3.91634H91.6506V13.3068H94.8675V9.99867H97.4424V13.3068H100.659V3.91634H97.4424ZM83.5071 6.62636H85.2473V10.4548H82.6995C83.1151 9.78241 83.3584 8.64029 83.5071 6.62636ZM88.2479 10.4548V3.91972H80.7734C80.3578 8.5254 80.1483 9.80945 79.5434 10.4548H78.4959V15.5032H81.2735V13.3068H86.653V15.5032H89.4306V10.4548H88.2479ZM73.3124 13.3068H76.5462V3.91634H73.3124V13.3068ZM73.3394 2.74381H76.5225V0H73.3394V2.74381ZM66.5914 10.5528H64.7701V8.33955H66.5914C67.3146 8.33955 67.791 8.7991 67.791 9.44451C67.791 10.0899 67.3146 10.5528 66.5914 10.5528ZM67.5984 4.80504C67.5984 5.43693 67.1659 5.86607 66.4664 5.86607H64.7701V3.74739H66.4664C67.1693 3.74739 67.5984 4.17315 67.5984 4.80504ZM69.2406 6.87979C70.1699 6.31886 70.7781 5.33893 70.7781 4.25087C70.7781 2.44983 69.2035 1.13537 67.0442 1.13537H61.5465V13.3068H67.1557C69.4028 13.3068 71.1025 11.8132 71.1025 9.83986C71.1025 8.51188 70.3828 7.42382 69.2373 6.87979H69.2406ZM109.898 18.0003H106.664V21.2341H109.898V18.0003ZM114.25 18.0003H111.016V21.2341H114.25V18.0003Z" fill="#00275F"/>
</g>
<defs>
<clipPath id="clip0_1_63">
<rect width="181" height="51.9194" fill="white"/>
</clipPath>
</defs>
</svg>
