<svg width="181" height="52" viewBox="0 0 181 52" fill="none" xmlns="http://www.w3.org/2000/svg">
<g clip-path="url(#clip0_52_4887)">
<path fill-rule="evenodd" clip-rule="evenodd" d="M29.1411 50.0676C19.183 45.7829 17.4529 39.7209 17.7536 30.4521C17.7604 30.1953 17.9226 22.9809 18.0442 17.5271C18.1997 10.4987 19.5141 2.29089 7.97461 1.21973H0V30.6312H0.0236535C0.65554 45.5802 15.1923 52.9499 29.1411 50.0676Z" fill="#00275F"/>
<path fill-rule="evenodd" clip-rule="evenodd" d="M27.4112 17.122C27.6072 26.2049 25.7318 30.9289 22.9238 32.8076C36.8388 33.8957 45.5501 32.1217 45.8137 18.3351L46.1381 1.37891H36.7746C28.1276 1.37891 27.418 7.36662 27.4112 17.122Z" fill="#00CFCC"/>
<path d="M60.1372 42.4717L60.144 42.2014C60.198 42.1879 60.2622 42.1744 60.34 42.1642C60.4886 42.144 60.6069 42.1135 60.6981 42.0764C60.7285 42.0257 60.7488 41.975 60.759 41.9277C60.7759 41.7993 60.786 41.6134 60.786 41.3668L60.7792 39.9239C60.7792 39.7752 60.7725 39.3833 60.7556 38.7514C60.7522 38.5824 60.7387 38.4777 60.7218 38.4371C60.715 38.4236 60.7049 38.4135 60.688 38.4033C60.6508 38.3797 60.5832 38.3628 60.4853 38.3594C60.4413 38.3594 60.3298 38.3459 60.1541 38.3222L60.144 38.0823L60.9043 38.0654L62.016 38.0282H62.1478C62.1748 38.0215 62.2018 38.0215 62.2289 38.0215C62.2525 38.0215 62.31 38.0215 62.4079 38.0215H62.6242C62.7965 38.0215 62.9824 38.0451 63.1851 38.0992C63.2561 38.1161 63.3473 38.1566 63.4622 38.2141C63.5771 38.2715 63.6785 38.3459 63.763 38.4337C63.8474 38.5216 63.9116 38.623 63.9522 38.7345C63.9927 38.846 64.013 38.9642 64.013 39.0859C64.013 39.2244 63.9826 39.3495 63.9218 39.4576C63.8609 39.5691 63.7663 39.6671 63.6447 39.7617C63.5805 39.8056 63.4352 39.88 63.2054 39.9847C63.5467 40.0624 63.8069 40.201 63.986 40.4071C64.1651 40.6132 64.2529 40.8396 64.2529 41.0897C64.2529 41.2384 64.2259 41.3938 64.1684 41.5594C64.1279 41.681 64.0603 41.7959 63.9623 41.8973C63.8339 42.0358 63.6954 42.1406 63.5534 42.2082C63.4081 42.2791 63.2122 42.3366 62.9587 42.3805C62.8303 42.4041 62.6411 42.4143 62.3809 42.4143L61.8031 42.4008C61.5598 42.4008 61.2692 42.4109 60.9313 42.4346C60.8367 42.4379 60.5731 42.4481 60.1372 42.465V42.4717ZM61.7186 39.8935C61.8098 39.907 61.9146 39.9138 62.0362 39.9138C62.3742 39.9138 62.631 39.8496 62.8067 39.7245C62.9824 39.5995 63.0669 39.3833 63.0669 39.0758C63.0669 38.8595 62.9858 38.677 62.8202 38.5317C62.6546 38.3864 62.4046 38.3155 62.0734 38.3155C61.9788 38.3155 61.8504 38.329 61.6916 38.3526C61.6916 38.4033 61.6916 38.481 61.6983 38.5757C61.7085 38.7683 61.7152 39.0386 61.7152 39.3833V39.6671C61.7152 39.7178 61.7152 39.7921 61.7152 39.8901L61.7186 39.8935ZM61.7592 42.0561C61.9078 42.1169 62.043 42.1473 62.1714 42.1473C62.4282 42.1473 62.6411 42.1068 62.8033 42.0291C62.9655 41.9513 63.0838 41.8432 63.1615 41.7013C63.2358 41.5594 63.273 41.387 63.273 41.1742C63.273 40.9613 63.2324 40.7822 63.1513 40.6504C63.0398 40.4679 62.9013 40.3463 62.7391 40.2855C62.5769 40.2246 62.337 40.1909 62.016 40.1909C61.874 40.1909 61.7761 40.201 61.722 40.2213V41.1404L61.7287 41.9209C61.7287 41.9581 61.7423 42.002 61.7625 42.0493L61.7592 42.0561Z" fill="#00275F"/>
<path d="M67.784 41.5593C67.8212 41.5796 67.8482 41.5931 67.8651 41.5998C67.9158 41.6235 67.9598 41.6505 67.9902 41.6843C67.9293 41.9107 67.7807 42.1067 67.5441 42.2723C67.3076 42.4379 67.0102 42.519 66.652 42.519C66.4256 42.519 66.2026 42.4716 65.9796 42.377C65.7566 42.2824 65.5809 42.1574 65.4491 41.9986C65.3477 41.8769 65.27 41.7316 65.2193 41.5559C65.1686 41.3802 65.1416 41.2349 65.1416 41.1099C65.1416 40.9646 65.172 40.7956 65.2362 40.6098C65.3004 40.4239 65.4052 40.2482 65.5538 40.0826C65.7025 39.9171 65.8918 39.7853 66.1182 39.6873C66.3446 39.5893 66.6014 39.542 66.8886 39.542C67.2806 39.542 67.5543 39.6028 67.7063 39.7245C67.8584 39.8461 67.9361 39.9678 67.9361 40.0894C67.9361 40.211 67.9057 40.3023 67.8415 40.3732C67.7773 40.4442 67.6928 40.478 67.5847 40.478C67.4934 40.478 67.4056 40.4476 67.3279 40.3868C67.2501 40.3259 67.1859 40.2212 67.1319 40.0793C67.0913 39.9745 67.0406 39.9002 66.9764 39.8529C66.9122 39.8089 66.8379 39.7853 66.75 39.7853C66.5372 39.7853 66.3479 39.8765 66.179 40.059C66.01 40.2415 65.9289 40.4881 65.9289 40.8058C65.9289 41.1842 66.0303 41.485 66.2364 41.708C66.4425 41.931 66.6723 42.0425 66.9325 42.0425C67.0609 42.0425 67.1724 42.029 67.2603 41.9986C67.3177 41.9783 67.3954 41.9344 67.4901 41.8668C67.5137 41.8499 67.561 41.7992 67.632 41.7215C67.7029 41.6438 67.7469 41.5897 67.7739 41.5627L67.784 41.5593Z" fill="#00275F"/>
<path d="M68.7065 40.6442C68.764 40.4516 68.818 40.3232 68.862 40.259C68.9904 40.0731 69.1255 39.9278 69.2675 39.8231C69.4094 39.7183 69.5412 39.6507 69.656 39.6169C69.8047 39.573 69.9264 39.5527 70.0176 39.5527C70.2305 39.5527 70.4028 39.5696 70.5346 39.6034C70.6664 39.6372 70.7745 39.6845 70.8624 39.7453C70.9908 39.8332 71.0922 39.9211 71.1665 40.0123C71.2442 40.1035 71.305 40.2083 71.3557 40.3299C71.403 40.4516 71.4301 40.6002 71.4368 40.7726L71.0584 40.7658C70.9536 40.7658 70.7272 40.7557 70.3724 40.7354C70.2406 40.7253 70.1494 40.7185 70.1021 40.7185C70.0852 40.7185 69.9635 40.7185 69.7371 40.7253H69.4465C69.4432 40.7557 69.4398 40.7827 69.4398 40.8064C69.4398 40.928 69.4533 41.053 69.4837 41.1848C69.5141 41.3166 69.5581 41.4349 69.6155 41.5362C69.6729 41.6376 69.7473 41.7255 69.8351 41.7964C69.923 41.8674 70.0108 41.9215 70.1055 41.9519L70.3014 42.0161C70.4772 42.0161 70.592 42.0093 70.6529 41.9992C70.761 41.9755 70.8556 41.9485 70.9401 41.9113C71.0212 41.8775 71.1226 41.8167 71.2408 41.7322C71.3219 41.7897 71.3895 41.8437 71.4436 41.8911C71.2442 42.1107 71.0381 42.2695 70.8252 42.3675C70.6123 42.4655 70.3724 42.5162 70.1088 42.5162C69.9297 42.5162 69.7844 42.4993 69.6696 42.4689C69.5175 42.4283 69.3823 42.3641 69.2573 42.283C69.1323 42.2019 69.0309 42.0938 68.9431 41.9721C68.8552 41.8471 68.7876 41.7187 68.7471 41.5869C68.6896 41.4146 68.6626 41.2761 68.6626 41.1713C68.6626 40.9753 68.6795 40.7962 68.7099 40.6374L68.7065 40.6442ZM70.6799 40.4989C70.6799 40.3705 70.6529 40.2488 70.6056 40.1339C70.5583 40.019 70.4839 39.9278 70.3859 39.8636C70.2879 39.7994 70.1866 39.7656 70.0852 39.7656C69.9331 39.7656 69.798 39.8332 69.6729 39.965C69.5479 40.0968 69.4803 40.2792 69.4668 40.509L70.2406 40.5158C70.2913 40.5158 70.3589 40.5124 70.4501 40.5056C70.5143 40.4989 70.5616 40.4955 70.5887 40.4955C70.6089 40.4955 70.6394 40.4955 70.6799 40.4955V40.4989Z" fill="#00275F"/>
<path d="M71.9033 39.7081C71.981 39.6946 72.0486 39.6879 72.0993 39.6879C72.1263 39.6879 72.1568 39.6879 72.1905 39.6913C72.3967 39.7048 72.5656 39.7115 72.694 39.7115H72.8697L73.3529 39.6811C73.3698 39.6946 73.3867 39.7081 73.4003 39.725C73.3935 39.823 73.3867 39.8872 73.3834 39.9143C73.3496 39.921 73.3225 39.9244 73.3056 39.9278C73.255 39.9345 73.2144 39.9413 73.1908 39.9481C73.1671 39.9548 73.1401 39.9582 73.1097 39.9616C73.0759 39.9717 73.0556 39.9852 73.0522 40.0089C73.0657 40.0629 73.0792 40.1069 73.0928 40.144L73.2549 40.4786C73.3834 40.7962 73.5151 41.0902 73.6537 41.3571L73.8429 41.7491C73.8564 41.7221 73.9443 41.4991 74.1031 41.08C74.2957 40.5833 74.4005 40.3029 74.414 40.2387C74.4241 40.2049 74.4275 40.1745 74.4275 40.1508C74.4275 40.1272 74.4207 40.09 74.4072 40.0393C74.3565 40.0021 74.316 39.9819 74.2856 39.9683C74.2552 39.9582 74.1808 39.9447 74.0659 39.9312L73.9578 39.9041L73.9477 39.8568C73.9477 39.8332 73.9477 39.8163 73.9477 39.8061C73.9477 39.7892 73.9477 39.7588 73.9578 39.7183C74.0254 39.7149 74.0761 39.7115 74.1031 39.7115L74.3768 39.7284L74.5593 39.7352C74.637 39.7352 74.7688 39.725 74.9614 39.7014C75.0796 39.6879 75.1675 39.6811 75.2249 39.6777C75.2283 39.7352 75.2317 39.7757 75.2317 39.8061C75.2317 39.8197 75.2317 39.8399 75.2283 39.867C75.1878 39.8872 75.1439 39.9041 75.0932 39.9143C75.0121 39.9345 74.9411 39.9548 74.8803 39.9717C74.8465 39.9987 74.8262 40.0224 74.8161 40.0393C74.7789 40.1238 74.6978 40.313 74.5829 40.6036L74.3396 41.2591L73.772 42.6108L73.38 43.5096C73.2955 43.6819 73.1941 43.8306 73.0792 43.9556C73.0353 44.0029 72.988 44.0401 72.9306 44.0638C72.8393 44.1009 72.7312 44.1178 72.6163 44.1178C72.6062 44.1178 72.542 44.1111 72.4305 44.0942C72.3392 44.0705 72.2581 44.0232 72.1905 43.9489C72.1432 43.8948 72.1196 43.8374 72.1196 43.7766C72.1196 43.6515 72.1736 43.5366 72.2784 43.4319C72.373 43.3744 72.444 43.344 72.4879 43.344C72.5893 43.344 72.7075 43.3981 72.8427 43.5028C72.9069 43.5535 72.9576 43.5806 72.9948 43.5806C73.0319 43.5806 73.0623 43.5603 73.086 43.5164C73.282 43.1345 73.4104 42.8608 73.4645 42.702L72.8393 41.32C72.6062 40.7658 72.4237 40.3772 72.3021 40.1542C72.2379 40.0427 72.1939 39.9751 72.1669 39.9548C72.1399 39.9345 72.0993 39.9176 72.0452 39.9008C72.0148 39.894 71.981 39.8805 71.9439 39.8602C71.9337 39.8095 71.9236 39.7588 71.9135 39.7149L71.9033 39.7081Z" fill="#00275F"/>
<path d="M77.3365 39.671L77.2959 39.9042L77.0492 39.9312C76.9614 39.9312 76.9073 39.9413 76.887 39.9616C76.8668 39.9819 76.8532 40.0427 76.8465 40.1373C76.8465 40.1643 76.8465 40.2015 76.8397 40.2522C76.8228 40.4414 76.8161 40.5563 76.8161 40.6036V40.9213C76.985 40.874 77.1168 40.8131 77.2081 40.7388C77.2993 40.6644 77.4277 40.5124 77.5966 40.2792C77.9481 39.796 78.2894 39.5527 78.6205 39.5527C78.7827 39.5527 78.9077 39.5933 78.9956 39.6744C79.0801 39.7555 79.124 39.8535 79.124 39.9684C79.124 40.0528 79.0936 40.1272 79.0361 40.1914C78.9787 40.2556 78.8976 40.2894 78.7962 40.2894C78.6847 40.2894 78.5833 40.2353 78.4955 40.1272C78.438 40.0562 78.384 40.0224 78.3333 40.0224C78.2589 40.0224 78.1812 40.0528 78.1069 40.1137C78.0292 40.1745 77.921 40.2928 77.7825 40.4685C77.6676 40.6138 77.5797 40.7151 77.5223 40.7658C77.6439 40.803 77.7656 40.8773 77.8974 40.9855C78.0292 41.0936 78.2387 41.3436 78.5326 41.739C78.6847 41.9417 78.7928 42.0668 78.8638 42.1141C78.9314 42.1614 79.0598 42.2087 79.2422 42.2627V42.3743C79.2422 42.3912 79.2422 42.4182 79.2422 42.4554C79.2152 42.4554 79.1612 42.452 79.0767 42.4418C78.9652 42.4317 78.8435 42.4249 78.7151 42.4249C78.5698 42.4249 78.3941 42.4317 78.1914 42.4486C78.1576 42.3979 78.0799 42.2932 77.9616 42.1411L77.6304 41.7018C77.4277 41.4281 77.2858 41.2592 77.1979 41.1983C77.1101 41.1375 76.9817 41.1037 76.8093 41.1037V41.9924L76.8161 42.1174C76.8735 42.1648 76.9817 42.1985 77.1371 42.2154C77.1675 42.2188 77.1945 42.2256 77.2182 42.229V42.3743C77.2182 42.3743 77.2182 42.4047 77.2148 42.4283L77.1912 42.4385L76.8364 42.4249C76.6742 42.4148 76.5221 42.408 76.3768 42.408C76.2957 42.408 76.1369 42.4182 75.9037 42.4385C75.8395 42.4385 75.7922 42.4385 75.755 42.4418C75.7044 42.4418 75.6604 42.4418 75.6165 42.4418C75.6064 42.4047 75.603 42.3709 75.603 42.3337C75.603 42.3101 75.603 42.2796 75.603 42.2425C75.6402 42.2222 75.6841 42.2087 75.728 42.2019C75.7719 42.1952 75.799 42.1884 75.8125 42.185L75.9409 42.1749C75.9848 42.1715 76.0186 42.1614 76.0389 42.1512C76.0625 42.131 76.0761 41.7964 76.0794 41.1477V41.0361L76.0862 40.6813V40.2759C76.0862 40.1137 76.0828 40.0123 76.0659 39.9751C76.049 39.9379 75.9882 39.9177 75.8835 39.9143C75.8328 39.9143 75.7517 39.9075 75.6435 39.894L75.5996 39.6609C75.9003 39.6811 76.1166 39.6913 76.2518 39.6913H76.4275H76.6978C77.0019 39.6913 77.2182 39.6811 77.3398 39.6609L77.3365 39.671Z" fill="#00275F"/>
<path d="M79.4521 44.1707V44.0187C79.4927 43.995 79.5231 43.9781 79.54 43.968L79.8002 43.8734C79.9083 43.8294 79.9691 43.7956 79.9827 43.772C80.0198 43.7044 80.0333 43.5861 80.03 43.4138L80.0063 42.0622L79.9725 40.3828C79.9658 40.2611 79.9387 40.1733 79.8948 40.1226C79.8509 40.0719 79.7292 40.0178 79.5366 39.9604V39.7847C79.7563 39.7408 79.9421 39.6901 80.0942 39.6259C80.2057 39.5819 80.3544 39.4941 80.547 39.3691L80.7193 39.3623V39.4569V39.8219C80.7193 39.8354 80.7193 39.8692 80.7227 39.9232C80.9187 39.805 81.0809 39.7239 81.2093 39.6867C81.3951 39.6326 81.6012 39.6056 81.8243 39.6056C82.0473 39.6056 82.2602 39.663 82.4392 39.7813C82.4528 39.7914 82.473 39.8016 82.4967 39.8185C82.6082 39.8996 82.6927 39.9773 82.7434 40.0516C82.8549 40.2138 82.9393 40.3693 82.9867 40.5281C83.0238 40.6464 83.0441 40.7917 83.0441 40.9707C83.0441 41.2073 83.0137 41.4066 82.9529 41.5688C82.892 41.731 82.7873 41.8966 82.6386 42.0622C82.4899 42.2278 82.3277 42.346 82.1588 42.4136C81.9865 42.4846 81.8074 42.5184 81.6215 42.5184C81.4357 42.5184 81.3039 42.5082 81.2228 42.4846C81.0707 42.4406 80.922 42.3798 80.77 42.2953C80.7632 42.3325 80.7598 42.3562 80.7598 42.3697L80.77 42.4609C80.77 42.4846 80.77 42.515 80.77 42.5521C80.77 42.569 80.77 42.6569 80.7632 42.8191L80.7767 43.4375C80.7767 43.4375 80.7767 43.4949 80.77 43.5726V43.6098C80.77 43.6943 80.7767 43.7551 80.7869 43.7923C80.797 43.8159 80.8173 43.8396 80.8477 43.8666C80.8714 43.8767 80.8916 43.8869 80.9119 43.897C80.9829 43.9105 81.0437 43.9241 81.0978 43.9376C81.1518 43.9511 81.2059 43.9612 81.2667 43.9714C81.287 43.995 81.2971 44.0288 81.2971 44.0694C81.2971 44.093 81.2971 44.1302 81.2937 44.1775H81.2329C81.1011 44.1775 81.0099 44.1775 80.9558 44.1707L80.4422 44.1268H80.1989L80.0807 44.1336L79.8982 44.1437C79.8306 44.1437 79.7563 44.1505 79.6752 44.1606C79.5941 44.1707 79.5332 44.1741 79.4995 44.1741H79.4555L79.4521 44.1707ZM80.7362 41.7412C80.7463 41.7682 80.7497 41.7885 80.7531 41.802C80.7767 41.9067 80.8105 41.9811 80.8477 42.0216C80.9187 42.1027 80.9998 42.1568 81.0876 42.1838C81.2228 42.221 81.3444 42.2413 81.4458 42.2413C81.5641 42.2413 81.679 42.2176 81.7905 42.1669C81.902 42.1162 81.9932 42.052 82.0608 41.9676C82.0709 41.9574 82.0844 41.9405 82.1013 41.9203C82.1182 41.8831 82.1284 41.8561 82.1385 41.8392C82.2297 41.6635 82.2737 41.4742 82.2737 41.2749C82.2737 40.9099 82.1655 40.599 81.9459 40.349C81.7938 40.1699 81.5776 40.082 81.3005 40.082C81.1349 40.082 80.9457 40.126 80.7362 40.2105C80.7328 40.2983 80.7294 40.545 80.7294 40.9538L80.7362 41.6094C80.7362 41.6094 80.7362 41.6702 80.7362 41.7412Z" fill="#00275F"/>
<path d="M86.7207 41.8055L86.7984 41.8561C86.8187 41.873 86.8322 41.8899 86.8356 41.9136V41.9305C86.7849 42.1332 86.714 42.2718 86.6261 42.3461C86.5382 42.4205 86.4267 42.461 86.2983 42.461C86.1699 42.461 86.0517 42.4238 85.9537 42.3495C85.8591 42.2752 85.7712 42.1467 85.6901 41.9609C85.5921 42.1332 85.4569 42.2616 85.2779 42.3495C85.0988 42.4373 84.8859 42.4813 84.6291 42.4813C84.3925 42.4813 84.2202 42.4306 84.1087 42.3326C83.9972 42.2346 83.9431 42.1062 83.9431 41.944C83.9431 41.8697 83.96 41.7919 83.9938 41.7176C84.0276 41.6433 84.0783 41.5655 84.1526 41.4878C84.227 41.4101 84.3452 41.329 84.5074 41.2378C84.5311 41.2243 84.6189 41.1871 84.7642 41.1229L85.609 40.785C85.6158 40.7005 85.6191 40.6126 85.6191 40.5248C85.6191 40.2207 85.582 40.0112 85.5076 39.8997C85.4637 39.8321 85.3826 39.7983 85.2711 39.7983C85.1596 39.7983 85.0548 39.8186 84.9602 39.8625C84.8656 39.9064 84.7947 39.9605 84.7541 40.0281C84.7237 40.0788 84.6967 40.1734 84.673 40.3085C84.6561 40.4065 84.6426 40.4673 84.6291 40.4809C84.5953 40.5248 84.5345 40.562 84.4432 40.5991C84.3554 40.6329 84.2945 40.66 84.2608 40.6768C84.1391 40.7343 84.0411 40.7647 83.9702 40.7647C83.9397 40.7377 83.9229 40.7005 83.9229 40.6498C83.9229 40.5214 83.9499 40.4099 84.004 40.3187C84.085 40.1869 84.2067 40.0585 84.3723 39.9368C84.5378 39.8152 84.6899 39.7273 84.8318 39.6766C85.0278 39.6124 85.2643 39.582 85.5448 39.582C85.7273 39.582 85.8827 39.6158 86.0111 39.6834C86.1429 39.751 86.2308 39.849 86.2814 39.9808C86.3321 40.1125 86.3592 40.3491 86.3592 40.6904L86.3524 41.2513L86.3592 41.6602V41.7649C86.3592 41.8595 86.3727 41.9237 86.3963 41.9609C86.42 41.9981 86.4538 42.015 86.4943 42.015C86.518 42.015 86.5383 42.0082 86.5585 41.9947L86.6599 41.8359L86.7207 41.8122V41.8055ZM85.6056 41.0181C85.4772 41.0621 85.3319 41.133 85.1697 41.2344C85.0075 41.3358 84.896 41.4371 84.8318 41.5385C84.7879 41.6129 84.7642 41.7041 84.7642 41.8122C84.7642 41.9102 84.7947 41.9913 84.8521 42.0521C84.9095 42.113 84.9805 42.1467 85.0548 42.1467C85.1832 42.1467 85.288 42.1096 85.3759 42.0386C85.4941 41.9406 85.5651 41.8629 85.5854 41.8055C85.6056 41.748 85.6158 41.5858 85.6158 41.3155C85.6158 41.2175 85.6124 41.1161 85.6023 41.0181H85.6056Z" fill="#00275F"/>
<path d="M87.68 38.2241C87.7848 38.2241 87.8794 38.2646 87.9605 38.3491C88.0416 38.4336 88.0822 38.5316 88.0822 38.6465C88.0822 38.7614 88.0416 38.8593 87.9605 38.9438C87.8794 39.0283 87.778 39.0689 87.6631 39.0689C87.5483 39.0689 87.4469 39.0283 87.3658 38.9472C87.2847 38.8661 87.2441 38.7647 87.2441 38.6498C87.2441 38.535 87.2847 38.4336 87.3658 38.3525C87.4469 38.2714 87.5415 38.2275 87.6496 38.2275H87.68V38.2241ZM87.2982 42.2249C87.3354 42.2181 87.3996 42.2114 87.4908 42.2012C87.626 42.1877 87.7071 42.1708 87.7409 42.1506C87.7747 42.1303 87.7983 42.0965 87.8118 42.0458C87.8253 41.9951 87.8321 41.8431 87.8321 41.5896L87.8186 41.2382L87.8253 40.6638C87.8253 40.5793 87.8253 40.4914 87.8186 40.4002C87.8186 40.3597 87.8152 40.3292 87.8152 40.3123C87.8152 40.2245 87.8017 40.1704 87.778 40.1468C87.7341 40.1028 87.6463 40.0758 87.5212 40.0589L87.332 40.0319V39.8596C87.5381 39.8291 87.6598 39.8089 87.7037 39.7953C87.8253 39.7616 87.9369 39.7143 88.0382 39.6534C88.1396 39.5926 88.241 39.5115 88.3356 39.4101H88.5451C88.5552 39.5183 88.562 39.5825 88.562 39.6095V39.8967C88.562 39.944 88.562 40.0623 88.5721 40.2448L88.5485 41.593V42.0762C88.5485 42.0999 88.5518 42.1269 88.562 42.1506C88.6465 42.1708 88.8053 42.2046 89.0384 42.2486C89.0486 42.2925 89.0519 42.3263 89.0519 42.3499C89.0519 42.3702 89.0486 42.4006 89.0418 42.4412H88.8357L88.2038 42.4209C87.8355 42.4209 87.6192 42.4209 87.5584 42.4276C87.43 42.4412 87.359 42.4479 87.3455 42.4479H87.3016C87.3016 42.3871 87.2982 42.3398 87.2982 42.3094V42.2283V42.2249ZM88.3896 38.6634C88.3896 38.535 88.4302 38.4302 88.5113 38.3457C88.5924 38.2646 88.6904 38.2207 88.8087 38.2207C88.9269 38.2207 89.0249 38.2613 89.106 38.3457C89.1871 38.4268 89.2277 38.5282 89.2277 38.6431C89.2277 38.758 89.1871 38.8593 89.106 38.9404C89.0249 39.0215 88.9235 39.0621 88.8087 39.0621C88.6938 39.0621 88.5992 39.0215 88.5147 38.9404C88.4302 38.8593 88.3896 38.7681 88.3896 38.6634Z" fill="#00275F"/>
<path d="M90.762 40.951L90.887 40.9612L91.3635 40.9544L91.4919 40.9612L91.7217 40.9679C91.8129 40.9679 91.9345 40.9679 92.0866 40.9578V40.5692C92.0866 40.2448 92.0866 40.0556 92.0765 40.0049C92.0697 39.9542 92.0021 39.9272 91.8805 39.9238C91.8298 39.9238 91.7487 39.9137 91.6406 39.9035L91.5966 39.667C91.8974 39.6873 92.1136 39.6974 92.2488 39.6974H92.4245H92.6948C92.999 39.6974 93.2152 39.6873 93.3402 39.667L93.2963 39.9035C93.1544 39.9204 93.0699 39.9272 93.0496 39.9272C92.9449 39.9272 92.8875 39.9441 92.8739 39.9779C92.8604 40.0083 92.8537 40.1299 92.8503 40.3394L92.8401 40.7584L92.83 41.3667C92.83 41.8499 92.8469 42.127 92.8807 42.1979C93.0226 42.2317 93.1274 42.252 93.2017 42.2621C93.2389 42.2655 93.2727 42.2723 93.3065 42.2824V42.4885L92.9043 42.4682C92.7759 42.4615 92.6577 42.4581 92.5428 42.4581L92.0461 42.475L91.6237 42.4885V42.2824C91.6575 42.2723 91.6946 42.2655 91.7318 42.2621C91.8602 42.2452 91.965 42.2249 92.0494 42.1979C92.09 41.9681 92.1103 41.7046 92.1103 41.4038L92.1035 41.2112C91.9582 41.218 91.8197 41.2214 91.6811 41.2214C91.4818 41.2214 91.3365 41.2214 91.2385 41.2146L90.9512 41.2078C90.8938 41.2078 90.8296 41.2079 90.7654 41.218V41.3869V41.8701C90.7654 41.9918 90.7789 42.1033 90.8093 42.1979C90.9512 42.2317 91.056 42.252 91.127 42.2621C91.1641 42.2655 91.1979 42.2723 91.2283 42.2824L91.2351 42.4885L90.8296 42.4682C90.7012 42.4615 90.5829 42.4581 90.4647 42.4581L89.9679 42.475L89.5455 42.4885V42.2824C89.5793 42.2723 89.6165 42.2655 89.6537 42.2621C89.7787 42.2452 89.8835 42.2249 89.9713 42.1979C90.0017 42.0459 90.0186 41.7688 90.0186 41.3667L90.0051 40.4171C90.0017 40.1401 89.9882 39.988 89.9679 39.9643C89.9477 39.9407 89.8902 39.9272 89.799 39.9272C89.7483 39.9272 89.6672 39.917 89.5591 39.9069L89.5151 39.6704C89.8159 39.6906 90.0321 39.7008 90.1673 39.7008H90.343H90.6133C90.9175 39.7008 91.1337 39.6906 91.2554 39.6704L91.2148 39.9069C91.0729 39.9238 90.9884 39.9306 90.9681 39.9306C90.86 39.9306 90.8026 39.9475 90.789 39.9812C90.7755 40.0117 90.7688 40.1333 90.7654 40.3428C90.7654 40.6131 90.7586 40.8159 90.7485 40.9544L90.762 40.951Z" fill="#00275F"/>
<path d="M96.6346 41.5593C96.6718 41.5796 96.6988 41.5931 96.7157 41.5998C96.7664 41.6235 96.8103 41.6505 96.8407 41.6843C96.7799 41.9107 96.6312 42.1067 96.3947 42.2723C96.1582 42.4379 95.8608 42.519 95.5026 42.519C95.2762 42.519 95.0532 42.4716 94.8302 42.377C94.6072 42.2824 94.4315 42.1574 94.2997 41.9986C94.1983 41.8769 94.1206 41.7316 94.0699 41.5559C94.0192 41.3802 93.9922 41.2349 93.9922 41.1099C93.9922 40.9646 94.0226 40.7956 94.0868 40.6098C94.151 40.4239 94.2558 40.2482 94.4044 40.0826C94.5531 39.9171 94.7423 39.7853 94.9687 39.6873C95.1951 39.5893 95.4519 39.542 95.7392 39.542C96.1311 39.542 96.4048 39.6028 96.5569 39.7245C96.7123 39.8461 96.7867 39.9678 96.7867 40.0894C96.7867 40.211 96.7563 40.3023 96.6921 40.3732C96.6279 40.4442 96.5434 40.478 96.4353 40.478C96.344 40.478 96.2562 40.4476 96.1784 40.3868C96.1007 40.3259 96.0365 40.2212 95.9825 40.0793C95.9419 39.9745 95.8912 39.9002 95.827 39.8529C95.7628 39.8089 95.6885 39.7853 95.6006 39.7853C95.3877 39.7853 95.1985 39.8765 95.0296 40.059C94.8606 40.2415 94.7795 40.4881 94.7795 40.8058C94.7795 41.1842 94.8809 41.485 95.087 41.708C95.2931 41.931 95.5229 42.0425 95.7831 42.0425C95.9115 42.0425 96.023 42.029 96.1109 41.9986C96.1683 41.9783 96.246 41.9344 96.3406 41.8668C96.3643 41.8499 96.4116 41.7992 96.4826 41.7215C96.5501 41.6438 96.5975 41.5897 96.6245 41.5627L96.6346 41.5593Z" fill="#00275F"/>
<path d="M98.5948 40.8559L98.9732 40.8458L99.0982 40.839C99.6626 40.839 100.041 40.9066 100.234 41.0417C100.426 41.1769 100.521 41.3628 100.521 41.5993C100.521 41.8831 100.406 42.096 100.176 42.2447C99.9464 42.3934 99.6254 42.4643 99.2098 42.4643L98.7536 42.4576L97.3851 42.4947L97.3918 42.292L97.6115 42.2582C97.6959 42.2481 97.7635 42.2312 97.8108 42.2143C97.8446 42.1535 97.8615 41.8493 97.8615 41.3019L97.8514 40.7241L97.8412 40.322C97.8412 40.1193 97.8345 40.0044 97.8243 39.974C97.8108 39.9436 97.7534 39.9267 97.6453 39.9233L97.3986 39.8996L97.3682 39.7104H97.7838L97.9088 39.7003C98.0068 39.6969 98.1454 39.6935 98.3211 39.6935L98.7063 39.6867H98.9529C98.9969 39.6901 99.0678 39.68 99.1692 39.6631L99.1287 39.8929C98.98 39.9098 98.8887 39.9165 98.8583 39.9165C98.7266 39.9165 98.6455 39.9334 98.6218 39.9638C98.5981 39.9942 98.5846 40.072 98.5846 40.2004V40.5248V40.7038C98.5846 40.7478 98.5846 40.7985 98.588 40.8525L98.5948 40.8559ZM98.6117 42.1636C98.6894 42.1873 98.811 42.2008 98.9665 42.2008C99.4801 42.2008 99.7369 42.0183 99.7369 41.65C99.7369 41.4912 99.6727 41.3628 99.5443 41.258C99.4159 41.1566 99.2233 41.106 98.9631 41.106C98.8583 41.106 98.7367 41.1161 98.6015 41.133C98.6015 41.16 98.6015 41.1769 98.6015 41.1803V41.3898C98.5948 41.6196 98.588 41.846 98.588 42.0656C98.588 42.096 98.5948 42.1264 98.6117 42.1602V42.1636Z" fill="#00275F"/>
<path d="M102.896 39.671L102.856 39.9042L102.609 39.9312C102.521 39.9312 102.467 39.9413 102.447 39.9616C102.427 39.9819 102.413 40.0427 102.407 40.1373C102.407 40.1643 102.407 40.2015 102.4 40.2522C102.383 40.4414 102.376 40.5563 102.376 40.6036V40.9213C102.545 40.874 102.677 40.8131 102.768 40.7388C102.859 40.6644 102.988 40.5124 103.157 40.2792C103.508 39.796 103.849 39.5527 104.181 39.5527C104.343 39.5527 104.468 39.5933 104.556 39.6744C104.643 39.7555 104.684 39.8535 104.684 39.9684C104.684 40.0528 104.654 40.1272 104.596 40.1914C104.539 40.2556 104.458 40.2894 104.356 40.2894C104.245 40.2894 104.143 40.2353 104.055 40.1272C103.998 40.0562 103.944 40.0224 103.893 40.0224C103.819 40.0224 103.741 40.0528 103.667 40.1137C103.589 40.1745 103.481 40.2928 103.343 40.4685C103.228 40.6138 103.14 40.7151 103.082 40.7658C103.204 40.803 103.329 40.8773 103.457 40.9855C103.586 41.0936 103.799 41.3436 104.093 41.739C104.245 41.9417 104.356 42.0668 104.424 42.1141C104.491 42.1614 104.62 42.2087 104.802 42.2627V42.3743C104.802 42.3912 104.802 42.4182 104.802 42.4554C104.775 42.4554 104.721 42.452 104.637 42.4418C104.525 42.4317 104.404 42.4249 104.275 42.4249C104.13 42.4249 103.954 42.4317 103.748 42.4486C103.714 42.3979 103.636 42.2932 103.518 42.1411L103.187 41.7018C102.984 41.4281 102.839 41.2592 102.755 41.1983C102.667 41.1375 102.538 41.1037 102.366 41.1037V41.9924L102.373 42.1174C102.43 42.1648 102.538 42.1985 102.694 42.2154C102.724 42.2188 102.751 42.2256 102.775 42.229V42.3743C102.775 42.3743 102.775 42.4047 102.775 42.4283L102.751 42.4385L102.393 42.4249C102.231 42.4148 102.079 42.408 101.933 42.408C101.852 42.408 101.694 42.4182 101.46 42.4385C101.396 42.4385 101.349 42.4385 101.312 42.4418C101.261 42.4418 101.214 42.4418 101.173 42.4418C101.163 42.4047 101.16 42.3709 101.16 42.3337C101.16 42.3101 101.16 42.2796 101.16 42.2425C101.197 42.2222 101.241 42.2087 101.285 42.2019C101.329 42.1952 101.356 42.1884 101.369 42.185L101.498 42.1749C101.541 42.1715 101.575 42.1614 101.596 42.1512C101.619 42.131 101.633 41.7964 101.636 41.1477V41.0361L101.643 40.6813V40.2759C101.646 40.1137 101.639 40.0123 101.623 39.9751C101.606 39.9379 101.545 39.9177 101.44 39.9143C101.389 39.9143 101.308 39.9075 101.2 39.894L101.156 39.6609C101.457 39.6811 101.673 39.6913 101.808 39.6913H101.984H102.254C102.559 39.6913 102.775 39.6811 102.896 39.6609V39.671Z" fill="#00275F"/>
<path d="M107.242 39.8968L107.198 39.667C107.495 39.6906 107.715 39.7008 107.85 39.7008H108.026H108.296C108.6 39.7008 108.816 39.6906 108.941 39.667L108.898 39.8968L108.651 39.9204C108.543 39.9204 108.482 39.9373 108.472 39.9745C108.462 40.0083 108.455 40.1975 108.448 40.5388L108.441 40.7618L108.431 41.0423C108.431 41.7722 108.448 42.1607 108.482 42.2081C108.614 42.2385 108.722 42.2587 108.8 42.2689C108.833 42.2723 108.867 42.279 108.904 42.2892V42.4885L108.674 42.4784C108.435 42.4649 108.255 42.4581 108.141 42.4581L107.225 42.4885V42.2892C107.262 42.279 107.296 42.2723 107.333 42.2689C107.468 42.252 107.573 42.2317 107.651 42.2081C107.678 42.0661 107.691 41.7789 107.691 41.3531V41.1132L107.671 40.7449C107.671 40.7111 107.674 40.6503 107.684 40.5624C106.992 41.3295 106.549 41.7924 106.36 41.9512C106.37 42.0628 106.387 42.1472 106.411 42.2114C106.542 42.2418 106.65 42.2621 106.728 42.2723C106.762 42.2756 106.796 42.2824 106.83 42.2925L106.836 42.4919L106.603 42.4818C106.36 42.4682 106.184 42.4615 106.069 42.4615L105.154 42.4919V42.2925C105.191 42.2824 105.224 42.2756 105.262 42.2723C105.393 42.2554 105.498 42.2351 105.579 42.2114C105.606 42.0695 105.62 41.9175 105.62 41.762V41.218V40.7213V40.5388L105.613 40.3192C105.613 40.1164 105.603 40.0015 105.589 39.9677C105.576 39.9373 105.515 39.9204 105.41 39.917C105.366 39.917 105.285 39.9103 105.17 39.9001L105.126 39.6704C105.424 39.6906 105.643 39.7008 105.779 39.7008H105.954H106.225C106.529 39.7008 106.745 39.6906 106.867 39.6704L106.826 39.9001L106.579 39.9238C106.468 39.9238 106.407 39.9407 106.397 39.9779C106.387 40.0117 106.38 40.2009 106.377 40.5422L106.367 40.7483L106.356 40.9916V41.6404L106.975 40.9646C107.154 40.7584 107.303 40.5929 107.428 40.4678C107.549 40.3462 107.63 40.255 107.671 40.1975C107.674 40.1367 107.678 40.0961 107.678 40.0725C107.678 39.9745 107.61 39.9204 107.482 39.9137C107.414 39.9137 107.333 39.9069 107.242 39.8968Z" fill="#00275F"/>
<path d="M111.546 39.8965L111.503 39.6668C111.8 39.6904 112.02 39.7006 112.155 39.7006H112.33H112.601C112.905 39.7006 113.121 39.6904 113.246 39.6668L113.202 39.8965L112.956 39.9202C112.847 39.9202 112.787 39.9371 112.776 39.9743C112.766 40.0081 112.76 40.1973 112.753 40.5386L112.746 40.7616L112.736 41.0421C112.736 41.7719 112.753 42.1605 112.787 42.2078C112.918 42.2382 113.026 42.2585 113.104 42.2687C113.138 42.272 113.172 42.2788 113.209 42.2889V42.4883L112.979 42.4782C112.739 42.4646 112.56 42.4579 112.445 42.4579L111.53 42.4883V42.2889C111.567 42.2788 111.601 42.272 111.638 42.2687C111.773 42.2518 111.878 42.2315 111.955 42.2078C111.982 42.0659 111.996 41.7787 111.996 41.3529V41.113L111.976 40.7447C111.976 40.7109 111.979 40.6501 111.989 40.5622C111.296 41.3293 110.854 41.7922 110.665 41.951C110.675 42.0625 110.692 42.147 110.715 42.2112C110.847 42.2416 110.955 42.2619 111.033 42.272C111.067 42.2754 111.1 42.2822 111.134 42.2923L111.141 42.4917L110.908 42.4815C110.665 42.468 110.489 42.4613 110.374 42.4613L109.458 42.4917V42.2923C109.495 42.2822 109.529 42.2754 109.566 42.272C109.698 42.2551 109.803 42.2349 109.884 42.2112C109.911 42.0693 109.924 41.9172 109.924 41.7618V41.2178V40.721V40.5386L109.918 40.3189C109.918 40.1162 109.908 40.0013 109.894 39.9675C109.881 39.9371 109.82 39.9202 109.715 39.9168C109.671 39.9168 109.59 39.9101 109.475 39.8999L109.431 39.6702C109.729 39.6904 109.948 39.7006 110.083 39.7006H110.259H110.529C110.833 39.7006 111.05 39.6904 111.171 39.6702L111.131 39.8999L110.884 39.9236C110.773 39.9236 110.712 39.9405 110.702 39.9776C110.692 40.0114 110.685 40.2007 110.681 40.542L110.671 40.7481L110.661 40.9914V41.6402L111.28 40.9643C111.459 40.7582 111.607 40.5926 111.732 40.4676C111.854 40.346 111.935 40.2547 111.976 40.1973C111.979 40.1365 111.982 40.0959 111.982 40.0723C111.982 39.9743 111.915 39.9202 111.786 39.9134C111.719 39.9134 111.638 39.9067 111.546 39.8965ZM110.222 38.5044C110.222 38.4098 110.256 38.3287 110.323 38.2645C110.391 38.2003 110.472 38.1665 110.57 38.1665C110.651 38.1665 110.719 38.1867 110.773 38.2307C110.827 38.2746 110.898 38.376 110.986 38.5348C111.107 38.751 111.239 38.8592 111.384 38.8592C111.53 38.8592 111.661 38.751 111.78 38.5348C111.857 38.3929 111.925 38.2982 111.982 38.2442C112.04 38.1901 112.114 38.1631 112.205 38.1631C112.297 38.1631 112.378 38.1969 112.442 38.2645C112.506 38.332 112.54 38.4098 112.54 38.5044C112.54 38.6868 112.428 38.8288 112.202 38.9234C111.979 39.0214 111.709 39.0687 111.398 39.0687C111.033 39.0687 110.746 39.018 110.536 38.9132C110.327 38.8085 110.222 38.6733 110.222 38.5044Z" fill="#00275F"/>
<path d="M119.193 39.1936L119.055 39.2003C119.024 39.2003 118.984 39.2003 118.94 39.1936C118.92 39.1497 118.893 39.0855 118.859 38.9942C118.778 38.8523 118.724 38.7543 118.7 38.707C118.585 38.5381 118.521 38.4502 118.507 38.4401C118.494 38.4299 118.44 38.4232 118.345 38.4198C118.271 38.4198 118.163 38.4164 118.028 38.4063C117.801 38.3894 117.561 38.3792 117.308 38.3792C117.207 38.3792 117.105 38.3792 117.007 38.386C116.946 38.4096 116.916 38.5313 116.916 38.7577L116.923 39.9235C117.166 39.9032 117.379 39.8931 117.561 39.8931C117.926 39.8931 118.224 39.9235 118.45 39.9877C118.676 40.0519 118.866 40.1397 119.014 40.2512C119.166 40.3627 119.278 40.4945 119.352 40.6432C119.427 40.7919 119.464 40.9507 119.464 41.1197C119.464 41.5285 119.295 41.8563 118.957 42.0996C118.619 42.3429 118.2 42.4645 117.693 42.4645C117.602 42.4645 117.443 42.4578 117.223 42.4409C117.075 42.4307 116.889 42.424 116.673 42.424C116.578 42.424 116.399 42.4307 116.135 42.4476L115.341 42.478L115.348 42.2077C115.392 42.1942 115.46 42.1807 115.544 42.1706C115.706 42.1469 115.828 42.1199 115.906 42.0827C115.963 42.032 115.993 41.7955 115.993 41.3731L115.983 39.5112L115.96 38.7678C115.953 38.5617 115.936 38.4468 115.906 38.4198C115.875 38.3927 115.804 38.3759 115.689 38.3691C115.642 38.3691 115.531 38.3556 115.355 38.3319L115.345 38.0886L115.679 38.0819L116.919 38.092H116.923L118.393 38.0684C118.629 38.0684 118.876 38.0853 119.126 38.119C119.166 38.1562 119.187 38.217 119.187 38.3015V39.2003L119.193 39.1936ZM116.963 42.059C117.109 42.1199 117.244 42.1503 117.376 42.1503C118.109 42.1503 118.477 41.8326 118.477 41.2008C118.477 40.5317 118.105 40.1972 117.365 40.1972C117.166 40.1972 117.017 40.2073 116.923 40.231C116.919 40.3154 116.916 40.3864 116.916 40.4337L116.923 40.6466V41.1501L116.929 41.8495V41.9036C116.929 41.9509 116.94 42.0016 116.963 42.059Z" fill="#00275F"/>
<path d="M123.312 42.4717H123.235L122.772 42.4615H122.528L122.278 42.4548L122.103 42.4649L121.755 42.4717C121.741 42.4311 121.734 42.3973 121.734 42.3737C121.734 42.3466 121.741 42.3061 121.751 42.252L121.897 42.2284C122.059 42.2047 122.137 42.1709 122.137 42.1202C122.137 42.0831 122.126 42.0391 122.103 41.9885C122.086 41.9479 122.052 41.8668 122.008 41.7452C121.964 41.6235 121.88 41.4208 121.748 41.1369L121.66 40.924C121.593 40.7551 121.522 40.5997 121.454 40.4611C121.424 40.5287 121.38 40.6537 121.319 40.8328C121.268 40.9849 121.187 41.2045 121.075 41.4884C120.94 41.8432 120.866 42.0797 120.859 42.198C120.917 42.2081 120.994 42.2149 121.089 42.2182L121.14 42.225C121.177 42.225 121.221 42.225 121.275 42.225L121.326 42.2351C121.329 42.2723 121.332 42.3095 121.332 42.3466C121.332 42.4108 121.322 42.4514 121.305 42.4683L121.244 42.475C121.211 42.4784 121.19 42.4818 121.187 42.4818L120.896 42.475H120.727C120.626 42.4683 120.521 42.4615 120.413 42.4615L120.275 42.4683L120.129 42.4784H120.048C120.045 42.4345 120.042 42.4007 120.042 42.3771C120.042 42.3534 120.042 42.3196 120.048 42.2791C120.278 42.225 120.433 42.1743 120.525 42.127C120.565 42.056 120.626 41.9107 120.707 41.6911C120.863 41.2755 121.069 40.7754 121.322 40.184C121.393 40.0185 121.447 39.8901 121.481 39.7988C121.508 39.7279 121.538 39.6569 121.572 39.5859H121.849C122.13 40.2415 122.366 40.772 122.566 41.1775L122.893 41.9209L122.998 42.1473C122.998 42.1473 123.056 42.1709 123.16 42.198C123.252 42.2216 123.309 42.2453 123.326 42.2689C123.329 42.2926 123.333 42.323 123.333 42.3602C123.333 42.4075 123.329 42.4446 123.319 42.4683L123.312 42.4717Z" fill="#00275F"/>
<path d="M126.685 41.8055L126.762 41.8561C126.783 41.873 126.796 41.8899 126.799 41.9136V41.9305C126.749 42.1332 126.678 42.2718 126.59 42.3461C126.502 42.4205 126.394 42.461 126.262 42.461C126.13 42.461 126.012 42.4238 125.918 42.3495C125.82 42.2752 125.735 42.1467 125.654 41.9609C125.556 42.1332 125.421 42.2616 125.242 42.3495C125.063 42.4373 124.85 42.4813 124.593 42.4813C124.356 42.4813 124.184 42.4306 124.073 42.3326C123.961 42.2346 123.907 42.1062 123.907 41.944C123.907 41.8697 123.924 41.7919 123.958 41.7176C123.991 41.6399 124.042 41.5655 124.116 41.4878C124.191 41.4135 124.309 41.329 124.471 41.2378C124.495 41.2243 124.583 41.1871 124.728 41.1229L125.573 40.785C125.58 40.7005 125.583 40.6126 125.583 40.5248C125.583 40.2207 125.546 40.0112 125.472 39.8997C125.428 39.8321 125.346 39.7983 125.235 39.7983C125.123 39.7983 125.019 39.8186 124.924 39.8625C124.829 39.9064 124.759 39.9605 124.718 40.0281C124.688 40.0788 124.661 40.1734 124.637 40.3085C124.62 40.4065 124.606 40.4673 124.593 40.4809C124.559 40.5248 124.498 40.562 124.407 40.5991C124.319 40.6329 124.258 40.66 124.225 40.6768C124.103 40.7343 124.005 40.7647 123.934 40.7647C123.904 40.7377 123.887 40.7005 123.887 40.6498C123.887 40.5214 123.914 40.4099 123.968 40.3187C124.049 40.1869 124.171 40.0585 124.336 39.9368C124.502 39.8152 124.654 39.7273 124.796 39.6766C124.992 39.6124 125.228 39.582 125.509 39.582C125.691 39.582 125.847 39.6158 125.975 39.6834C126.103 39.751 126.195 39.849 126.245 39.9808C126.296 40.1125 126.323 40.3491 126.323 40.6904L126.316 41.2513L126.323 41.6602V41.7649C126.323 41.8595 126.337 41.9237 126.36 41.9609C126.387 41.9947 126.418 42.015 126.458 42.015C126.482 42.015 126.505 42.0082 126.522 41.9947L126.624 41.8359L126.685 41.8122V41.8055ZM125.573 41.0181C125.444 41.0621 125.299 41.133 125.137 41.2344C124.975 41.3358 124.863 41.4371 124.799 41.5385C124.755 41.6129 124.731 41.7041 124.731 41.8122C124.731 41.9102 124.762 41.9913 124.819 42.0521C124.877 42.113 124.948 42.1467 125.022 42.1467C125.15 42.1467 125.255 42.1096 125.346 42.0386C125.465 41.9406 125.536 41.8629 125.556 41.8055C125.576 41.748 125.586 41.5858 125.586 41.3155C125.586 41.2175 125.583 41.1161 125.573 41.0181Z" fill="#00275F"/>
<path d="M128.543 42.1988C128.662 42.2292 128.787 42.2495 128.915 42.263H128.942C128.979 42.2732 129.02 42.2799 129.064 42.2833L129.077 42.4793C129.03 42.4725 128.858 42.4691 128.564 42.4691L128.087 42.459L127.705 42.4759L127.283 42.4894V42.2833C127.317 42.2732 127.354 42.2664 127.391 42.263C127.516 42.2461 127.621 42.2258 127.712 42.1988C127.742 42.0468 127.759 41.7663 127.759 41.354L127.746 40.4147C127.742 40.1376 127.729 39.9889 127.709 39.9652C127.688 39.9416 127.631 39.9281 127.54 39.9247C127.489 39.9247 127.408 39.9146 127.3 39.9044L127.256 39.6679C127.361 39.678 127.462 39.6814 127.563 39.6848C127.715 39.6882 127.867 39.6983 128.023 39.7084C128.28 39.7253 128.509 39.7321 128.709 39.7321C128.956 39.7321 129.168 39.722 129.344 39.7051C129.462 39.6915 129.574 39.6848 129.685 39.6814L130.06 39.6611C130.05 39.7828 130.044 39.9179 130.044 40.0666C130.044 40.3099 130.044 40.4485 130.033 40.4822C130.023 40.516 130.003 40.5296 129.959 40.5296C129.902 40.5296 129.861 40.4721 129.837 40.3572C129.807 40.2018 129.76 40.1004 129.702 40.0463C129.645 39.9957 129.598 39.9619 129.564 39.9484C129.53 39.9348 129.385 39.9281 129.128 39.9281C128.807 39.9281 128.628 39.945 128.584 39.9821C128.54 40.0159 128.52 40.1274 128.52 40.3133V40.5735L128.499 41.3574C128.499 41.8474 128.516 42.1312 128.55 42.2022L128.543 42.1988Z" fill="#00275F"/>
<path d="M133.281 39.9717C133.426 40.1137 133.535 40.2725 133.605 40.4549C133.676 40.6374 133.714 40.8097 133.714 40.9686C133.714 41.2727 133.666 41.516 133.575 41.7018C133.433 41.9823 133.244 42.1884 133.007 42.3236C132.771 42.4587 132.494 42.5229 132.18 42.5229C131.825 42.5229 131.527 42.4452 131.281 42.2864C131.034 42.1276 130.858 41.9485 130.754 41.7458C130.649 41.543 130.595 41.293 130.595 40.9956C130.595 40.8435 130.618 40.6915 130.669 40.5394C130.72 40.3874 130.787 40.2522 130.875 40.1407C130.963 40.0292 131.058 39.9312 131.162 39.8568C131.314 39.7487 131.467 39.671 131.619 39.6237C131.771 39.5764 131.956 39.5527 132.173 39.5527C132.646 39.5527 133.014 39.6913 133.281 39.9717ZM131.426 41.1443C131.446 41.4247 131.46 41.5869 131.47 41.6309C131.5 41.7829 131.544 41.9147 131.608 42.0228C131.652 42.0938 131.723 42.1546 131.821 42.2087C131.919 42.2628 132.041 42.2898 132.176 42.2898C132.342 42.2898 132.48 42.2357 132.595 42.131C132.707 42.0262 132.791 41.8606 132.838 41.6376C132.869 41.4889 132.886 41.249 132.886 40.9145C132.886 40.5023 132.818 40.2117 132.683 40.0393C132.548 39.867 132.369 39.7825 132.146 39.7825C131.97 39.7825 131.828 39.8298 131.713 39.9278C131.598 40.0258 131.521 40.1677 131.473 40.3603C131.443 40.482 131.426 40.7455 131.423 41.1443H131.426Z" fill="#00275F"/>
<path d="M137.619 43.2756C137.569 43.2823 137.535 43.2857 137.515 43.2857H137.474C137.444 43.2316 137.41 43.1607 137.376 43.0728C137.265 42.7991 137.153 42.6234 137.041 42.5457C136.93 42.468 136.714 42.4308 136.399 42.4308H135.926L135.2 42.4207C135.017 42.4207 134.899 42.4308 134.845 42.4477C134.791 42.468 134.74 42.5153 134.693 42.5896C134.646 42.664 134.585 42.8093 134.514 43.0255C134.47 43.1539 134.443 43.2283 134.433 43.2452C134.423 43.2452 134.402 43.2452 134.375 43.2452C134.331 43.2485 134.304 43.2519 134.298 43.2519C134.288 43.2519 134.267 43.2519 134.24 43.2519C134.261 43.11 134.274 42.9951 134.281 42.9106C134.308 42.5693 134.342 42.3396 134.386 42.2247C134.413 42.2145 134.446 42.2044 134.49 42.201C134.554 42.1976 134.615 42.1875 134.676 42.174C134.876 41.7685 135.142 41.1366 135.47 40.2783L135.643 39.8255L135.747 39.5586H136.021C136.048 39.6228 136.247 40.0553 136.612 40.8494C136.981 41.6435 137.187 42.0692 137.231 42.1267C137.275 42.1841 137.342 42.2281 137.44 42.2652C137.498 42.2889 137.535 42.3193 137.552 42.3632C137.569 42.4072 137.579 42.5525 137.586 42.8025L137.619 43.2756ZM136.379 42.1537C136.335 42.0219 136.281 41.8834 136.224 41.7313L135.967 41.0386C135.825 40.6467 135.741 40.4203 135.714 40.3594L135.024 42.1571C135.308 42.1774 135.592 42.1875 135.872 42.1875C136.031 42.1875 136.2 42.174 136.383 42.1503L136.379 42.1537Z" fill="#00275F"/>
<path d="M138.008 42.4451L138.001 42.2255L138.383 42.1748C138.441 42.1579 138.478 42.1342 138.502 42.1038C138.522 42.0734 138.535 42.0058 138.535 41.8977V41.8605C138.535 41.8335 138.535 41.7828 138.539 41.7119C138.542 41.6409 138.546 41.5767 138.546 41.5226C138.546 41.4787 138.542 41.3976 138.535 41.276V41.107V40.9482L138.546 40.394C138.546 40.3231 138.539 40.2521 138.525 40.1778C138.502 40.144 138.454 40.1136 138.387 40.0899C138.319 40.0663 138.204 40.046 138.042 40.0358V39.8466C138.275 39.8331 138.481 39.7858 138.657 39.7013C138.779 39.6473 138.907 39.5493 139.049 39.4141H139.275C139.286 39.6946 139.289 40.0595 139.289 40.5089L139.265 41.8943C139.265 41.9889 139.269 42.0768 139.279 42.1511C139.35 42.1748 139.465 42.2018 139.62 42.2255C139.681 42.2356 139.732 42.2458 139.765 42.2593L139.759 42.4451C139.698 42.4451 139.654 42.4451 139.623 42.4451C139.59 42.4451 139.539 42.4451 139.468 42.4384C139.238 42.4282 138.931 42.4215 138.542 42.4215C138.431 42.4215 138.322 42.4248 138.221 42.435C138.12 42.4451 138.045 42.4485 138.008 42.4485V42.4451ZM138.485 38.3936C138.485 38.272 138.525 38.1706 138.603 38.0929C138.681 38.0152 138.785 37.9746 138.907 37.9746C139.039 37.9746 139.15 38.0152 139.238 38.0996C139.326 38.1807 139.37 38.2753 139.37 38.3801C139.37 38.4578 139.353 38.5355 139.316 38.6099C139.282 38.6876 139.225 38.7484 139.15 38.7957C139.076 38.843 138.998 38.8667 138.917 38.8667C138.809 38.8667 138.708 38.8194 138.616 38.7281C138.525 38.6369 138.478 38.5254 138.478 38.397L138.485 38.3936Z" fill="#00275F"/>
<path d="M142.354 39.8965L142.31 39.6668C142.607 39.6904 142.827 39.7006 142.962 39.7006H143.138H143.408C143.712 39.7006 143.928 39.6904 144.053 39.6668L144.009 39.8965L143.763 39.9202C143.655 39.9202 143.594 39.9371 143.584 39.9743C143.573 40.0081 143.567 40.1973 143.56 40.5386L143.553 40.7616L143.543 41.0421C143.543 41.7719 143.56 42.1605 143.594 42.2078C143.725 42.2382 143.834 42.2585 143.911 42.2687C143.945 42.272 143.979 42.2788 144.016 42.2889V42.4883L143.786 42.4782C143.546 42.4646 143.367 42.4579 143.252 42.4579L142.337 42.4883V42.2889C142.374 42.2788 142.408 42.272 142.445 42.2687C142.58 42.2518 142.685 42.2315 142.762 42.2078C142.789 42.0659 142.803 41.7787 142.803 41.3529V41.113L142.783 40.7447C142.783 40.7109 142.786 40.6501 142.796 40.5622C142.104 41.3293 141.661 41.7922 141.472 41.951C141.482 42.0625 141.499 42.147 141.522 42.2112C141.654 42.2416 141.762 42.2619 141.84 42.272C141.874 42.2754 141.908 42.2822 141.941 42.2923L141.948 42.4917L141.715 42.4815C141.472 42.468 141.296 42.4613 141.181 42.4613L140.265 42.4917V42.2923C140.302 42.2822 140.336 42.2754 140.373 42.272C140.505 42.2551 140.61 42.2349 140.691 42.2112C140.718 42.0693 140.732 41.9172 140.732 41.7618V41.2178V40.721V40.5386L140.725 40.3189C140.725 40.1162 140.715 40.0013 140.701 39.9675C140.688 39.9371 140.627 39.9202 140.522 39.9168C140.478 39.9168 140.397 39.9101 140.282 39.8999L140.238 39.6702C140.536 39.6904 140.755 39.7006 140.89 39.7006H141.066H141.336C141.641 39.7006 141.857 39.6904 141.979 39.6702L141.938 39.8999L141.691 39.9236C141.58 39.9236 141.519 39.9405 141.509 39.9776C141.499 40.0114 141.492 40.2007 141.489 40.542L141.478 40.7481L141.468 40.9914V41.6402L142.087 40.9643C142.266 40.7582 142.414 40.5926 142.539 40.4676C142.661 40.346 142.742 40.2547 142.783 40.1973C142.786 40.1365 142.789 40.0959 142.789 40.0723C142.789 39.9743 142.722 39.9202 142.593 39.9134C142.526 39.9134 142.445 39.9067 142.354 39.8965ZM141.029 38.5044C141.029 38.4098 141.063 38.3287 141.13 38.2645C141.198 38.2003 141.279 38.1665 141.377 38.1665C141.458 38.1665 141.526 38.1867 141.58 38.2307C141.634 38.2746 141.705 38.376 141.793 38.5348C141.914 38.751 142.046 38.8592 142.191 38.8592C142.337 38.8592 142.468 38.751 142.587 38.5348C142.664 38.3929 142.732 38.2982 142.789 38.2442C142.847 38.1901 142.921 38.1631 143.013 38.1631C143.104 38.1631 143.185 38.1969 143.249 38.2645C143.313 38.332 143.347 38.4098 143.347 38.5044C143.347 38.6868 143.236 38.8288 143.009 38.9234C142.786 39.0214 142.516 39.0687 142.205 39.0687C141.84 39.0687 141.553 39.018 141.343 38.9132C141.134 38.8085 141.029 38.6733 141.029 38.5044Z" fill="#00275F"/>
<path d="M145.777 40.951L145.902 40.9612L146.378 40.9544L146.507 40.9612L146.736 40.9679C146.828 40.9679 146.949 40.9679 147.101 40.9578V40.5692C147.101 40.2448 147.101 40.0556 147.091 40.0049C147.084 39.9542 147.017 39.9272 146.895 39.9238C146.844 39.9238 146.763 39.9137 146.655 39.9035L146.611 39.667C146.912 39.6873 147.128 39.6974 147.263 39.6974H147.439H147.71C148.014 39.6974 148.23 39.6873 148.355 39.667L148.311 39.9035C148.169 39.9204 148.085 39.9272 148.064 39.9272C147.96 39.9272 147.902 39.9441 147.889 39.9779C147.875 40.0083 147.868 40.1299 147.865 40.3394L147.855 40.7584L147.845 41.3667C147.845 41.8499 147.862 42.127 147.895 42.1979C148.037 42.2317 148.142 42.252 148.216 42.2621C148.254 42.2655 148.287 42.2723 148.321 42.2824V42.4885L147.919 42.4682C147.791 42.4615 147.672 42.4581 147.557 42.4581L147.061 42.475L146.638 42.4885V42.2824C146.672 42.2723 146.709 42.2655 146.746 42.2621C146.875 42.2452 146.98 42.2249 147.064 42.1979C147.105 41.9681 147.125 41.7046 147.125 41.4038L147.118 41.2112C146.973 41.218 146.834 41.2214 146.696 41.2214C146.496 41.2214 146.351 41.2214 146.253 41.2146L145.966 41.2078C145.908 41.2078 145.844 41.2079 145.78 41.218V41.3869V41.8701C145.78 41.9918 145.794 42.1033 145.824 42.1979C145.966 42.2317 146.071 42.252 146.142 42.2621C146.179 42.2655 146.213 42.2723 146.243 42.2824L146.25 42.4885L145.844 42.4682C145.716 42.4615 145.598 42.4581 145.479 42.4581L144.983 42.475L144.56 42.4885V42.2824C144.594 42.2723 144.631 42.2655 144.668 42.2621C144.793 42.2452 144.898 42.2249 144.989 42.1979C145.02 42.0459 145.037 41.7688 145.037 41.3667L145.023 40.4171C145.02 40.1401 145.006 39.988 144.986 39.9643C144.966 39.9407 144.908 39.9272 144.817 39.9272C144.766 39.9272 144.685 39.917 144.577 39.9069L144.533 39.6704C144.834 39.6906 145.05 39.7008 145.185 39.7008H145.361H145.631C145.936 39.7008 146.152 39.6906 146.273 39.6704L146.233 39.9069C146.091 39.9238 146.006 39.9306 145.986 39.9306C145.878 39.9306 145.821 39.9475 145.807 39.9812C145.794 40.0117 145.787 40.1333 145.783 40.3428C145.783 40.6131 145.777 40.8159 145.767 40.9544L145.777 40.951Z" fill="#00275F"/>
<path d="M150.963 39.8968L150.92 39.667C151.217 39.6906 151.437 39.7008 151.572 39.7008H151.747H152.018C152.322 39.7008 152.538 39.6906 152.663 39.667L152.619 39.8968L152.373 39.9204C152.264 39.9204 152.204 39.9373 152.193 39.9745C152.183 40.0083 152.177 40.1975 152.17 40.5388L152.163 40.7618L152.153 41.0423C152.153 41.7722 152.17 42.1607 152.204 42.2081C152.335 42.2385 152.443 42.2587 152.521 42.2689C152.555 42.2723 152.589 42.279 152.626 42.2892V42.4885L152.396 42.4784C152.156 42.4649 151.977 42.4581 151.862 42.4581L150.947 42.4885V42.2892C150.984 42.279 151.018 42.2723 151.055 42.2689C151.19 42.252 151.295 42.2317 151.372 42.2081C151.399 42.0661 151.413 41.7789 151.413 41.3531V41.1132L151.393 40.7449C151.393 40.7111 151.396 40.6503 151.406 40.5624C150.713 41.3295 150.271 41.7924 150.082 41.9512C150.092 42.0628 150.109 42.1472 150.132 42.2114C150.264 42.2418 150.372 42.2621 150.45 42.2723C150.484 42.2756 150.517 42.2824 150.551 42.2925L150.558 42.4919L150.325 42.4818C150.082 42.4682 149.906 42.4615 149.791 42.4615L148.875 42.4919V42.2925C148.912 42.2824 148.946 42.2756 148.983 42.2723C149.115 42.2554 149.22 42.2351 149.301 42.2114C149.328 42.0695 149.341 41.9175 149.341 41.762V41.218V40.7213V40.5388L149.335 40.3192C149.335 40.1164 149.325 40.0015 149.311 39.9677C149.298 39.9373 149.237 39.9204 149.132 39.917C149.088 39.917 149.007 39.9103 148.892 39.9001L148.848 39.6704C149.146 39.6906 149.365 39.7008 149.5 39.7008H149.676H149.946C150.25 39.7008 150.467 39.6906 150.588 39.6704L150.548 39.9001L150.301 39.9238C150.19 39.9238 150.129 39.9407 150.119 39.9779C150.109 40.0117 150.102 40.2009 150.098 40.5422L150.088 40.7483L150.078 40.9916V41.6404L150.696 40.9646C150.876 40.7584 151.024 40.5929 151.149 40.4678C151.271 40.3462 151.352 40.255 151.393 40.1975C151.396 40.1367 151.399 40.0961 151.399 40.0725C151.399 39.9745 151.332 39.9204 151.203 39.9137C151.136 39.9137 151.055 39.9069 150.963 39.8968Z" fill="#00275F"/>
<path d="M155.269 39.8965L155.225 39.6668C155.522 39.6904 155.742 39.7006 155.877 39.7006H156.053H156.323C156.627 39.7006 156.843 39.6904 156.968 39.6668L156.924 39.8965L156.678 39.9202C156.57 39.9202 156.509 39.9371 156.499 39.9743C156.488 40.0081 156.482 40.1973 156.475 40.5386L156.468 40.7616L156.458 41.0421C156.458 41.7719 156.475 42.1605 156.509 42.2078C156.641 42.2382 156.749 42.2585 156.826 42.2687C156.86 42.272 156.894 42.2788 156.931 42.2889V42.4883L156.701 42.4782C156.461 42.4646 156.282 42.4579 156.167 42.4579L155.252 42.4883V42.2889C155.289 42.2788 155.323 42.272 155.36 42.2687C155.495 42.2518 155.6 42.2315 155.677 42.2078C155.705 42.0659 155.718 41.7787 155.718 41.3529V41.113L155.698 40.7447C155.698 40.7109 155.701 40.6501 155.711 40.5622C155.019 41.3293 154.576 41.7922 154.387 41.951C154.397 42.0625 154.414 42.147 154.437 42.2112C154.569 42.2416 154.677 42.2619 154.755 42.272C154.789 42.2754 154.823 42.2822 154.856 42.2923L154.863 42.4917L154.63 42.4815C154.387 42.468 154.211 42.4613 154.096 42.4613L153.18 42.4917V42.2923C153.218 42.2822 153.251 42.2754 153.288 42.272C153.42 42.2551 153.525 42.2349 153.606 42.2112C153.633 42.0693 153.647 41.9172 153.647 41.7618V41.2178V40.721V40.5386L153.64 40.3189C153.64 40.1162 153.63 40.0013 153.616 39.9675C153.603 39.9371 153.542 39.9202 153.437 39.9168C153.393 39.9168 153.312 39.9101 153.197 39.8999L153.153 39.6702C153.451 39.6904 153.67 39.7006 153.805 39.7006H153.981H154.252C154.556 39.7006 154.772 39.6904 154.894 39.6702L154.853 39.8999L154.606 39.9236C154.495 39.9236 154.434 39.9405 154.424 39.9776C154.414 40.0114 154.407 40.2007 154.404 40.542L154.393 40.7481L154.383 40.9914V41.6402L155.002 40.9643C155.181 40.7582 155.329 40.5926 155.454 40.4676C155.576 40.346 155.657 40.2547 155.698 40.1973C155.701 40.1365 155.705 40.0959 155.705 40.0723C155.705 39.9743 155.637 39.9202 155.509 39.9134C155.441 39.9134 155.36 39.9067 155.269 39.8965ZM153.944 38.5044C153.944 38.4098 153.978 38.3287 154.045 38.2645C154.113 38.2003 154.194 38.1665 154.292 38.1665C154.373 38.1665 154.441 38.1867 154.495 38.2307C154.549 38.2746 154.62 38.376 154.708 38.5348C154.829 38.751 154.961 38.8592 155.106 38.8592C155.252 38.8592 155.384 38.751 155.502 38.5348C155.579 38.3929 155.647 38.2982 155.705 38.2442C155.762 38.1901 155.836 38.1631 155.928 38.1631C156.019 38.1631 156.1 38.1969 156.164 38.2645C156.228 38.332 156.262 38.4098 156.262 38.5044C156.262 38.6868 156.151 38.8288 155.924 38.9234C155.701 39.0214 155.431 39.0687 155.12 39.0687C154.755 39.0687 154.468 39.018 154.258 38.9132C154.049 38.8085 153.944 38.6733 153.944 38.5044Z" fill="#00275F"/>
<path d="M62.2764 47.6559V47.4261L62.2662 46.8347C62.2662 46.5712 62.2527 46.409 62.2223 46.3482C62.1513 46.2975 62.0635 46.2738 61.9689 46.2738C61.9148 46.2738 61.8641 46.2704 61.8168 46.2603C61.8134 46.2029 61.81 46.1589 61.81 46.1353C61.81 46.1184 61.81 46.0947 61.8134 46.0711C62.175 46.0373 62.5095 45.919 62.8102 45.7129H62.9049C62.9251 45.7129 62.9555 45.7129 62.9927 45.7129V45.892L62.986 46.605L63.0096 47.6525C63.2968 47.4835 63.5807 47.4024 63.8578 47.4024C64.2261 47.4024 64.5336 47.5308 64.7769 47.7843C65.0202 48.0411 65.1452 48.3925 65.1452 48.8419C65.1452 49.2913 65.0202 49.6123 64.7701 49.8692C64.5201 50.126 64.199 50.2544 63.8104 50.2544C63.4962 50.2544 63.2259 50.1665 62.9995 49.9908L63.013 50.5923C63.013 50.9978 63.013 51.2512 63.0231 51.3559C63.0299 51.4607 63.0502 51.5317 63.084 51.5688C63.1177 51.606 63.1921 51.6398 63.307 51.6601L63.3678 51.677C63.432 51.6938 63.4894 51.704 63.5435 51.7107C63.5638 51.731 63.5739 51.7648 63.5739 51.8087C63.5739 51.8324 63.5739 51.8696 63.5739 51.9169C63.3813 51.9169 63.1988 51.9067 63.0265 51.8865L62.7258 51.8662H62.4825L62.3642 51.8729L62.1817 51.8831C62.1142 51.8831 62.0398 51.8898 61.9621 51.9C61.8776 51.9101 61.8168 51.9135 61.783 51.9135C61.7796 51.9135 61.7627 51.9135 61.7391 51.9135V51.7614C61.783 51.7243 61.8709 51.6871 61.9993 51.6465C62.1479 51.5992 62.2358 51.5452 62.2628 51.4877C62.2899 51.4303 62.3034 51.3053 62.3034 51.1093V50.0111L62.2966 49.9908C62.0669 50.1665 61.7999 50.2544 61.4924 50.2544C61.0768 50.2544 60.7524 50.1091 60.5125 49.8185C60.2726 49.5279 60.1543 49.1866 60.1543 48.798C60.1543 48.4094 60.2759 48.0512 60.5192 47.791C60.7625 47.5308 61.0666 47.399 61.4383 47.399C61.7154 47.399 61.9959 47.4835 62.2865 47.6491L62.2764 47.6559ZM62.2696 49.1832C62.2595 48.9602 62.2561 48.7642 62.2561 48.5952L62.2628 48.3519C62.2628 48.1391 62.202 47.9735 62.0804 47.8552C61.9587 47.737 61.8033 47.6761 61.6174 47.6761C61.1545 47.6761 60.9247 48.0715 60.9247 48.8588C60.9247 49.2373 60.9957 49.5211 61.141 49.7137C61.2863 49.9063 61.4485 50.0009 61.6309 50.0009C61.7729 50.0009 61.9148 49.9401 62.05 49.8185C62.1851 49.6968 62.2595 49.4873 62.2696 49.1866V49.1832ZM63.0096 49.1832C63.0096 49.4468 63.0704 49.6461 63.2022 49.7881C63.334 49.93 63.4861 49.9976 63.6618 49.9976C63.8375 49.9976 63.9963 49.9097 64.1416 49.7306C64.2903 49.5515 64.3646 49.2508 64.3646 48.8284C64.3646 48.4871 64.3072 48.21 64.1957 47.9938C64.0842 47.7809 63.9084 47.6728 63.6685 47.6728C63.4759 47.6728 63.3205 47.7336 63.1988 47.8586C63.0806 47.9803 63.0198 48.1492 63.0164 48.3587L63.0096 49.1798V49.1832Z" fill="#00275F"/>
<path d="M68.6219 47.7169C68.7672 47.8588 68.8753 48.0176 68.9463 48.2001C69.0173 48.3825 69.0544 48.5549 69.0544 48.7137C69.0544 49.0178 69.0071 49.2611 68.9159 49.4469C68.774 49.7274 68.5847 49.9335 68.3482 50.0687C68.1117 50.2039 67.8346 50.2681 67.5203 50.2681C67.1655 50.2681 66.8682 50.1903 66.6215 50.0315C66.3748 49.8727 66.1991 49.6936 66.0944 49.4909C65.9896 49.2881 65.9355 49.0381 65.9355 48.7407C65.9355 48.5887 65.9592 48.4366 66.0099 48.2845C66.0606 48.1325 66.1282 47.9973 66.216 47.8858C66.3039 47.7743 66.3985 47.6763 66.5032 47.602C66.6553 47.4938 66.8073 47.4161 66.9594 47.3688C67.1115 47.3215 67.2973 47.2979 67.5136 47.2979C67.9866 47.2979 68.355 47.4364 68.6219 47.7169ZM66.7668 48.8894C66.7871 49.1699 66.8006 49.3321 66.8107 49.376C66.8411 49.528 66.8851 49.6598 66.9493 49.768C66.9932 49.8389 67.0642 49.8997 67.1621 49.9538C67.2601 50.0079 67.3818 50.0349 67.517 50.0349C67.6825 50.0349 67.8211 49.9808 67.936 49.8761C68.0508 49.7713 68.1319 49.6058 68.1793 49.3827C68.2097 49.2341 68.2266 48.9941 68.2266 48.6596C68.2266 48.2474 68.159 47.9568 68.0238 47.7844C67.8886 47.6121 67.7096 47.5276 67.4865 47.5276C67.3108 47.5276 67.1689 47.5749 67.054 47.6729C66.9391 47.7709 66.8614 47.9128 66.8141 48.1054C66.7837 48.2271 66.7668 48.4907 66.7634 48.8894H66.7668Z" fill="#00275F"/>
<path d="M70.9167 48.6952L71.0417 48.7053L71.5182 48.6986L71.6466 48.7053L71.8763 48.7121C71.9676 48.7121 72.0892 48.7121 72.2413 48.7019V48.3133C72.2413 47.989 72.2413 47.7997 72.2311 47.749C72.2244 47.6984 72.1568 47.6713 72.0352 47.6679C71.9845 47.6679 71.9034 47.6578 71.7952 47.6477L71.7513 47.4111C72.0521 47.4314 72.2683 47.4415 72.4035 47.4415H72.5792H72.8495C73.1536 47.4415 73.3699 47.4314 73.4949 47.4111L73.451 47.6477C73.3091 47.6646 73.2246 47.6713 73.2043 47.6713C73.0996 47.6713 73.0421 47.6882 73.0286 47.722C73.0151 47.7524 73.0083 47.8741 73.005 48.0836L72.9948 48.5026L72.9847 49.1108C72.9847 49.594 73.0016 49.8711 73.0354 49.9421C73.1773 49.9759 73.282 49.9961 73.353 50.0063C73.3902 50.0096 73.424 50.0164 73.4577 50.0265V50.2327L73.0556 50.2124C72.9272 50.2056 72.809 50.2022 72.6907 50.2022L72.194 50.2191L71.7716 50.2327V50.0265C71.8054 50.0164 71.8426 50.0096 71.8797 50.0063C72.0081 49.9894 72.1129 49.9691 72.1974 49.9421C72.2379 49.7123 72.2582 49.4487 72.2582 49.148L72.2514 48.9554C72.1061 48.9621 71.9676 48.9655 71.829 48.9655C71.6297 48.9655 71.4844 48.9655 71.3864 48.9587L71.0992 48.952C71.0417 48.952 70.9775 48.952 70.9133 48.9621V49.1311L70.9099 49.6143C70.9099 49.7359 70.9234 49.8474 70.9539 49.9421C71.0958 49.9759 71.2005 49.9961 71.2715 50.0063C71.3087 50.0096 71.3424 50.0164 71.3729 50.0265L71.3796 50.2327L70.9741 50.2124C70.8457 50.2056 70.7275 50.2022 70.6092 50.2022L70.1125 50.2191L69.6901 50.2327V50.0265C69.7239 50.0164 69.761 50.0096 69.7982 50.0063C69.9232 49.9894 70.028 49.9691 70.1158 49.9421C70.1463 49.79 70.1632 49.5129 70.1632 49.1108L70.1496 48.1613C70.1463 47.8842 70.1327 47.7321 70.1125 47.7085C70.0922 47.6848 70.0347 47.6713 69.9435 47.6713C69.8928 47.6713 69.8117 47.6612 69.7036 47.651L69.6597 47.4145C69.9604 47.4348 70.1767 47.4449 70.3118 47.4449H70.4875H70.7579C71.062 47.4449 71.2782 47.4348 71.3999 47.4145L71.3593 47.651C71.2174 47.6679 71.1329 47.6747 71.1127 47.6747C71.0079 47.6747 70.9471 47.6916 70.9336 47.7254C70.9201 47.7558 70.9133 47.8774 70.9099 48.0869C70.9099 48.3573 70.9032 48.56 70.893 48.6986L70.9167 48.6952Z" fill="#00275F"/>
<path d="M77.2658 51.0178C77.2151 51.0245 77.1813 51.0279 77.161 51.0279H77.1205C77.0901 50.9738 77.0563 50.9029 77.0225 50.815C76.911 50.5413 76.7995 50.3656 76.688 50.2879C76.5765 50.2102 76.3602 50.173 76.0459 50.173H75.5729L74.8464 50.1629C74.6639 50.1629 74.5456 50.173 74.4916 50.1899C74.4375 50.2102 74.3868 50.2575 74.3395 50.3318C74.2922 50.4061 74.2314 50.5515 74.1604 50.7677C74.1165 50.8961 74.0895 50.9705 74.0793 50.9873C74.0692 50.9873 74.0489 50.9873 74.0219 50.9873C73.978 50.9907 73.9543 50.9941 73.9442 50.9941C73.934 50.9941 73.9138 50.9941 73.8867 50.9941C73.907 50.8522 73.9205 50.7373 73.9273 50.6528C73.9543 50.3115 73.9881 50.0818 74.032 49.9669C74.059 49.9567 74.0928 49.9466 74.1368 49.9432C74.201 49.9398 74.2618 49.9297 74.3226 49.9162C74.5254 49.5107 74.7889 48.8788 75.1167 48.0205L75.289 47.5677L75.3938 47.3008H75.6675C75.6945 47.365 75.8905 47.7975 76.2588 48.5916C76.6271 49.3857 76.8333 49.8114 76.8772 49.8689C76.9211 49.9263 76.9887 49.9703 77.0833 50.0074C77.1408 50.0311 77.1779 50.0615 77.1948 50.1054C77.2117 50.1493 77.2219 50.2946 77.2286 50.5447L77.2624 51.0178H77.2658ZM76.0257 49.8959C75.9817 49.7641 75.9277 49.6256 75.8702 49.4735L75.6134 48.7808C75.4715 48.3888 75.387 48.1624 75.36 48.1016L74.6707 49.8993C74.9545 49.9196 75.2383 49.9297 75.5188 49.9297C75.6776 49.9297 75.8466 49.9162 76.029 49.8925L76.0257 49.8959Z" fill="#00275F"/>
<path fill-rule="evenodd" clip-rule="evenodd" d="M21.0483 35.6362C28.1951 54.7381 46.1379 45.8174 46.1379 30.6318C41.1133 35.8424 29.8035 39.0221 21.0483 35.6362Z" fill="#FFBF00"/>
<path fill-rule="evenodd" clip-rule="evenodd" d="M133.227 22.4198L129.419 26.5828V22.4198H126.306V31.8103H128.199L131.973 27.5932V31.8103H135.085V22.4198H133.223H133.227ZM120.434 22.4198V25.657H117.859V22.4198H114.642V31.8103H117.859V28.5022H120.434V31.8103H123.65V22.4198H120.434ZM108.772 31.8103H112.006V22.4198H108.772V31.8103ZM100.943 29.2557C99.7334 29.2557 98.8379 28.3433 98.8379 27.1134C98.8379 25.8834 99.7232 24.9778 100.943 24.9778C102.163 24.9778 103.048 25.8935 103.048 27.1134C103.048 28.3332 102.156 29.2557 100.943 29.2557ZM103.711 22.4131L103.379 23.1362C102.606 22.4975 101.619 22.1292 100.511 22.1292C97.6384 22.1292 95.5873 24.1972 95.5873 27.1066C95.5873 30.016 97.6384 32.1178 100.511 32.1178C101.599 32.1178 102.575 31.7596 103.346 31.1345L103.619 31.7967H106.116V22.4097H103.707L103.711 22.4131ZM88.6838 29.2658C87.4741 29.2658 86.5787 28.3501 86.5787 27.1167C86.5787 25.8834 87.4707 24.9676 88.6838 24.9676C89.8969 24.9676 90.789 25.8834 90.789 27.1167C90.789 28.3501 89.8901 29.2658 88.6838 29.2658ZM89.1163 22.1123C88.0012 22.1123 87.0078 22.4975 86.2374 23.1632L85.8319 22.4198H83.6321V35.1995H86.8287V31.5028C87.491 31.9015 88.2682 32.1245 89.1163 32.1245C91.9886 32.1245 94.0396 30.0396 94.0396 27.1134C94.0396 24.1871 91.9886 22.1123 89.1163 22.1123ZM82.1926 31.8103L78.9656 26.914L81.8986 22.4232H78.2864L76.0326 26.1064V22.4232H72.7988V31.8136H76.0326V27.8399L78.3945 31.8136H82.196L82.1926 31.8103ZM68.2911 19.6388L66.5137 24.6635L64.216 19.6388H60.3672L64.7769 28.0865C64.395 28.6407 63.8713 28.8367 62.9758 28.8367H62.1074V31.8778H63.1887C65.8582 31.8778 67.3078 30.7898 68.5378 27.8196L71.9101 19.6355H68.2877L68.2911 19.6388ZM109.898 18H106.664V21.2338H109.898V18ZM114.25 18H111.016V21.2338H114.25V18Z" fill="#00275F"/>
<path d="M69.399 7.1811C70.0133 7.47597 70.4925 7.89985 70.8365 8.45273C71.1928 9.00562 71.371 9.63222 71.371 10.3325C71.371 11.3769 70.9717 12.2492 70.1731 12.9495C69.3745 13.6498 68.3793 14 67.1875 14H61.2532V1.09938H67.0769C67.8264 1.09938 68.5021 1.24067 69.1042 1.52325C69.7062 1.80584 70.1792 2.199 70.5232 2.70274C70.8672 3.20648 71.0392 3.77165 71.0392 4.39825C71.0392 4.96342 70.8918 5.49787 70.5969 6.00161C70.3021 6.49307 69.9028 6.88623 69.399 7.1811ZM67.6667 4.98799C67.6667 4.65626 67.5561 4.38596 67.3349 4.1771C67.1138 3.96823 66.8189 3.8638 66.4503 3.8638H64.6627V6.11219H66.4503C66.696 6.11219 66.911 6.06919 67.0953 5.98318C67.2796 5.88489 67.4209 5.74974 67.5192 5.57774C67.6175 5.40573 67.6667 5.20915 67.6667 4.98799ZM66.5977 11.0881C66.9786 11.0881 67.2858 10.9776 67.5192 10.7564C67.7527 10.5353 67.8694 10.2527 67.8694 9.90866C67.8694 9.56464 67.7527 9.28206 67.5192 9.0609C67.2858 8.83975 66.9786 8.72917 66.5977 8.72917H64.6627V11.0881H66.5977ZM73.1101 2.79489V-0.0985396H76.4827V2.79489H73.1101ZM73.0917 14V4.04809H76.5196V14H73.0917ZM88.2727 10.9776H89.5259V16.3221H86.5772V14H80.864V16.3221H77.9337V10.9776H79.0395C79.3589 10.6458 79.5985 10.0315 79.7583 9.13462C79.918 8.22543 80.1146 6.52992 80.348 4.04809H88.2727V10.9776ZM83.2414 6.92309C83.0817 8.93804 82.793 10.2895 82.3752 10.9776H85.0844V6.92309H83.2414ZM97.3702 4.04809H100.78V14H97.3702V10.4984H94.6426V14H91.2332V4.04809H94.6426V7.47597H97.3702V4.04809ZM107.944 14.3317C106.322 14.3317 104.983 13.8341 103.926 12.8389C102.882 11.8315 102.36 10.5598 102.36 9.02404C102.36 7.47597 102.882 6.20434 103.926 5.20915C104.983 4.21395 106.322 3.71636 107.944 3.71636C109.566 3.71636 110.899 4.2201 111.943 5.22758C113 6.22277 113.528 7.48826 113.528 9.02404C113.528 10.5598 113 11.8315 111.943 12.8389C110.887 13.8341 109.553 14.3317 107.944 14.3317ZM106.396 10.6274C106.801 11.0451 107.317 11.254 107.944 11.254C108.571 11.254 109.08 11.0451 109.474 10.6274C109.879 10.2097 110.082 9.67522 110.082 9.02404C110.082 8.37287 109.879 7.83842 109.474 7.42068C109.08 7.00295 108.571 6.79408 107.944 6.79408C107.526 6.79408 107.151 6.89237 106.82 7.08895C106.5 7.27325 106.248 7.5374 106.064 7.88142C105.88 8.21315 105.788 8.59402 105.788 9.02404C105.788 9.67522 105.99 10.2097 106.396 10.6274ZM122.525 8.72917C123.041 8.92575 123.44 9.23291 123.722 9.65065C124.017 10.0684 124.165 10.5598 124.165 11.125C124.165 11.9605 123.864 12.6485 123.262 13.1891C122.66 13.7297 121.88 14 120.921 14H115.116V4.04809H120.847C121.732 4.04809 122.451 4.28153 123.004 4.74841C123.569 5.21529 123.851 5.81732 123.851 6.5545C123.851 7.03366 123.735 7.46368 123.501 7.84456C123.268 8.21315 122.942 8.50802 122.525 8.72917ZM120.718 7.05209C120.718 6.80637 120.639 6.60979 120.479 6.46235C120.319 6.30263 120.098 6.22277 119.815 6.22277H118.304V7.89985H119.815C120.098 7.89985 120.319 7.81999 120.479 7.66026C120.639 7.50054 120.718 7.29782 120.718 7.05209ZM119.926 11.6963C120.221 11.6963 120.454 11.6226 120.626 11.4752C120.798 11.3154 120.884 11.0943 120.884 10.8117C120.884 10.5414 120.798 10.3264 120.626 10.1667C120.467 10.0069 120.233 9.92709 119.926 9.92709H118.304V11.6963H119.926ZM127.613 4.04809H135.372V14H131.999V6.92309H130.451L130.175 9.74279C130.015 11.2417 129.585 12.3352 128.885 13.0232C128.197 13.699 127.207 14.0369 125.917 14.0369H125.014V11.2172H125.457C125.924 11.2172 126.274 11.0943 126.507 10.8486C126.753 10.6028 126.906 10.2035 126.968 9.65065L127.613 4.04809ZM147.788 8.9319C147.788 9.21448 147.763 9.5155 147.714 9.83494H140.324C140.434 10.4001 140.662 10.8301 141.006 11.125C141.362 11.4199 141.81 11.5673 142.351 11.5673C142.621 11.5673 142.873 11.5305 143.107 11.4567C143.34 11.383 143.543 11.2786 143.715 11.1434C143.899 10.996 144.046 10.824 144.157 10.6274H147.566C147.222 11.77 146.577 12.6731 145.631 13.3365C144.698 14 143.604 14.3317 142.351 14.3317C140.803 14.3317 139.513 13.828 138.481 12.8205C137.461 11.8008 136.951 10.5353 136.951 9.02404C136.951 8.01657 137.185 7.10738 137.651 6.29648C138.118 5.48559 138.763 4.85284 139.586 4.39825C140.41 3.94366 141.331 3.71636 142.351 3.71636C143.408 3.71636 144.347 3.9498 145.171 4.41668C146.006 4.87127 146.651 5.49787 147.106 6.29648C147.56 7.08281 147.788 7.96128 147.788 8.9319ZM142.351 6.40706C141.859 6.40706 141.442 6.54221 141.098 6.81251C140.766 7.07052 140.526 7.44525 140.379 7.93671H144.415C144.108 6.91694 143.42 6.40706 142.351 6.40706ZM155.484 4.04809H158.894V14H155.484V10.4984H152.757V14H149.347V4.04809H152.757V7.47597H155.484V4.04809ZM167.201 4.04809H170.61V14H167.201V10.4984H164.473V14H161.064V4.04809H164.473V7.47597H167.201V4.04809ZM175.95 4.04809H181.442V14H178.29V10.7933H177.185L175.6 14H171.951L174.125 10.2035C173.597 9.92095 173.185 9.54007 172.891 9.0609C172.596 8.56945 172.448 8.02271 172.448 7.42068C172.448 6.43778 172.774 5.63302 173.425 5.00642C174.088 4.36753 174.93 4.04809 175.95 4.04809ZM176.871 8.48959H178.29V6.44392H176.871C176.65 6.44392 176.454 6.48692 176.282 6.57293C176.122 6.65893 175.999 6.78179 175.913 6.94152C175.839 7.08895 175.802 7.2671 175.802 7.47597C175.802 7.78313 175.895 8.02885 176.079 8.21315C176.275 8.39744 176.54 8.48959 176.871 8.48959Z" fill="#00275F"/>
</g>
<defs>
<clipPath id="clip0_52_4887">
<rect width="181" height="51.9194" fill="white"/>
</clipPath>
</defs>
</svg>
