<svg width="182" height="53" viewBox="0 0 182 53" fill="none" xmlns="http://www.w3.org/2000/svg">
<path fill-rule="evenodd" clip-rule="evenodd" d="M29.1411 50.1662C19.183 45.8816 17.4529 39.8195 17.7536 30.5507C17.7604 30.2939 17.9226 23.0796 18.0442 17.6258C18.1997 10.5973 19.5141 2.38953 7.97461 1.31836H0V30.7298H0.0236535C0.65554 45.6788 15.1923 53.0486 29.1411 50.1662Z" fill="white"/>
<path fill-rule="evenodd" clip-rule="evenodd" d="M27.4112 17.2206C27.6072 26.3036 25.7318 31.0275 22.9238 32.9063C36.8388 33.9943 45.5501 32.2203 45.8137 18.4337L46.1381 1.47754H36.7746C28.1276 1.47754 27.418 7.46525 27.4112 17.2206Z" fill="#00CFCC"/>
<path d="M60.1372 42.5704L60.144 42.3C60.198 42.2865 60.2622 42.273 60.34 42.2629C60.4886 42.2426 60.6069 42.2122 60.6981 42.175C60.7285 42.1243 60.7488 42.0736 60.759 42.0263C60.7759 41.8979 60.786 41.7121 60.786 41.4654L60.7792 40.0225C60.7792 39.8739 60.7725 39.4819 60.7556 38.85C60.7522 38.681 60.7387 38.5763 60.7218 38.5357C60.715 38.5222 60.7049 38.5121 60.688 38.502C60.6508 38.4783 60.5832 38.4614 60.4853 38.458C60.4413 38.458 60.3298 38.4445 60.1541 38.4209L60.144 38.1809L60.9043 38.164L62.016 38.1269H62.1478C62.1748 38.1201 62.2018 38.1201 62.2289 38.1201C62.2525 38.1201 62.31 38.1201 62.4079 38.1201H62.6242C62.7965 38.1201 62.9824 38.1438 63.1851 38.1978C63.2561 38.2147 63.3473 38.2553 63.4622 38.3127C63.5771 38.3702 63.6785 38.4445 63.763 38.5324C63.8474 38.6202 63.9116 38.7216 63.9522 38.8331C63.9927 38.9446 64.013 39.0629 64.013 39.1845C64.013 39.3231 63.9826 39.4481 63.9218 39.5562C63.8609 39.6677 63.7663 39.7657 63.6447 39.8603C63.5805 39.9043 63.4352 39.9786 63.2054 40.0834C63.5467 40.1611 63.8069 40.2996 63.986 40.5057C64.1651 40.7119 64.2529 40.9383 64.2529 41.1883C64.2529 41.337 64.2259 41.4924 64.1684 41.658C64.1279 41.7797 64.0603 41.8945 63.9623 41.9959C63.8339 42.1345 63.6954 42.2392 63.5534 42.3068C63.4081 42.3778 63.2122 42.4352 62.9587 42.4791C62.8303 42.5028 62.6411 42.5129 62.3809 42.5129L61.8031 42.4994C61.5598 42.4994 61.2692 42.5095 60.9313 42.5332C60.8367 42.5366 60.5731 42.5467 60.1372 42.5636V42.5704ZM61.7186 39.9921C61.8098 40.0056 61.9146 40.0124 62.0362 40.0124C62.3742 40.0124 62.631 39.9482 62.8067 39.8232C62.9824 39.6981 63.0669 39.4819 63.0669 39.1744C63.0669 38.9581 62.9858 38.7757 62.8202 38.6304C62.6546 38.4851 62.4046 38.4141 62.0734 38.4141C61.9788 38.4141 61.8504 38.4276 61.6916 38.4513C61.6916 38.502 61.6916 38.5797 61.6983 38.6743C61.7085 38.8669 61.7152 39.1372 61.7152 39.4819V39.7657C61.7152 39.8164 61.7152 39.8908 61.7152 39.9887L61.7186 39.9921ZM61.7592 42.1547C61.9078 42.2156 62.043 42.246 62.1714 42.246C62.4282 42.246 62.6411 42.2054 62.8033 42.1277C62.9655 42.05 63.0838 41.9419 63.1615 41.7999C63.2358 41.658 63.273 41.4857 63.273 41.2728C63.273 41.0599 63.2324 40.8808 63.1513 40.749C63.0398 40.5666 62.9013 40.4449 62.7391 40.3841C62.5769 40.3233 62.337 40.2895 62.016 40.2895C61.874 40.2895 61.7761 40.2996 61.722 40.3199V41.239L61.7287 42.0196C61.7287 42.0567 61.7423 42.1007 61.7625 42.148L61.7592 42.1547Z" fill="white"/>
<path d="M67.784 41.6579C67.8212 41.6782 67.8482 41.6917 67.8651 41.6985C67.9158 41.7221 67.9598 41.7492 67.9902 41.783C67.9293 42.0094 67.7807 42.2053 67.5441 42.3709C67.3076 42.5365 67.0102 42.6176 66.652 42.6176C66.4256 42.6176 66.2026 42.5703 65.9796 42.4757C65.7566 42.3811 65.5809 42.256 65.4491 42.0972C65.3477 41.9756 65.27 41.8303 65.2193 41.6546C65.1686 41.4788 65.1416 41.3335 65.1416 41.2085C65.1416 41.0632 65.172 40.8943 65.2362 40.7084C65.3004 40.5226 65.4052 40.3469 65.5538 40.1813C65.7025 40.0157 65.8918 39.8839 66.1182 39.7859C66.3446 39.6879 66.6014 39.6406 66.8886 39.6406C67.2806 39.6406 67.5543 39.7014 67.7063 39.8231C67.8584 39.9447 67.9361 40.0664 67.9361 40.188C67.9361 40.3097 67.9057 40.4009 67.8415 40.4719C67.7773 40.5428 67.6928 40.5766 67.5847 40.5766C67.4934 40.5766 67.4056 40.5462 67.3279 40.4854C67.2501 40.4246 67.1859 40.3198 67.1319 40.1779C67.0913 40.0731 67.0406 39.9988 66.9764 39.9515C66.9122 39.9076 66.8379 39.8839 66.75 39.8839C66.5372 39.8839 66.3479 39.9752 66.179 40.1576C66.01 40.3401 65.9289 40.5868 65.9289 40.9044C65.9289 41.2829 66.0303 41.5836 66.2364 41.8066C66.4425 42.0296 66.6723 42.1411 66.9325 42.1411C67.0609 42.1411 67.1724 42.1276 67.2603 42.0972C67.3177 42.0769 67.3954 42.033 67.4901 41.9654C67.5137 41.9485 67.561 41.8978 67.632 41.8201C67.7029 41.7424 67.7469 41.6883 67.7739 41.6613L67.784 41.6579Z" fill="white"/>
<path d="M68.7065 40.7428C68.764 40.5502 68.818 40.4218 68.862 40.3576C68.9904 40.1717 69.1255 40.0264 69.2675 39.9217C69.4094 39.8169 69.5412 39.7494 69.656 39.7156C69.8047 39.6716 69.9264 39.6514 70.0176 39.6514C70.2305 39.6514 70.4028 39.6683 70.5346 39.7021C70.6664 39.7358 70.7745 39.7832 70.8624 39.844C70.9908 39.9318 71.0922 40.0197 71.1665 40.1109C71.2442 40.2022 71.305 40.3069 71.3557 40.4286C71.403 40.5502 71.4301 40.6989 71.4368 40.8712L71.0584 40.8645C70.9536 40.8645 70.7272 40.8543 70.3724 40.834C70.2406 40.8239 70.1494 40.8171 70.1021 40.8171C70.0852 40.8171 69.9635 40.8171 69.7371 40.8239H69.4465C69.4432 40.8543 69.4398 40.8813 69.4398 40.905C69.4398 41.0266 69.4533 41.1517 69.4837 41.2835C69.5141 41.4152 69.5581 41.5335 69.6155 41.6349C69.6729 41.7363 69.7473 41.8241 69.8351 41.8951C69.923 41.966 70.0108 42.0201 70.1055 42.0505L70.3014 42.1147C70.4772 42.1147 70.592 42.108 70.6529 42.0978C70.761 42.0742 70.8556 42.0471 70.9401 42.01C71.0212 41.9762 71.1226 41.9153 71.2408 41.8309C71.3219 41.8883 71.3895 41.9424 71.4436 41.9897C71.2442 42.2093 71.0381 42.3681 70.8252 42.4661C70.6123 42.5641 70.3724 42.6148 70.1088 42.6148C69.9297 42.6148 69.7844 42.5979 69.6696 42.5675C69.5175 42.527 69.3823 42.4628 69.2573 42.3817C69.1323 42.3006 69.0309 42.1924 68.9431 42.0708C68.8552 41.9458 68.7876 41.8174 68.7471 41.6856C68.6896 41.5132 68.6626 41.3747 68.6626 41.2699C68.6626 41.074 68.6795 40.8949 68.7099 40.736L68.7065 40.7428ZM70.6799 40.5975C70.6799 40.4691 70.6529 40.3475 70.6056 40.2326C70.5583 40.1177 70.4839 40.0264 70.3859 39.9622C70.2879 39.898 70.1866 39.8642 70.0852 39.8642C69.9331 39.8642 69.798 39.9318 69.6729 40.0636C69.5479 40.1954 69.4803 40.3779 69.4668 40.6076L70.2406 40.6144C70.2913 40.6144 70.3589 40.611 70.4501 40.6043C70.5143 40.5975 70.5616 40.5941 70.5887 40.5941C70.6089 40.5941 70.6394 40.5941 70.6799 40.5941V40.5975Z" fill="white"/>
<path d="M71.9033 39.8068C71.981 39.7933 72.0486 39.7865 72.0993 39.7865C72.1263 39.7865 72.1568 39.7865 72.1905 39.7899C72.3967 39.8034 72.5656 39.8102 72.694 39.8102H72.8697L73.3529 39.7797C73.3698 39.7933 73.3867 39.8068 73.4003 39.8237C73.3935 39.9217 73.3867 39.9859 73.3834 40.0129C73.3496 40.0197 73.3225 40.023 73.3056 40.0264C73.255 40.0332 73.2144 40.0399 73.1908 40.0467C73.1671 40.0535 73.1401 40.0568 73.1097 40.0602C73.0759 40.0703 73.0556 40.0839 73.0522 40.1075C73.0657 40.1616 73.0792 40.2055 73.0928 40.2427L73.2549 40.5772C73.3834 40.8948 73.5151 41.1888 73.6537 41.4558L73.8429 41.8477C73.8564 41.8207 73.9443 41.5977 74.1031 41.1787C74.2957 40.682 74.4005 40.4015 74.414 40.3373C74.4241 40.3035 74.4275 40.2731 74.4275 40.2494C74.4275 40.2258 74.4207 40.1886 74.4072 40.1379C74.3565 40.1008 74.316 40.0805 74.2856 40.067C74.2552 40.0568 74.1808 40.0433 74.0659 40.0298L73.9578 40.0028L73.9477 39.9555C73.9477 39.9318 73.9477 39.9149 73.9477 39.9048C73.9477 39.8879 73.9477 39.8575 73.9578 39.8169C74.0254 39.8135 74.0761 39.8102 74.1031 39.8102L74.3768 39.8271L74.5593 39.8338C74.637 39.8338 74.7688 39.8237 74.9614 39.8C75.0796 39.7865 75.1675 39.7797 75.2249 39.7764C75.2283 39.8338 75.2317 39.8744 75.2317 39.9048C75.2317 39.9183 75.2317 39.9386 75.2283 39.9656C75.1878 39.9859 75.1439 40.0028 75.0932 40.0129C75.0121 40.0332 74.9411 40.0535 74.8803 40.0703C74.8465 40.0974 74.8262 40.121 74.8161 40.1379C74.7789 40.2224 74.6978 40.4116 74.5829 40.7022L74.3396 41.3578L73.772 42.7094L73.38 43.6082C73.2955 43.7806 73.1941 43.9292 73.0792 44.0543C73.0353 44.1016 72.988 44.1387 72.9306 44.1624C72.8393 44.1996 72.7312 44.2165 72.6163 44.2165C72.6062 44.2165 72.542 44.2097 72.4305 44.1928C72.3392 44.1692 72.2581 44.1219 72.1905 44.0475C72.1432 43.9934 72.1196 43.936 72.1196 43.8752C72.1196 43.7502 72.1736 43.6353 72.2784 43.5305C72.373 43.4731 72.444 43.4427 72.4879 43.4427C72.5893 43.4427 72.7075 43.4967 72.8427 43.6015C72.9069 43.6522 72.9576 43.6792 72.9948 43.6792C73.0319 43.6792 73.0623 43.6589 73.086 43.615C73.282 43.2332 73.4104 42.9595 73.4645 42.8006L72.8393 41.4186C72.6062 40.8644 72.4237 40.4758 72.3021 40.2528C72.2379 40.1413 72.1939 40.0737 72.1669 40.0535C72.1399 40.0332 72.0993 40.0163 72.0452 39.9994C72.0148 39.9926 71.981 39.9791 71.9439 39.9588C71.9337 39.9082 71.9236 39.8575 71.9135 39.8135L71.9033 39.8068Z" fill="white"/>
<path d="M77.3365 39.7696L77.2959 40.0028L77.0492 40.0298C76.9614 40.0298 76.9073 40.04 76.887 40.0602C76.8668 40.0805 76.8532 40.1413 76.8465 40.2359C76.8465 40.263 76.8465 40.3001 76.8397 40.3508C76.8228 40.5401 76.8161 40.655 76.8161 40.7023V41.0199C76.985 40.9726 77.1168 40.9118 77.2081 40.8374C77.2993 40.7631 77.4277 40.611 77.5966 40.3779C77.9481 39.8947 78.2894 39.6514 78.6205 39.6514C78.7827 39.6514 78.9077 39.6919 78.9956 39.773C79.0801 39.8541 79.124 39.9521 79.124 40.067C79.124 40.1515 79.0936 40.2258 79.0361 40.29C78.9787 40.3542 78.8976 40.388 78.7962 40.388C78.6847 40.388 78.5833 40.3339 78.4955 40.2258C78.438 40.1548 78.384 40.1211 78.3333 40.1211C78.2589 40.1211 78.1812 40.1515 78.1069 40.2123C78.0292 40.2731 77.921 40.3914 77.7825 40.5671C77.6676 40.7124 77.5797 40.8138 77.5223 40.8645C77.6439 40.9016 77.7656 40.976 77.8974 41.0841C78.0292 41.1922 78.2387 41.4423 78.5326 41.8376C78.6847 42.0404 78.7928 42.1654 78.8638 42.2127C78.9314 42.26 79.0598 42.3073 79.2422 42.3614V42.4729C79.2422 42.4898 79.2422 42.5168 79.2422 42.554C79.2152 42.554 79.1612 42.5506 79.0767 42.5405C78.9652 42.5303 78.8435 42.5236 78.7151 42.5236C78.5698 42.5236 78.3941 42.5303 78.1914 42.5472C78.1576 42.4965 78.0799 42.3918 77.9616 42.2397L77.6304 41.8005C77.4277 41.5268 77.2858 41.3578 77.1979 41.297C77.1101 41.2362 76.9817 41.2024 76.8093 41.2024V42.0911L76.8161 42.2161C76.8735 42.2634 76.9817 42.2972 77.1371 42.3141C77.1675 42.3175 77.1945 42.3242 77.2182 42.3276V42.4729C77.2182 42.4729 77.2182 42.5033 77.2148 42.527L77.1912 42.5371L76.8364 42.5236C76.6742 42.5134 76.5221 42.5067 76.3768 42.5067C76.2957 42.5067 76.1369 42.5168 75.9037 42.5371C75.8395 42.5371 75.7922 42.5371 75.755 42.5405C75.7044 42.5405 75.6604 42.5405 75.6165 42.5405C75.6064 42.5033 75.603 42.4695 75.603 42.4323C75.603 42.4087 75.603 42.3783 75.603 42.3411C75.6402 42.3208 75.6841 42.3073 75.728 42.3006C75.7719 42.2938 75.799 42.287 75.8125 42.2837L75.9409 42.2735C75.9848 42.2701 76.0186 42.26 76.0389 42.2499C76.0625 42.2296 76.0761 41.8951 76.0794 41.2463V41.1348L76.0862 40.78V40.3745C76.0862 40.2123 76.0828 40.1109 76.0659 40.0738C76.049 40.0366 75.9882 40.0163 75.8835 40.0129C75.8328 40.0129 75.7517 40.0062 75.6435 39.9927L75.5996 39.7595C75.9003 39.7798 76.1166 39.7899 76.2518 39.7899H76.4275H76.6978C77.0019 39.7899 77.2182 39.7798 77.3398 39.7595L77.3365 39.7696Z" fill="white"/>
<path d="M79.4521 44.2694V44.1173C79.4927 44.0936 79.5231 44.0767 79.54 44.0666L79.8002 43.972C79.9083 43.9281 79.9691 43.8943 79.9827 43.8706C80.0198 43.803 80.0333 43.6848 80.03 43.5124L80.0063 42.1608L79.9725 40.4814C79.9658 40.3598 79.9387 40.2719 79.8948 40.2212C79.8509 40.1705 79.7292 40.1165 79.5366 40.059V39.8833C79.7563 39.8394 79.9421 39.7887 80.0942 39.7245C80.2057 39.6806 80.3544 39.5927 80.547 39.4677L80.7193 39.4609V39.5556V39.9205C80.7193 39.934 80.7193 39.9678 80.7227 40.0219C80.9187 39.9036 81.0809 39.8225 81.2093 39.7853C81.3951 39.7313 81.6012 39.7042 81.8243 39.7042C82.0473 39.7042 82.2602 39.7617 82.4392 39.8799C82.4528 39.8901 82.473 39.9002 82.4967 39.9171C82.6082 39.9982 82.6927 40.0759 82.7434 40.1503C82.8549 40.3125 82.9393 40.4679 82.9867 40.6267C83.0238 40.745 83.0441 40.8903 83.0441 41.0694C83.0441 41.3059 83.0137 41.5053 82.9529 41.6675C82.892 41.8297 82.7873 41.9952 82.6386 42.1608C82.4899 42.3264 82.3277 42.4447 82.1588 42.5122C81.9865 42.5832 81.8074 42.617 81.6215 42.617C81.4357 42.617 81.3039 42.6069 81.2228 42.5832C81.0707 42.5393 80.922 42.4784 80.77 42.394C80.7632 42.4311 80.7598 42.4548 80.7598 42.4683L80.77 42.5595C80.77 42.5832 80.77 42.6136 80.77 42.6508C80.77 42.6677 80.77 42.7555 80.7632 42.9177L80.7767 43.5361C80.7767 43.5361 80.7767 43.5935 80.77 43.6713V43.7084C80.77 43.7929 80.7767 43.8537 80.7869 43.8909C80.797 43.9146 80.8173 43.9382 80.8477 43.9652C80.8714 43.9754 80.8916 43.9855 80.9119 43.9957C80.9829 44.0092 81.0437 44.0227 81.0978 44.0362C81.1518 44.0497 81.2059 44.0599 81.2667 44.07C81.287 44.0936 81.2971 44.1274 81.2971 44.168C81.2971 44.1916 81.2971 44.2288 81.2937 44.2761H81.2329C81.1011 44.2761 81.0099 44.2761 80.9558 44.2694L80.4422 44.2254H80.1989L80.0807 44.2322L79.8982 44.2423C79.8306 44.2423 79.7563 44.2491 79.6752 44.2592C79.5941 44.2694 79.5332 44.2727 79.4995 44.2727H79.4555L79.4521 44.2694ZM80.7362 41.8398C80.7463 41.8668 80.7497 41.8871 80.7531 41.9006C80.7767 42.0054 80.8105 42.0797 80.8477 42.1203C80.9187 42.2014 80.9998 42.2554 81.0876 42.2825C81.2228 42.3196 81.3444 42.3399 81.4458 42.3399C81.5641 42.3399 81.679 42.3163 81.7905 42.2656C81.902 42.2149 81.9932 42.1507 82.0608 42.0662C82.0709 42.0561 82.0844 42.0392 82.1013 42.0189C82.1182 41.9817 82.1284 41.9547 82.1385 41.9378C82.2297 41.7621 82.2737 41.5729 82.2737 41.3735C82.2737 41.0086 82.1655 40.6977 81.9459 40.4476C81.7938 40.2685 81.5776 40.1807 81.3005 40.1807C81.1349 40.1807 80.9457 40.2246 80.7362 40.3091C80.7328 40.3969 80.7294 40.6436 80.7294 41.0525L80.7362 41.708C80.7362 41.708 80.7362 41.7688 80.7362 41.8398Z" fill="white"/>
<path d="M86.7207 41.9041L86.7984 41.9548C86.8187 41.9717 86.8322 41.9886 86.8356 42.0122V42.0291C86.7849 42.2319 86.714 42.3704 86.6261 42.4447C86.5382 42.5191 86.4267 42.5596 86.2983 42.5596C86.1699 42.5596 86.0517 42.5225 85.9537 42.4481C85.8591 42.3738 85.7712 42.2454 85.6901 42.0595C85.5921 42.2319 85.4569 42.3603 85.2779 42.4481C85.0988 42.536 84.8859 42.5799 84.6291 42.5799C84.3925 42.5799 84.2202 42.5292 84.1087 42.4312C83.9972 42.3332 83.9431 42.2048 83.9431 42.0426C83.9431 41.9683 83.96 41.8906 83.9938 41.8162C84.0276 41.7419 84.0783 41.6642 84.1526 41.5865C84.227 41.5087 84.3452 41.4276 84.5074 41.3364C84.5311 41.3229 84.6189 41.2857 84.7642 41.2215L85.609 40.8836C85.6158 40.7991 85.6191 40.7113 85.6191 40.6234C85.6191 40.3193 85.582 40.1098 85.5076 39.9983C85.4637 39.9307 85.3826 39.8969 85.2711 39.8969C85.1596 39.8969 85.0548 39.9172 84.9602 39.9611C84.8656 40.0051 84.7947 40.0591 84.7541 40.1267C84.7237 40.1774 84.6967 40.272 84.673 40.4072C84.6561 40.5052 84.6426 40.566 84.6291 40.5795C84.5953 40.6234 84.5345 40.6606 84.4432 40.6978C84.3554 40.7316 84.2945 40.7586 84.2608 40.7755C84.1391 40.8329 84.0411 40.8633 83.9702 40.8633C83.9397 40.8363 83.9229 40.7991 83.9229 40.7485C83.9229 40.62 83.9499 40.5085 84.004 40.4173C84.085 40.2855 84.2067 40.1571 84.3723 40.0355C84.5378 39.9138 84.6899 39.826 84.8318 39.7753C85.0278 39.7111 85.2643 39.6807 85.5448 39.6807C85.7273 39.6807 85.8827 39.7145 86.0111 39.782C86.1429 39.8496 86.2308 39.9476 86.2814 40.0794C86.3321 40.2112 86.3592 40.4477 86.3592 40.789L86.3524 41.3499L86.3592 41.7588V41.8635C86.3592 41.9582 86.3727 42.0224 86.3963 42.0595C86.42 42.0967 86.4538 42.1136 86.4943 42.1136C86.518 42.1136 86.5383 42.1068 86.5585 42.0933L86.6599 41.9345L86.7207 41.9109V41.9041ZM85.6056 41.1168C85.4772 41.1607 85.3319 41.2317 85.1697 41.333C85.0075 41.4344 84.896 41.5358 84.8318 41.6371C84.7879 41.7115 84.7642 41.8027 84.7642 41.9109C84.7642 42.0088 84.7947 42.0899 84.8521 42.1508C84.9095 42.2116 84.9805 42.2454 85.0548 42.2454C85.1832 42.2454 85.288 42.2082 85.3759 42.1373C85.4941 42.0393 85.5651 41.9615 85.5854 41.9041C85.6056 41.8466 85.6158 41.6845 85.6158 41.4141C85.6158 41.3161 85.6124 41.2148 85.6023 41.1168H85.6056Z" fill="white"/>
<path d="M87.68 38.3227C87.7848 38.3227 87.8794 38.3633 87.9605 38.4477C88.0416 38.5322 88.0822 38.6302 88.0822 38.7451C88.0822 38.86 88.0416 38.958 87.9605 39.0425C87.8794 39.1269 87.778 39.1675 87.6631 39.1675C87.5483 39.1675 87.4469 39.1269 87.3658 39.0458C87.2847 38.9647 87.2441 38.8634 87.2441 38.7485C87.2441 38.6336 87.2847 38.5322 87.3658 38.4511C87.4469 38.37 87.5415 38.3261 87.6496 38.3261H87.68V38.3227ZM87.2982 42.3235C87.3354 42.3168 87.3996 42.31 87.4908 42.2999C87.626 42.2864 87.7071 42.2695 87.7409 42.2492C87.7747 42.2289 87.7983 42.1951 87.8118 42.1444C87.8253 42.0938 87.8321 41.9417 87.8321 41.6883L87.8186 41.3368L87.8253 40.7624C87.8253 40.6779 87.8253 40.5901 87.8186 40.4988C87.8186 40.4583 87.8152 40.4279 87.8152 40.411C87.8152 40.3231 87.8017 40.2691 87.778 40.2454C87.7341 40.2015 87.6463 40.1744 87.5212 40.1576L87.332 40.1305V39.9582C87.5381 39.9278 87.6598 39.9075 87.7037 39.894C87.8253 39.8602 87.9369 39.8129 88.0382 39.7521C88.1396 39.6912 88.241 39.6101 88.3356 39.5088H88.5451C88.5552 39.6169 88.562 39.6811 88.562 39.7081V39.9954C88.562 40.0427 88.562 40.1609 88.5721 40.3434L88.5485 41.6916V42.1749C88.5485 42.1985 88.5518 42.2255 88.562 42.2492C88.6465 42.2695 88.8053 42.3033 89.0384 42.3472C89.0486 42.3911 89.0519 42.4249 89.0519 42.4486C89.0519 42.4688 89.0486 42.4992 89.0418 42.5398H88.8357L88.2038 42.5195C87.8355 42.5195 87.6192 42.5195 87.5584 42.5263C87.43 42.5398 87.359 42.5466 87.3455 42.5466H87.3016C87.3016 42.4857 87.2982 42.4384 87.2982 42.408V42.3269V42.3235ZM88.3896 38.762C88.3896 38.6336 88.4302 38.5288 88.5113 38.4444C88.5924 38.3633 88.6904 38.3193 88.8087 38.3193C88.9269 38.3193 89.0249 38.3599 89.106 38.4444C89.1871 38.5255 89.2277 38.6268 89.2277 38.7417C89.2277 38.8566 89.1871 38.958 89.106 39.0391C89.0249 39.1202 88.9235 39.1607 88.8087 39.1607C88.6938 39.1607 88.5992 39.1202 88.5147 39.0391C88.4302 38.958 88.3896 38.8667 88.3896 38.762Z" fill="white"/>
<path d="M90.762 41.0497L90.887 41.0598L91.3635 41.0531L91.4919 41.0598L91.7217 41.0666C91.8129 41.0666 91.9345 41.0666 92.0866 41.0564V40.6678C92.0866 40.3434 92.0866 40.1542 92.0765 40.1035C92.0697 40.0528 92.0021 40.0258 91.8805 40.0224C91.8298 40.0224 91.7487 40.0123 91.6406 40.0022L91.5966 39.7656C91.8974 39.7859 92.1136 39.796 92.2488 39.796H92.4245H92.6948C92.999 39.796 93.2152 39.7859 93.3402 39.7656L93.2963 40.0022C93.1544 40.0191 93.0699 40.0258 93.0496 40.0258C92.9449 40.0258 92.8875 40.0427 92.8739 40.0765C92.8604 40.1069 92.8537 40.2286 92.8503 40.4381L92.8401 40.8571L92.83 41.4653C92.83 41.9485 92.8469 42.2256 92.8807 42.2965C93.0226 42.3303 93.1274 42.3506 93.2017 42.3608C93.2389 42.3641 93.2727 42.3709 93.3065 42.381V42.5871L92.9043 42.5669C92.7759 42.5601 92.6577 42.5567 92.5428 42.5567L92.0461 42.5736L91.6237 42.5871V42.381C91.6575 42.3709 91.6946 42.3641 91.7318 42.3608C91.8602 42.3439 91.965 42.3236 92.0494 42.2965C92.09 42.0668 92.1103 41.8032 92.1103 41.5025L92.1035 41.3099C91.9582 41.3166 91.8197 41.32 91.6811 41.32C91.4818 41.32 91.3365 41.32 91.2385 41.3132L90.9512 41.3065C90.8938 41.3065 90.8296 41.3065 90.7654 41.3166V41.4856V41.9688C90.7654 42.0904 90.7789 42.2019 90.8093 42.2965C90.9512 42.3303 91.056 42.3506 91.127 42.3608C91.1641 42.3641 91.1979 42.3709 91.2283 42.381L91.2351 42.5871L90.8296 42.5669C90.7012 42.5601 90.5829 42.5567 90.4647 42.5567L89.9679 42.5736L89.5455 42.5871V42.381C89.5793 42.3709 89.6165 42.3641 89.6537 42.3608C89.7787 42.3439 89.8835 42.3236 89.9713 42.2965C90.0017 42.1445 90.0186 41.8674 90.0186 41.4653L90.0051 40.5158C90.0017 40.2387 89.9882 40.0866 89.9679 40.063C89.9477 40.0393 89.8902 40.0258 89.799 40.0258C89.7483 40.0258 89.6672 40.0157 89.5591 40.0055L89.5151 39.769C89.8159 39.7893 90.0321 39.7994 90.1673 39.7994H90.343H90.6133C90.9175 39.7994 91.1337 39.7893 91.2554 39.769L91.2148 40.0055C91.0729 40.0224 90.9884 40.0292 90.9681 40.0292C90.86 40.0292 90.8026 40.0461 90.789 40.0799C90.7755 40.1103 90.7688 40.2319 90.7654 40.4414C90.7654 40.7118 90.7586 40.9145 90.7485 41.0531L90.762 41.0497Z" fill="white"/>
<path d="M96.6346 41.6579C96.6718 41.6782 96.6988 41.6917 96.7157 41.6985C96.7664 41.7221 96.8103 41.7492 96.8407 41.783C96.7799 42.0094 96.6312 42.2053 96.3947 42.3709C96.1582 42.5365 95.8608 42.6176 95.5026 42.6176C95.2762 42.6176 95.0532 42.5703 94.8302 42.4757C94.6072 42.3811 94.4315 42.256 94.2997 42.0972C94.1983 41.9756 94.1206 41.8303 94.0699 41.6546C94.0192 41.4788 93.9922 41.3335 93.9922 41.2085C93.9922 41.0632 94.0226 40.8943 94.0868 40.7084C94.151 40.5226 94.2558 40.3469 94.4044 40.1813C94.5531 40.0157 94.7423 39.8839 94.9687 39.7859C95.1951 39.6879 95.4519 39.6406 95.7392 39.6406C96.1311 39.6406 96.4048 39.7014 96.5569 39.8231C96.7123 39.9447 96.7867 40.0664 96.7867 40.188C96.7867 40.3097 96.7563 40.4009 96.6921 40.4719C96.6279 40.5428 96.5434 40.5766 96.4353 40.5766C96.344 40.5766 96.2562 40.5462 96.1784 40.4854C96.1007 40.4246 96.0365 40.3198 95.9825 40.1779C95.9419 40.0731 95.8912 39.9988 95.827 39.9515C95.7628 39.9076 95.6885 39.8839 95.6006 39.8839C95.3877 39.8839 95.1985 39.9752 95.0296 40.1576C94.8606 40.3401 94.7795 40.5868 94.7795 40.9044C94.7795 41.2829 94.8809 41.5836 95.087 41.8066C95.2931 42.0296 95.5229 42.1411 95.7831 42.1411C95.9115 42.1411 96.023 42.1276 96.1109 42.0972C96.1683 42.0769 96.246 42.033 96.3406 41.9654C96.3643 41.9485 96.4116 41.8978 96.4826 41.8201C96.5501 41.7424 96.5975 41.6883 96.6245 41.6613L96.6346 41.6579Z" fill="white"/>
<path d="M98.5948 40.9545L98.9732 40.9444L99.0982 40.9376C99.6626 40.9376 100.041 41.0052 100.234 41.1404C100.426 41.2755 100.521 41.4614 100.521 41.6979C100.521 41.9818 100.406 42.1947 100.176 42.3433C99.9464 42.492 99.6254 42.563 99.2098 42.563L98.7536 42.5562L97.3851 42.5934L97.3918 42.3906L97.6115 42.3568C97.6959 42.3467 97.7635 42.3298 97.8108 42.3129C97.8446 42.2521 97.8615 41.948 97.8615 41.4006L97.8514 40.8227L97.8412 40.4206C97.8412 40.2179 97.8345 40.103 97.8243 40.0726C97.8108 40.0422 97.7534 40.0253 97.6453 40.0219L97.3986 39.9983L97.3682 39.809H97.7838L97.9088 39.7989C98.0068 39.7955 98.1454 39.7921 98.3211 39.7921L98.7063 39.7854H98.9529C98.9969 39.7888 99.0678 39.7786 99.1692 39.7617L99.1287 39.9915C98.98 40.0084 98.8887 40.0151 98.8583 40.0151C98.7266 40.0151 98.6455 40.032 98.6218 40.0625C98.5981 40.0929 98.5846 40.1706 98.5846 40.299V40.6234V40.8025C98.5846 40.8464 98.5846 40.8971 98.588 40.9512L98.5948 40.9545ZM98.6117 42.2622C98.6894 42.2859 98.811 42.2994 98.9665 42.2994C99.4801 42.2994 99.7369 42.1169 99.7369 41.7486C99.7369 41.5898 99.6727 41.4614 99.5443 41.3566C99.4159 41.2553 99.2233 41.2046 98.9631 41.2046C98.8583 41.2046 98.7367 41.2147 98.6015 41.2316C98.6015 41.2586 98.6015 41.2755 98.6015 41.2789V41.4884C98.5948 41.7182 98.588 41.9446 98.588 42.1642C98.588 42.1947 98.5948 42.2251 98.6117 42.2589V42.2622Z" fill="white"/>
<path d="M102.896 39.7696L102.856 40.0028L102.609 40.0298C102.521 40.0298 102.467 40.04 102.447 40.0602C102.427 40.0805 102.413 40.1413 102.407 40.2359C102.407 40.263 102.407 40.3001 102.4 40.3508C102.383 40.5401 102.376 40.655 102.376 40.7023V41.0199C102.545 40.9726 102.677 40.9118 102.768 40.8374C102.859 40.7631 102.988 40.611 103.157 40.3779C103.508 39.8947 103.849 39.6514 104.181 39.6514C104.343 39.6514 104.468 39.6919 104.556 39.773C104.643 39.8541 104.684 39.9521 104.684 40.067C104.684 40.1515 104.654 40.2258 104.596 40.29C104.539 40.3542 104.458 40.388 104.356 40.388C104.245 40.388 104.143 40.3339 104.055 40.2258C103.998 40.1548 103.944 40.1211 103.893 40.1211C103.819 40.1211 103.741 40.1515 103.667 40.2123C103.589 40.2731 103.481 40.3914 103.343 40.5671C103.228 40.7124 103.14 40.8138 103.082 40.8645C103.204 40.9016 103.329 40.976 103.457 41.0841C103.586 41.1922 103.799 41.4423 104.093 41.8376C104.245 42.0404 104.356 42.1654 104.424 42.2127C104.491 42.26 104.62 42.3073 104.802 42.3614V42.4729C104.802 42.4898 104.802 42.5168 104.802 42.554C104.775 42.554 104.721 42.5506 104.637 42.5405C104.525 42.5303 104.404 42.5236 104.275 42.5236C104.13 42.5236 103.954 42.5303 103.748 42.5472C103.714 42.4965 103.636 42.3918 103.518 42.2397L103.187 41.8005C102.984 41.5268 102.839 41.3578 102.755 41.297C102.667 41.2362 102.538 41.2024 102.366 41.2024V42.0911L102.373 42.2161C102.43 42.2634 102.538 42.2972 102.694 42.3141C102.724 42.3175 102.751 42.3242 102.775 42.3276V42.4729C102.775 42.4729 102.775 42.5033 102.775 42.527L102.751 42.5371L102.393 42.5236C102.231 42.5134 102.079 42.5067 101.933 42.5067C101.852 42.5067 101.694 42.5168 101.46 42.5371C101.396 42.5371 101.349 42.5371 101.312 42.5405C101.261 42.5405 101.214 42.5405 101.173 42.5405C101.163 42.5033 101.16 42.4695 101.16 42.4323C101.16 42.4087 101.16 42.3783 101.16 42.3411C101.197 42.3208 101.241 42.3073 101.285 42.3006C101.329 42.2938 101.356 42.287 101.369 42.2837L101.498 42.2735C101.541 42.2701 101.575 42.26 101.596 42.2499C101.619 42.2296 101.633 41.8951 101.636 41.2463V41.1348L101.643 40.78V40.3745C101.646 40.2123 101.639 40.1109 101.623 40.0738C101.606 40.0366 101.545 40.0163 101.44 40.0129C101.389 40.0129 101.308 40.0062 101.2 39.9927L101.156 39.7595C101.457 39.7798 101.673 39.7899 101.808 39.7899H101.984H102.254C102.559 39.7899 102.775 39.7798 102.896 39.7595V39.7696Z" fill="white"/>
<path d="M107.242 39.9954L107.198 39.7656C107.495 39.7893 107.715 39.7994 107.85 39.7994H108.026H108.296C108.6 39.7994 108.816 39.7893 108.941 39.7656L108.898 39.9954L108.651 40.0191C108.543 40.0191 108.482 40.036 108.472 40.0731C108.462 40.1069 108.455 40.2961 108.448 40.6374L108.441 40.8604L108.431 41.1409C108.431 41.8708 108.448 42.2594 108.482 42.3067C108.614 42.3371 108.722 42.3574 108.8 42.3675C108.833 42.3709 108.867 42.3776 108.904 42.3878V42.5871L108.674 42.577C108.435 42.5635 108.255 42.5567 108.141 42.5567L107.225 42.5871V42.3878C107.262 42.3776 107.296 42.3709 107.333 42.3675C107.468 42.3506 107.573 42.3303 107.651 42.3067C107.678 42.1648 107.691 41.8775 107.691 41.4518V41.2119L107.671 40.8435C107.671 40.8098 107.674 40.7489 107.684 40.6611C106.992 41.4281 106.549 41.8911 106.36 42.0499C106.37 42.1614 106.387 42.2459 106.411 42.3101C106.542 42.3405 106.65 42.3608 106.728 42.3709C106.762 42.3743 106.796 42.381 106.83 42.3912L106.836 42.5905L106.603 42.5804C106.36 42.5669 106.184 42.5601 106.069 42.5601L105.154 42.5905V42.3912C105.191 42.381 105.224 42.3743 105.262 42.3709C105.393 42.354 105.498 42.3337 105.579 42.3101C105.606 42.1681 105.62 42.0161 105.62 41.8606V41.3166V40.8199V40.6374L105.613 40.4178C105.613 40.215 105.603 40.1002 105.589 40.0664C105.576 40.036 105.515 40.0191 105.41 40.0157C105.366 40.0157 105.285 40.0089 105.17 39.9988L105.126 39.769C105.424 39.7893 105.643 39.7994 105.779 39.7994H105.954H106.225C106.529 39.7994 106.745 39.7893 106.867 39.769L106.826 39.9988L106.579 40.0224C106.468 40.0224 106.407 40.0393 106.397 40.0765C106.387 40.1103 106.38 40.2995 106.377 40.6408L106.367 40.8469L106.356 41.0902V41.739L106.975 41.0632C107.154 40.8571 107.303 40.6915 107.428 40.5665C107.549 40.4448 107.63 40.3536 107.671 40.2961C107.674 40.2353 107.678 40.1948 107.678 40.1711C107.678 40.0731 107.61 40.0191 107.482 40.0123C107.414 40.0123 107.333 40.0055 107.242 39.9954Z" fill="white"/>
<path d="M111.546 39.9952L111.503 39.7654C111.8 39.7891 112.02 39.7992 112.155 39.7992H112.33H112.601C112.905 39.7992 113.121 39.7891 113.246 39.7654L113.202 39.9952L112.956 40.0188C112.847 40.0188 112.787 40.0357 112.776 40.0729C112.766 40.1067 112.76 40.2959 112.753 40.6372L112.746 40.8602L112.736 41.1407C112.736 41.8706 112.753 42.2592 112.787 42.3065C112.918 42.3369 113.026 42.3572 113.104 42.3673C113.138 42.3707 113.172 42.3774 113.209 42.3876V42.5869L112.979 42.5768C112.739 42.5633 112.56 42.5565 112.445 42.5565L111.53 42.5869V42.3876C111.567 42.3774 111.601 42.3707 111.638 42.3673C111.773 42.3504 111.878 42.3301 111.955 42.3065C111.982 42.1645 111.996 41.8773 111.996 41.4516V41.2116L111.976 40.8433C111.976 40.8095 111.979 40.7487 111.989 40.6609C111.296 41.4279 110.854 41.8908 110.665 42.0497C110.675 42.1612 110.692 42.2456 110.715 42.3098C110.847 42.3403 110.955 42.3605 111.033 42.3707C111.067 42.374 111.1 42.3808 111.134 42.3909L111.141 42.5903L110.908 42.5802C110.665 42.5667 110.489 42.5599 110.374 42.5599L109.458 42.5903V42.3909C109.495 42.3808 109.529 42.374 109.566 42.3707C109.698 42.3538 109.803 42.3335 109.884 42.3098C109.911 42.1679 109.924 42.0159 109.924 41.8604V41.3164V40.8197V40.6372L109.918 40.4176C109.918 40.2148 109.908 40.0999 109.894 40.0661C109.881 40.0357 109.82 40.0188 109.715 40.0155C109.671 40.0155 109.59 40.0087 109.475 39.9986L109.431 39.7688C109.729 39.7891 109.948 39.7992 110.083 39.7992H110.259H110.529C110.833 39.7992 111.05 39.7891 111.171 39.7688L111.131 39.9986L110.884 40.0222C110.773 40.0222 110.712 40.0391 110.702 40.0763C110.692 40.1101 110.685 40.2993 110.681 40.6406L110.671 40.8467L110.661 41.09V41.7388L111.28 41.063C111.459 40.8568 111.607 40.6913 111.732 40.5662C111.854 40.4446 111.935 40.3534 111.976 40.2959C111.979 40.2351 111.982 40.1945 111.982 40.1709C111.982 40.0729 111.915 40.0188 111.786 40.0121C111.719 40.0121 111.638 40.0053 111.546 39.9952ZM110.222 38.603C110.222 38.5084 110.256 38.4273 110.323 38.3631C110.391 38.2989 110.472 38.2651 110.57 38.2651C110.651 38.2651 110.719 38.2854 110.773 38.3293C110.827 38.3732 110.898 38.4746 110.986 38.6334C111.107 38.8497 111.239 38.9578 111.384 38.9578C111.53 38.9578 111.661 38.8497 111.78 38.6334C111.857 38.4915 111.925 38.3969 111.982 38.3428C112.04 38.2888 112.114 38.2617 112.205 38.2617C112.297 38.2617 112.378 38.2955 112.442 38.3631C112.506 38.4307 112.54 38.5084 112.54 38.603C112.54 38.7855 112.428 38.9274 112.202 39.022C111.979 39.12 111.709 39.1673 111.398 39.1673C111.033 39.1673 110.746 39.1166 110.536 39.0119C110.327 38.9071 110.222 38.772 110.222 38.603Z" fill="white"/>
<path d="M119.193 39.2922L119.055 39.299C119.024 39.299 118.984 39.299 118.94 39.2922C118.92 39.2483 118.893 39.1841 118.859 39.0929C118.778 38.9509 118.724 38.8529 118.7 38.8056C118.585 38.6367 118.521 38.5488 118.507 38.5387C118.494 38.5286 118.44 38.5218 118.345 38.5184C118.271 38.5184 118.163 38.515 118.028 38.5049C117.801 38.488 117.561 38.4779 117.308 38.4779C117.207 38.4779 117.105 38.4779 117.007 38.4846C116.946 38.5083 116.916 38.6299 116.916 38.8563L116.923 40.0221C117.166 40.0018 117.379 39.9917 117.561 39.9917C117.926 39.9917 118.224 40.0221 118.45 40.0863C118.676 40.1505 118.866 40.2384 119.014 40.3499C119.166 40.4614 119.278 40.5932 119.352 40.7418C119.427 40.8905 119.464 41.0493 119.464 41.2183C119.464 41.6272 119.295 41.9549 118.957 42.1982C118.619 42.4415 118.2 42.5632 117.693 42.5632C117.602 42.5632 117.443 42.5564 117.223 42.5395C117.075 42.5294 116.889 42.5226 116.673 42.5226C116.578 42.5226 116.399 42.5294 116.135 42.5463L115.341 42.5767L115.348 42.3064C115.392 42.2928 115.46 42.2793 115.544 42.2692C115.706 42.2455 115.828 42.2185 115.906 42.1813C115.963 42.1306 115.993 41.8941 115.993 41.4717L115.983 39.6099L115.96 38.8665C115.953 38.6603 115.936 38.5454 115.906 38.5184C115.875 38.4914 115.804 38.4745 115.689 38.4677C115.642 38.4677 115.531 38.4542 115.355 38.4306L115.345 38.1873L115.679 38.1805L116.919 38.1906H116.923L118.393 38.167C118.629 38.167 118.876 38.1839 119.126 38.2177C119.166 38.2548 119.187 38.3157 119.187 38.4001V39.299L119.193 39.2922ZM116.963 42.1577C117.109 42.2185 117.244 42.2489 117.376 42.2489C118.109 42.2489 118.477 41.9313 118.477 41.2994C118.477 40.6303 118.105 40.2958 117.365 40.2958C117.166 40.2958 117.017 40.3059 116.923 40.3296C116.919 40.4141 116.916 40.485 116.916 40.5323L116.923 40.7452V41.2487L116.929 41.9482V42.0022C116.929 42.0495 116.94 42.1002 116.963 42.1577Z" fill="white"/>
<path d="M123.312 42.5703H123.235L122.772 42.5602H122.528L122.278 42.5534L122.103 42.5635L121.755 42.5703C121.741 42.5297 121.734 42.496 121.734 42.4723C121.734 42.4453 121.741 42.4047 121.751 42.3507L121.897 42.327C122.059 42.3034 122.137 42.2696 122.137 42.2189C122.137 42.1817 122.126 42.1378 122.103 42.0871C122.086 42.0465 122.052 41.9654 122.008 41.8438C121.964 41.7222 121.88 41.5194 121.748 41.2356L121.66 41.0227C121.593 40.8537 121.522 40.6983 121.454 40.5597C121.424 40.6273 121.38 40.7524 121.319 40.9314C121.268 41.0835 121.187 41.3031 121.075 41.587C120.94 41.9418 120.866 42.1783 120.859 42.2966C120.917 42.3067 120.994 42.3135 121.089 42.3169L121.14 42.3236C121.177 42.3236 121.221 42.3236 121.275 42.3236L121.326 42.3338C121.329 42.3709 121.332 42.4081 121.332 42.4453C121.332 42.5095 121.322 42.55 121.305 42.5669L121.244 42.5737C121.211 42.5771 121.19 42.5804 121.187 42.5804L120.896 42.5737H120.727C120.626 42.5669 120.521 42.5602 120.413 42.5602L120.275 42.5669L120.129 42.5771H120.048C120.045 42.5331 120.042 42.4993 120.042 42.4757C120.042 42.452 120.042 42.4182 120.048 42.3777C120.278 42.3236 120.433 42.2729 120.525 42.2256C120.565 42.1547 120.626 42.0094 120.707 41.7897C120.863 41.3741 121.069 40.874 121.322 40.2827C121.393 40.1171 121.447 39.9887 121.481 39.8975C121.508 39.8265 121.538 39.7555 121.572 39.6846H121.849C122.13 40.3401 122.366 40.8706 122.566 41.2761L122.893 42.0195L122.998 42.2459C122.998 42.2459 123.056 42.2696 123.16 42.2966C123.252 42.3202 123.309 42.3439 123.326 42.3676C123.329 42.3912 123.333 42.4216 123.333 42.4588C123.333 42.5061 123.329 42.5433 123.319 42.5669L123.312 42.5703Z" fill="white"/>
<path d="M126.685 41.9041L126.762 41.9548C126.783 41.9717 126.796 41.9886 126.799 42.0122V42.0291C126.749 42.2319 126.678 42.3704 126.59 42.4447C126.502 42.5191 126.394 42.5596 126.262 42.5596C126.13 42.5596 126.012 42.5225 125.918 42.4481C125.82 42.3738 125.735 42.2454 125.654 42.0595C125.556 42.2319 125.421 42.3603 125.242 42.4481C125.063 42.536 124.85 42.5799 124.593 42.5799C124.356 42.5799 124.184 42.5292 124.073 42.4312C123.961 42.3332 123.907 42.2048 123.907 42.0426C123.907 41.9683 123.924 41.8906 123.958 41.8162C123.991 41.7385 124.042 41.6642 124.116 41.5865C124.191 41.5121 124.309 41.4276 124.471 41.3364C124.495 41.3229 124.583 41.2857 124.728 41.2215L125.573 40.8836C125.58 40.7991 125.583 40.7113 125.583 40.6234C125.583 40.3193 125.546 40.1098 125.472 39.9983C125.428 39.9307 125.346 39.8969 125.235 39.8969C125.123 39.8969 125.019 39.9172 124.924 39.9611C124.829 40.0051 124.759 40.0591 124.718 40.1267C124.688 40.1774 124.661 40.272 124.637 40.4072C124.62 40.5052 124.606 40.566 124.593 40.5795C124.559 40.6234 124.498 40.6606 124.407 40.6978C124.319 40.7316 124.258 40.7586 124.225 40.7755C124.103 40.8329 124.005 40.8633 123.934 40.8633C123.904 40.8363 123.887 40.7991 123.887 40.7485C123.887 40.62 123.914 40.5085 123.968 40.4173C124.049 40.2855 124.171 40.1571 124.336 40.0355C124.502 39.9138 124.654 39.826 124.796 39.7753C124.992 39.7111 125.228 39.6807 125.509 39.6807C125.691 39.6807 125.847 39.7145 125.975 39.782C126.103 39.8496 126.195 39.9476 126.245 40.0794C126.296 40.2112 126.323 40.4477 126.323 40.789L126.316 41.3499L126.323 41.7588V41.8635C126.323 41.9582 126.337 42.0224 126.36 42.0595C126.387 42.0933 126.418 42.1136 126.458 42.1136C126.482 42.1136 126.505 42.1068 126.522 42.0933L126.624 41.9345L126.685 41.9109V41.9041ZM125.573 41.1168C125.444 41.1607 125.299 41.2317 125.137 41.333C124.975 41.4344 124.863 41.5358 124.799 41.6371C124.755 41.7115 124.731 41.8027 124.731 41.9109C124.731 42.0088 124.762 42.0899 124.819 42.1508C124.877 42.2116 124.948 42.2454 125.022 42.2454C125.15 42.2454 125.255 42.2082 125.346 42.1373C125.465 42.0393 125.536 41.9615 125.556 41.9041C125.576 41.8466 125.586 41.6845 125.586 41.4141C125.586 41.3161 125.583 41.2148 125.573 41.1168Z" fill="white"/>
<path d="M128.543 42.2974C128.662 42.3279 128.787 42.3481 128.915 42.3616H128.942C128.979 42.3718 129.02 42.3785 129.064 42.3819L129.077 42.5779C129.03 42.5712 128.858 42.5678 128.564 42.5678L128.087 42.5576L127.705 42.5745L127.283 42.588V42.3819C127.317 42.3718 127.354 42.365 127.391 42.3616C127.516 42.3448 127.621 42.3245 127.712 42.2974C127.742 42.1454 127.759 41.8649 127.759 41.4527L127.746 40.5133C127.742 40.2362 127.729 40.0875 127.709 40.0639C127.688 40.0402 127.631 40.0267 127.54 40.0233C127.489 40.0233 127.408 40.0132 127.3 40.0031L127.256 39.7665C127.361 39.7767 127.462 39.78 127.563 39.7834C127.715 39.7868 127.867 39.7969 128.023 39.8071C128.28 39.824 128.509 39.8307 128.709 39.8307C128.956 39.8307 129.168 39.8206 129.344 39.8037C129.462 39.7902 129.574 39.7834 129.685 39.78L130.06 39.7598C130.05 39.8814 130.044 40.0166 130.044 40.1653C130.044 40.4085 130.044 40.5471 130.033 40.5809C130.023 40.6147 130.003 40.6282 129.959 40.6282C129.902 40.6282 129.861 40.5707 129.837 40.4559C129.807 40.3004 129.76 40.199 129.702 40.145C129.645 40.0943 129.598 40.0605 129.564 40.047C129.53 40.0335 129.385 40.0267 129.128 40.0267C128.807 40.0267 128.628 40.0436 128.584 40.0808C128.54 40.1146 128.52 40.2261 128.52 40.4119V40.6721L128.499 41.4561C128.499 41.946 128.516 42.2299 128.55 42.3008L128.543 42.2974Z" fill="white"/>
<path d="M133.281 40.0704C133.426 40.2123 133.535 40.3711 133.605 40.5536C133.676 40.736 133.714 40.9084 133.714 41.0672C133.714 41.3713 133.666 41.6146 133.575 41.8005C133.433 42.0809 133.244 42.287 133.007 42.4222C132.771 42.5574 132.494 42.6216 132.18 42.6216C131.825 42.6216 131.527 42.5439 131.281 42.385C131.034 42.2262 130.858 42.0471 130.754 41.8444C130.649 41.6416 130.595 41.3916 130.595 41.0942C130.595 40.9422 130.618 40.7901 130.669 40.6381C130.72 40.486 130.787 40.3508 130.875 40.2393C130.963 40.1278 131.058 40.0298 131.162 39.9555C131.314 39.8474 131.467 39.7696 131.619 39.7223C131.771 39.675 131.956 39.6514 132.173 39.6514C132.646 39.6514 133.014 39.7899 133.281 40.0704ZM131.426 41.2429C131.446 41.5234 131.46 41.6856 131.47 41.7295C131.5 41.8816 131.544 42.0133 131.608 42.1215C131.652 42.1924 131.723 42.2533 131.821 42.3073C131.919 42.3614 132.041 42.3884 132.176 42.3884C132.342 42.3884 132.48 42.3343 132.595 42.2296C132.707 42.1248 132.791 41.9593 132.838 41.7363C132.869 41.5876 132.886 41.3477 132.886 41.0131C132.886 40.6009 132.818 40.3103 132.683 40.138C132.548 39.9656 132.369 39.8811 132.146 39.8811C131.97 39.8811 131.828 39.9285 131.713 40.0264C131.598 40.1244 131.521 40.2664 131.473 40.459C131.443 40.5806 131.426 40.8442 131.423 41.2429H131.426Z" fill="white"/>
<path d="M137.619 43.3742C137.569 43.381 137.535 43.3843 137.515 43.3843H137.474C137.444 43.3303 137.41 43.2593 137.376 43.1715C137.265 42.8978 137.153 42.722 137.041 42.6443C136.93 42.5666 136.714 42.5294 136.399 42.5294H135.926L135.2 42.5193C135.017 42.5193 134.899 42.5294 134.845 42.5463C134.791 42.5666 134.74 42.6139 134.693 42.6883C134.646 42.7626 134.585 42.9079 134.514 43.1242C134.47 43.2526 134.443 43.3269 134.433 43.3438C134.423 43.3438 134.402 43.3438 134.375 43.3438C134.331 43.3472 134.304 43.3506 134.298 43.3506C134.288 43.3506 134.267 43.3506 134.24 43.3506C134.261 43.2086 134.274 43.0937 134.281 43.0093C134.308 42.668 134.342 42.4382 134.386 42.3233C134.413 42.3132 134.446 42.303 134.49 42.2997C134.554 42.2963 134.615 42.2861 134.676 42.2726C134.876 41.8671 135.142 41.2353 135.47 40.377L135.643 39.9242L135.747 39.6572H136.021C136.048 39.7214 136.247 40.154 136.612 40.948C136.981 41.7421 137.187 42.1679 137.231 42.2253C137.275 42.2828 137.342 42.3267 137.44 42.3639C137.498 42.3875 137.535 42.4179 137.552 42.4619C137.569 42.5058 137.579 42.6511 137.586 42.9011L137.619 43.3742ZM136.379 42.2524C136.335 42.1206 136.281 41.982 136.224 41.83L135.967 41.1373C135.825 40.7453 135.741 40.5189 135.714 40.4581L135.024 42.2557C135.308 42.276 135.592 42.2861 135.872 42.2861C136.031 42.2861 136.2 42.2726 136.383 42.249L136.379 42.2524Z" fill="white"/>
<path d="M138.008 42.5438L138.001 42.3241L138.383 42.2734C138.441 42.2565 138.478 42.2329 138.502 42.2025C138.522 42.1721 138.535 42.1045 138.535 41.9963V41.9592C138.535 41.9321 138.535 41.8815 138.539 41.8105C138.542 41.7395 138.546 41.6753 138.546 41.6213C138.546 41.5773 138.542 41.4962 138.535 41.3746V41.2056V41.0468L138.546 40.4927C138.546 40.4217 138.539 40.3507 138.525 40.2764C138.502 40.2426 138.454 40.2122 138.387 40.1885C138.319 40.1649 138.204 40.1446 138.042 40.1345V39.9452C138.275 39.9317 138.481 39.8844 138.657 39.7999C138.779 39.7459 138.907 39.6479 139.049 39.5127H139.275C139.286 39.7932 139.289 40.1581 139.289 40.6075L139.265 41.993C139.265 42.0876 139.269 42.1754 139.279 42.2498C139.35 42.2734 139.465 42.3005 139.62 42.3241C139.681 42.3343 139.732 42.3444 139.765 42.3579L139.759 42.5438C139.698 42.5438 139.654 42.5438 139.623 42.5438C139.59 42.5438 139.539 42.5438 139.468 42.537C139.238 42.5269 138.931 42.5201 138.542 42.5201C138.431 42.5201 138.322 42.5235 138.221 42.5336C138.12 42.5438 138.045 42.5471 138.008 42.5471V42.5438ZM138.485 38.4922C138.485 38.3706 138.525 38.2692 138.603 38.1915C138.681 38.1138 138.785 38.0732 138.907 38.0732C139.039 38.0732 139.15 38.1138 139.238 38.1983C139.326 38.2794 139.37 38.374 139.37 38.4787C139.37 38.5565 139.353 38.6342 139.316 38.7085C139.282 38.7862 139.225 38.847 139.15 38.8944C139.076 38.9417 138.998 38.9653 138.917 38.9653C138.809 38.9653 138.708 38.918 138.616 38.8268C138.525 38.7355 138.478 38.624 138.478 38.4956L138.485 38.4922Z" fill="white"/>
<path d="M142.354 39.9952L142.31 39.7654C142.607 39.7891 142.827 39.7992 142.962 39.7992H143.138H143.408C143.712 39.7992 143.928 39.7891 144.053 39.7654L144.009 39.9952L143.763 40.0188C143.655 40.0188 143.594 40.0357 143.584 40.0729C143.573 40.1067 143.567 40.2959 143.56 40.6372L143.553 40.8602L143.543 41.1407C143.543 41.8706 143.56 42.2592 143.594 42.3065C143.725 42.3369 143.834 42.3572 143.911 42.3673C143.945 42.3707 143.979 42.3774 144.016 42.3876V42.5869L143.786 42.5768C143.546 42.5633 143.367 42.5565 143.252 42.5565L142.337 42.5869V42.3876C142.374 42.3774 142.408 42.3707 142.445 42.3673C142.58 42.3504 142.685 42.3301 142.762 42.3065C142.789 42.1645 142.803 41.8773 142.803 41.4516V41.2116L142.783 40.8433C142.783 40.8095 142.786 40.7487 142.796 40.6609C142.104 41.4279 141.661 41.8908 141.472 42.0497C141.482 42.1612 141.499 42.2456 141.522 42.3098C141.654 42.3403 141.762 42.3605 141.84 42.3707C141.874 42.374 141.908 42.3808 141.941 42.3909L141.948 42.5903L141.715 42.5802C141.472 42.5667 141.296 42.5599 141.181 42.5599L140.265 42.5903V42.3909C140.302 42.3808 140.336 42.374 140.373 42.3707C140.505 42.3538 140.61 42.3335 140.691 42.3098C140.718 42.1679 140.732 42.0159 140.732 41.8604V41.3164V40.8197V40.6372L140.725 40.4176C140.725 40.2148 140.715 40.0999 140.701 40.0661C140.688 40.0357 140.627 40.0188 140.522 40.0155C140.478 40.0155 140.397 40.0087 140.282 39.9986L140.238 39.7688C140.536 39.7891 140.755 39.7992 140.89 39.7992H141.066H141.336C141.641 39.7992 141.857 39.7891 141.979 39.7688L141.938 39.9986L141.691 40.0222C141.58 40.0222 141.519 40.0391 141.509 40.0763C141.499 40.1101 141.492 40.2993 141.489 40.6406L141.478 40.8467L141.468 41.09V41.7388L142.087 41.063C142.266 40.8568 142.414 40.6913 142.539 40.5662C142.661 40.4446 142.742 40.3534 142.783 40.2959C142.786 40.2351 142.789 40.1945 142.789 40.1709C142.789 40.0729 142.722 40.0188 142.593 40.0121C142.526 40.0121 142.445 40.0053 142.354 39.9952ZM141.029 38.603C141.029 38.5084 141.063 38.4273 141.13 38.3631C141.198 38.2989 141.279 38.2651 141.377 38.2651C141.458 38.2651 141.526 38.2854 141.58 38.3293C141.634 38.3732 141.705 38.4746 141.793 38.6334C141.914 38.8497 142.046 38.9578 142.191 38.9578C142.337 38.9578 142.468 38.8497 142.587 38.6334C142.664 38.4915 142.732 38.3969 142.789 38.3428C142.847 38.2888 142.921 38.2617 143.013 38.2617C143.104 38.2617 143.185 38.2955 143.249 38.3631C143.313 38.4307 143.347 38.5084 143.347 38.603C143.347 38.7855 143.236 38.9274 143.009 39.022C142.786 39.12 142.516 39.1673 142.205 39.1673C141.84 39.1673 141.553 39.1166 141.343 39.0119C141.134 38.9071 141.029 38.772 141.029 38.603Z" fill="white"/>
<path d="M145.777 41.0497L145.902 41.0598L146.378 41.0531L146.507 41.0598L146.736 41.0666C146.828 41.0666 146.949 41.0666 147.101 41.0564V40.6678C147.101 40.3434 147.101 40.1542 147.091 40.1035C147.084 40.0528 147.017 40.0258 146.895 40.0224C146.844 40.0224 146.763 40.0123 146.655 40.0022L146.611 39.7656C146.912 39.7859 147.128 39.796 147.263 39.796H147.439H147.71C148.014 39.796 148.23 39.7859 148.355 39.7656L148.311 40.0022C148.169 40.0191 148.085 40.0258 148.064 40.0258C147.96 40.0258 147.902 40.0427 147.889 40.0765C147.875 40.1069 147.868 40.2286 147.865 40.4381L147.855 40.8571L147.845 41.4653C147.845 41.9485 147.862 42.2256 147.895 42.2965C148.037 42.3303 148.142 42.3506 148.216 42.3608C148.254 42.3641 148.287 42.3709 148.321 42.381V42.5871L147.919 42.5669C147.791 42.5601 147.672 42.5567 147.557 42.5567L147.061 42.5736L146.638 42.5871V42.381C146.672 42.3709 146.709 42.3641 146.746 42.3608C146.875 42.3439 146.98 42.3236 147.064 42.2965C147.105 42.0668 147.125 41.8032 147.125 41.5025L147.118 41.3099C146.973 41.3166 146.834 41.32 146.696 41.32C146.496 41.32 146.351 41.32 146.253 41.3132L145.966 41.3065C145.908 41.3065 145.844 41.3065 145.78 41.3166V41.4856V41.9688C145.78 42.0904 145.794 42.2019 145.824 42.2965C145.966 42.3303 146.071 42.3506 146.142 42.3608C146.179 42.3641 146.213 42.3709 146.243 42.381L146.25 42.5871L145.844 42.5669C145.716 42.5601 145.598 42.5567 145.479 42.5567L144.983 42.5736L144.56 42.5871V42.381C144.594 42.3709 144.631 42.3641 144.668 42.3608C144.793 42.3439 144.898 42.3236 144.989 42.2965C145.02 42.1445 145.037 41.8674 145.037 41.4653L145.023 40.5158C145.02 40.2387 145.006 40.0866 144.986 40.063C144.966 40.0393 144.908 40.0258 144.817 40.0258C144.766 40.0258 144.685 40.0157 144.577 40.0055L144.533 39.769C144.834 39.7893 145.05 39.7994 145.185 39.7994H145.361H145.631C145.936 39.7994 146.152 39.7893 146.273 39.769L146.233 40.0055C146.091 40.0224 146.006 40.0292 145.986 40.0292C145.878 40.0292 145.821 40.0461 145.807 40.0799C145.794 40.1103 145.787 40.2319 145.783 40.4414C145.783 40.7118 145.777 40.9145 145.767 41.0531L145.777 41.0497Z" fill="white"/>
<path d="M150.963 39.9954L150.92 39.7656C151.217 39.7893 151.437 39.7994 151.572 39.7994H151.747H152.018C152.322 39.7994 152.538 39.7893 152.663 39.7656L152.619 39.9954L152.373 40.0191C152.264 40.0191 152.204 40.036 152.193 40.0731C152.183 40.1069 152.177 40.2961 152.17 40.6374L152.163 40.8604L152.153 41.1409C152.153 41.8708 152.17 42.2594 152.204 42.3067C152.335 42.3371 152.443 42.3574 152.521 42.3675C152.555 42.3709 152.589 42.3776 152.626 42.3878V42.5871L152.396 42.577C152.156 42.5635 151.977 42.5567 151.862 42.5567L150.947 42.5871V42.3878C150.984 42.3776 151.018 42.3709 151.055 42.3675C151.19 42.3506 151.295 42.3303 151.372 42.3067C151.399 42.1648 151.413 41.8775 151.413 41.4518V41.2119L151.393 40.8435C151.393 40.8098 151.396 40.7489 151.406 40.6611C150.713 41.4281 150.271 41.8911 150.082 42.0499C150.092 42.1614 150.109 42.2459 150.132 42.3101C150.264 42.3405 150.372 42.3608 150.45 42.3709C150.484 42.3743 150.517 42.381 150.551 42.3912L150.558 42.5905L150.325 42.5804C150.082 42.5669 149.906 42.5601 149.791 42.5601L148.875 42.5905V42.3912C148.912 42.381 148.946 42.3743 148.983 42.3709C149.115 42.354 149.22 42.3337 149.301 42.3101C149.328 42.1681 149.341 42.0161 149.341 41.8606V41.3166V40.8199V40.6374L149.335 40.4178C149.335 40.215 149.325 40.1002 149.311 40.0664C149.298 40.036 149.237 40.0191 149.132 40.0157C149.088 40.0157 149.007 40.0089 148.892 39.9988L148.848 39.769C149.146 39.7893 149.365 39.7994 149.5 39.7994H149.676H149.946C150.25 39.7994 150.467 39.7893 150.588 39.769L150.548 39.9988L150.301 40.0224C150.19 40.0224 150.129 40.0393 150.119 40.0765C150.109 40.1103 150.102 40.2995 150.098 40.6408L150.088 40.8469L150.078 41.0902V41.739L150.696 41.0632C150.876 40.8571 151.024 40.6915 151.149 40.5665C151.271 40.4448 151.352 40.3536 151.393 40.2961C151.396 40.2353 151.399 40.1948 151.399 40.1711C151.399 40.0731 151.332 40.0191 151.203 40.0123C151.136 40.0123 151.055 40.0055 150.963 39.9954Z" fill="white"/>
<path d="M155.269 39.9952L155.225 39.7654C155.522 39.7891 155.742 39.7992 155.877 39.7992H156.053H156.323C156.627 39.7992 156.843 39.7891 156.968 39.7654L156.924 39.9952L156.678 40.0188C156.57 40.0188 156.509 40.0357 156.499 40.0729C156.488 40.1067 156.482 40.2959 156.475 40.6372L156.468 40.8602L156.458 41.1407C156.458 41.8706 156.475 42.2592 156.509 42.3065C156.641 42.3369 156.749 42.3572 156.826 42.3673C156.86 42.3707 156.894 42.3774 156.931 42.3876V42.5869L156.701 42.5768C156.461 42.5633 156.282 42.5565 156.167 42.5565L155.252 42.5869V42.3876C155.289 42.3774 155.323 42.3707 155.36 42.3673C155.495 42.3504 155.6 42.3301 155.677 42.3065C155.705 42.1645 155.718 41.8773 155.718 41.4516V41.2116L155.698 40.8433C155.698 40.8095 155.701 40.7487 155.711 40.6609C155.019 41.4279 154.576 41.8908 154.387 42.0497C154.397 42.1612 154.414 42.2456 154.437 42.3098C154.569 42.3403 154.677 42.3605 154.755 42.3707C154.789 42.374 154.823 42.3808 154.856 42.3909L154.863 42.5903L154.63 42.5802C154.387 42.5667 154.211 42.5599 154.096 42.5599L153.18 42.5903V42.3909C153.218 42.3808 153.251 42.374 153.288 42.3707C153.42 42.3538 153.525 42.3335 153.606 42.3098C153.633 42.1679 153.647 42.0159 153.647 41.8604V41.3164V40.8197V40.6372L153.64 40.4176C153.64 40.2148 153.63 40.0999 153.616 40.0661C153.603 40.0357 153.542 40.0188 153.437 40.0155C153.393 40.0155 153.312 40.0087 153.197 39.9986L153.153 39.7688C153.451 39.7891 153.67 39.7992 153.805 39.7992H153.981H154.252C154.556 39.7992 154.772 39.7891 154.894 39.7688L154.853 39.9986L154.606 40.0222C154.495 40.0222 154.434 40.0391 154.424 40.0763C154.414 40.1101 154.407 40.2993 154.404 40.6406L154.393 40.8467L154.383 41.09V41.7388L155.002 41.063C155.181 40.8568 155.329 40.6913 155.454 40.5662C155.576 40.4446 155.657 40.3534 155.698 40.2959C155.701 40.2351 155.705 40.1945 155.705 40.1709C155.705 40.0729 155.637 40.0188 155.509 40.0121C155.441 40.0121 155.36 40.0053 155.269 39.9952ZM153.944 38.603C153.944 38.5084 153.978 38.4273 154.045 38.3631C154.113 38.2989 154.194 38.2651 154.292 38.2651C154.373 38.2651 154.441 38.2854 154.495 38.3293C154.549 38.3732 154.62 38.4746 154.708 38.6334C154.829 38.8497 154.961 38.9578 155.106 38.9578C155.252 38.9578 155.384 38.8497 155.502 38.6334C155.579 38.4915 155.647 38.3969 155.705 38.3428C155.762 38.2888 155.836 38.2617 155.928 38.2617C156.019 38.2617 156.1 38.2955 156.164 38.3631C156.228 38.4307 156.262 38.5084 156.262 38.603C156.262 38.7855 156.151 38.9274 155.924 39.022C155.701 39.12 155.431 39.1673 155.12 39.1673C154.755 39.1673 154.468 39.1166 154.258 39.0119C154.049 38.9071 153.944 38.772 153.944 38.603Z" fill="white"/>
<path d="M62.2764 47.7545V47.5247L62.2662 46.9334C62.2662 46.6698 62.2527 46.5076 62.2223 46.4468C62.1513 46.3961 62.0635 46.3725 61.9689 46.3725C61.9148 46.3725 61.8641 46.3691 61.8168 46.3589C61.8134 46.3015 61.81 46.2576 61.81 46.2339C61.81 46.217 61.81 46.1934 61.8134 46.1697C62.175 46.1359 62.5095 46.0176 62.8102 45.8115H62.9049C62.9251 45.8115 62.9555 45.8115 62.9927 45.8115V45.9906L62.986 46.7036L63.0096 47.7511C63.2968 47.5822 63.5807 47.5011 63.8578 47.5011C64.2261 47.5011 64.5336 47.6295 64.7769 47.8829C65.0202 48.1397 65.1452 48.4911 65.1452 48.9405C65.1452 49.39 65.0202 49.711 64.7701 49.9678C64.5201 50.2246 64.199 50.353 63.8104 50.353C63.4962 50.353 63.2259 50.2651 62.9995 50.0894L63.013 50.6909C63.013 51.0964 63.013 51.3498 63.0231 51.4546C63.0299 51.5593 63.0502 51.6303 63.084 51.6675C63.1177 51.7046 63.1921 51.7384 63.307 51.7587L63.3678 51.7756C63.432 51.7925 63.4894 51.8026 63.5435 51.8094C63.5638 51.8297 63.5739 51.8634 63.5739 51.9074C63.5739 51.931 63.5739 51.9682 63.5739 52.0155C63.3813 52.0155 63.1988 52.0054 63.0265 51.9851L62.7258 51.9648H62.4825L62.3642 51.9716L62.1817 51.9817C62.1142 51.9817 62.0398 51.9885 61.9621 51.9986C61.8776 52.0087 61.8168 52.0121 61.783 52.0121C61.7796 52.0121 61.7627 52.0121 61.7391 52.0121V51.8601C61.783 51.8229 61.8709 51.7857 61.9993 51.7452C62.1479 51.6979 62.2358 51.6438 62.2628 51.5864C62.2899 51.5289 62.3034 51.4039 62.3034 51.2079V50.1097L62.2966 50.0894C62.0669 50.2651 61.7999 50.353 61.4924 50.353C61.0768 50.353 60.7524 50.2077 60.5125 49.9171C60.2726 49.6265 60.1543 49.2852 60.1543 48.8966C60.1543 48.508 60.2759 48.1498 60.5192 47.8897C60.7625 47.6295 61.0666 47.4977 61.4383 47.4977C61.7154 47.4977 61.9959 47.5822 62.2865 47.7477L62.2764 47.7545ZM62.2696 49.2818C62.2595 49.0588 62.2561 48.8628 62.2561 48.6939L62.2628 48.4506C62.2628 48.2377 62.202 48.0721 62.0804 47.9539C61.9587 47.8356 61.8033 47.7748 61.6174 47.7748C61.1545 47.7748 60.9247 48.1701 60.9247 48.9574C60.9247 49.3359 60.9957 49.6197 61.141 49.8123C61.2863 50.005 61.4485 50.0996 61.6309 50.0996C61.7729 50.0996 61.9148 50.0387 62.05 49.9171C62.1851 49.7954 62.2595 49.5859 62.2696 49.2852V49.2818ZM63.0096 49.2818C63.0096 49.5454 63.0704 49.7448 63.2022 49.8867C63.334 50.0286 63.4861 50.0962 63.6618 50.0962C63.8375 50.0962 63.9963 50.0083 64.1416 49.8292C64.2903 49.6501 64.3646 49.3494 64.3646 48.927C64.3646 48.5857 64.3072 48.3087 64.1957 48.0924C64.0842 47.8795 63.9084 47.7714 63.6685 47.7714C63.4759 47.7714 63.3205 47.8322 63.1988 47.9572C63.0806 48.0789 63.0198 48.2478 63.0164 48.4573L63.0096 49.2784V49.2818Z" fill="white"/>
<path d="M68.6219 47.8155C68.7672 47.9574 68.8753 48.1162 68.9463 48.2987C69.0173 48.4812 69.0544 48.6535 69.0544 48.8123C69.0544 49.1164 69.0071 49.3597 68.9159 49.5456C68.774 49.826 68.5847 50.0322 68.3482 50.1673C68.1117 50.3025 67.8346 50.3667 67.5203 50.3667C67.1655 50.3667 66.8682 50.289 66.6215 50.1302C66.3748 49.9713 66.1991 49.7922 66.0944 49.5895C65.9896 49.3868 65.9355 49.1367 65.9355 48.8393C65.9355 48.6873 65.9592 48.5352 66.0099 48.3832C66.0606 48.2311 66.1282 48.096 66.216 47.9844C66.3039 47.8729 66.3985 47.7749 66.5032 47.7006C66.6553 47.5925 66.8073 47.5147 66.9594 47.4674C67.1115 47.4201 67.2973 47.3965 67.5136 47.3965C67.9866 47.3965 68.355 47.535 68.6219 47.8155ZM66.7668 48.988C66.7871 49.2685 66.8006 49.4307 66.8107 49.4746C66.8411 49.6267 66.8851 49.7585 66.9493 49.8666C66.9932 49.9375 67.0642 49.9984 67.1621 50.0524C67.2601 50.1065 67.3818 50.1335 67.517 50.1335C67.6825 50.1335 67.8211 50.0795 67.936 49.9747C68.0508 49.87 68.1319 49.7044 68.1793 49.4814C68.2097 49.3327 68.2266 49.0928 68.2266 48.7582C68.2266 48.346 68.159 48.0554 68.0238 47.8831C67.8886 47.7107 67.7096 47.6263 67.4865 47.6263C67.3108 47.6263 67.1689 47.6736 67.054 47.7716C66.9391 47.8696 66.8614 48.0115 66.8141 48.2041C66.7837 48.3257 66.7668 48.5893 66.7634 48.988H66.7668Z" fill="white"/>
<path d="M70.9167 48.7938L71.0417 48.804L71.5182 48.7972L71.6466 48.804L71.8763 48.8107C71.9676 48.8107 72.0892 48.8107 72.2413 48.8006V48.412C72.2413 48.0876 72.2413 47.8984 72.2311 47.8477C72.2244 47.797 72.1568 47.77 72.0352 47.7666C71.9845 47.7666 71.9034 47.7564 71.7952 47.7463L71.7513 47.5098C72.0521 47.53 72.2683 47.5402 72.4035 47.5402H72.5792H72.8495C73.1536 47.5402 73.3699 47.53 73.4949 47.5098L73.451 47.7463C73.3091 47.7632 73.2246 47.77 73.2043 47.77C73.0996 47.77 73.0421 47.7868 73.0286 47.8206C73.0151 47.8511 73.0083 47.9727 73.005 48.1822L72.9948 48.6012L72.9847 49.2094C72.9847 49.6926 73.0016 49.9697 73.0354 50.0407C73.1773 50.0745 73.282 50.0948 73.353 50.1049C73.3902 50.1083 73.424 50.115 73.4577 50.1252V50.3313L73.0556 50.311C72.9272 50.3043 72.809 50.3009 72.6907 50.3009L72.194 50.3178L71.7716 50.3313V50.1252C71.8054 50.115 71.8426 50.1083 71.8797 50.1049C72.0081 50.088 72.1129 50.0677 72.1974 50.0407C72.2379 49.8109 72.2582 49.5473 72.2582 49.2466L72.2514 49.054C72.1061 49.0608 71.9676 49.0641 71.829 49.0641C71.6297 49.0641 71.4844 49.0641 71.3864 49.0574L71.0992 49.0506C71.0417 49.0506 70.9775 49.0506 70.9133 49.0608V49.2297L70.9099 49.7129C70.9099 49.8346 70.9234 49.9461 70.9539 50.0407C71.0958 50.0745 71.2005 50.0948 71.2715 50.1049C71.3087 50.1083 71.3424 50.115 71.3729 50.1252L71.3796 50.3313L70.9741 50.311C70.8457 50.3043 70.7275 50.3009 70.6092 50.3009L70.1125 50.3178L69.6901 50.3313V50.1252C69.7239 50.115 69.761 50.1083 69.7982 50.1049C69.9232 50.088 70.028 50.0677 70.1158 50.0407C70.1463 49.8886 70.1632 49.6115 70.1632 49.2094L70.1496 48.2599C70.1463 47.9828 70.1327 47.8308 70.1125 47.8071C70.0922 47.7835 70.0347 47.77 69.9435 47.77C69.8928 47.77 69.8117 47.7598 69.7036 47.7497L69.6597 47.5131C69.9604 47.5334 70.1767 47.5436 70.3118 47.5436H70.4875H70.7579C71.062 47.5436 71.2782 47.5334 71.3999 47.5131L71.3593 47.7497C71.2174 47.7666 71.1329 47.7733 71.1127 47.7733C71.0079 47.7733 70.9471 47.7902 70.9336 47.824C70.9201 47.8544 70.9133 47.9761 70.9099 48.1856C70.9099 48.4559 70.9032 48.6586 70.893 48.7972L70.9167 48.7938Z" fill="white"/>
<path d="M77.2658 51.1164C77.2151 51.1232 77.1813 51.1265 77.161 51.1265H77.1205C77.0901 51.0725 77.0563 51.0015 77.0225 50.9137C76.911 50.6399 76.7995 50.4642 76.688 50.3865C76.5765 50.3088 76.3602 50.2716 76.0459 50.2716H75.5729L74.8464 50.2615C74.6639 50.2615 74.5456 50.2716 74.4916 50.2885C74.4375 50.3088 74.3868 50.3561 74.3395 50.4304C74.2922 50.5048 74.2314 50.6501 74.1604 50.8663C74.1165 50.9948 74.0895 51.0691 74.0793 51.086C74.0692 51.086 74.0489 51.086 74.0219 51.086C73.978 51.0894 73.9543 51.0927 73.9442 51.0927C73.934 51.0927 73.9138 51.0927 73.8867 51.0927C73.907 50.9508 73.9205 50.8359 73.9273 50.7515C73.9543 50.4102 73.9881 50.1804 74.032 50.0655C74.059 50.0554 74.0928 50.0452 74.1368 50.0419C74.201 50.0385 74.2618 50.0283 74.3226 50.0148C74.5254 49.6093 74.7889 48.9774 75.1167 48.1192L75.289 47.6664L75.3938 47.3994H75.6675C75.6945 47.4636 75.8905 47.8961 76.2588 48.6902C76.6271 49.4843 76.8333 49.9101 76.8772 49.9675C76.9211 50.025 76.9887 50.0689 77.0833 50.1061C77.1408 50.1297 77.1779 50.1601 77.1948 50.204C77.2117 50.248 77.2219 50.3933 77.2286 50.6433L77.2624 51.1164H77.2658ZM76.0257 49.9945C75.9817 49.8628 75.9277 49.7242 75.8702 49.5722L75.6134 48.8794C75.4715 48.4875 75.387 48.2611 75.36 48.2003L74.6707 49.9979C74.9545 50.0182 75.2383 50.0283 75.5188 50.0283C75.6776 50.0283 75.8466 50.0148 76.029 49.9912L76.0257 49.9945Z" fill="white"/>
<path fill-rule="evenodd" clip-rule="evenodd" d="M21.0483 35.7349C28.1951 54.8368 46.1379 45.916 46.1379 30.7305C41.1133 35.941 29.8035 39.1207 21.0483 35.7349Z" fill="#FFBF00"/>
<path fill-rule="evenodd" clip-rule="evenodd" d="M133.227 22.5189L129.419 26.682V22.5189H126.306V31.9094H128.199L131.973 27.6923V31.9094H135.085V22.5189H133.223H133.227ZM120.434 22.5189V25.7561H117.859V22.5189H114.642V31.9094H117.859V28.6013H120.434V31.9094H123.65V22.5189H120.434ZM108.772 31.9094H112.006V22.5189H108.772V31.9094ZM100.943 29.3548C99.7334 29.3548 98.8379 28.4425 98.8379 27.2125C98.8379 25.9825 99.7232 25.0769 100.943 25.0769C102.163 25.0769 103.048 25.9926 103.048 27.2125C103.048 28.4323 102.156 29.3548 100.943 29.3548ZM103.711 22.5122L103.379 23.2353C102.606 22.5967 101.619 22.2283 100.511 22.2283C97.6384 22.2283 95.5873 24.2963 95.5873 27.2057C95.5873 30.1151 97.6384 32.2169 100.511 32.2169C101.599 32.2169 102.575 31.8587 103.346 31.2336L103.619 31.8959H106.116V22.5088H103.707L103.711 22.5122ZM88.6838 29.3649C87.4741 29.3649 86.5787 28.4492 86.5787 27.2159C86.5787 25.9825 87.4707 25.0668 88.6838 25.0668C89.8969 25.0668 90.789 25.9825 90.789 27.2159C90.789 28.4492 89.8901 29.3649 88.6838 29.3649ZM89.1163 22.2115C88.0012 22.2115 87.0078 22.5967 86.2374 23.2623L85.8319 22.5189H83.6321V35.2986H86.8287V31.6019C87.491 32.0006 88.2682 32.2236 89.1163 32.2236C91.9886 32.2236 94.0396 30.1388 94.0396 27.2125C94.0396 24.2862 91.9886 22.2115 89.1163 22.2115ZM82.1926 31.9094L78.9656 27.0131L81.8986 22.5223H78.2864L76.0326 26.2055V22.5223H72.7988V31.9128H76.0326V27.939L78.3945 31.9128H82.196L82.1926 31.9094ZM68.2911 19.738L66.5137 24.7626L64.216 19.738H60.3672L64.7769 28.1857C64.395 28.7398 63.8713 28.9358 62.9758 28.9358H62.1074V31.977H63.1887C65.8582 31.977 67.3078 30.8889 68.5378 27.9187L71.9101 19.7346H68.2877L68.2911 19.738ZM109.898 18.0991H106.664V21.3329H109.898V18.0991ZM114.25 18.0991H111.016V21.3329H114.25V18.0991Z" fill="white"/>
<path d="M69.3992 7.27964C70.0136 7.57451 70.4927 7.99839 70.8367 8.55127C71.193 9.10415 71.3712 9.73076 71.3712 10.4311C71.3712 11.4754 70.9719 12.3477 70.1733 13.0481C69.3747 13.7484 68.3795 14.0985 67.1877 14.0985H61.2534V1.19791H67.0771C67.8266 1.19791 68.5023 1.33921 69.1044 1.62179C69.7064 1.90438 70.1794 2.29754 70.5234 2.80128C70.8675 3.30502 71.0395 3.87019 71.0395 4.49679C71.0395 5.06196 70.892 5.59641 70.5972 6.10015C70.3023 6.5916 69.903 6.98477 69.3992 7.27964ZM67.6669 5.08653C67.6669 4.7548 67.5563 4.4845 67.3351 4.27564C67.114 4.06677 66.8191 3.96234 66.4505 3.96234H64.6629V6.21073H66.4505C66.6963 6.21073 66.9113 6.16773 67.0956 6.08172C67.2799 5.98343 67.4211 5.84828 67.5194 5.67627C67.6177 5.50427 67.6669 5.30769 67.6669 5.08653ZM66.598 11.1867C66.9788 11.1867 67.286 11.0761 67.5194 10.855C67.7529 10.6338 67.8696 10.3512 67.8696 10.0072C67.8696 9.66318 67.7529 9.3806 67.5194 9.15944C67.286 8.93829 66.9788 8.82771 66.598 8.82771H64.6629V11.1867H66.598Z" fill="white"/>
<path d="M73.1103 2.89343V0H76.4829V2.89343H73.1103ZM73.0919 14.0985V4.14663H76.5198V14.0985H73.0919Z" fill="white"/>
<path d="M88.2729 11.0761H89.5261V16.4207H86.5774V14.0985H80.8642V16.4207H77.934V11.0761H79.0397C79.3592 10.7444 79.5987 10.1301 79.7585 9.23316C79.9182 8.32397 80.1148 6.62846 80.3482 4.14663H88.2729V11.0761ZM83.2416 7.02163C83.0819 9.03658 82.7932 10.3881 82.3755 11.0761H85.0846V7.02163H83.2416Z" fill="white"/>
<path d="M97.3704 4.14663H100.78V14.0985H97.3704V10.5969H94.6429V14.0985H91.2334V4.14663H94.6429V7.57451H97.3704V4.14663Z" fill="white"/>
<path d="M107.944 14.4303C106.322 14.4303 104.983 13.9327 103.927 12.9375C102.882 11.93 102.36 10.6584 102.36 9.12258C102.36 7.57451 102.882 6.30288 103.927 5.30769C104.983 4.31249 106.322 3.8149 107.944 3.8149C109.566 3.8149 110.899 4.31864 111.943 5.32612C113 6.32131 113.528 7.5868 113.528 9.12258C113.528 10.6584 113 11.93 111.943 12.9375C110.887 13.9327 109.554 14.4303 107.944 14.4303ZM106.396 10.7259C106.802 11.1437 107.318 11.3525 107.944 11.3525C108.571 11.3525 109.081 11.1437 109.474 10.7259C109.879 10.3082 110.082 9.77376 110.082 9.12258C110.082 8.47141 109.879 7.93696 109.474 7.51922C109.081 7.10149 108.571 6.89262 107.944 6.89262C107.526 6.89262 107.152 6.99091 106.82 7.18749C106.501 7.37179 106.249 7.63594 106.064 7.97996C105.88 8.31169 105.788 8.69256 105.788 9.12258C105.788 9.77376 105.991 10.3082 106.396 10.7259Z" fill="white"/>
<path d="M122.525 8.82771C123.041 9.02429 123.44 9.33145 123.723 9.74919C124.018 10.1669 124.165 10.6584 124.165 11.2235C124.165 12.059 123.864 12.747 123.262 13.2876C122.66 13.8282 121.88 14.0985 120.921 14.0985H115.116V4.14663H120.848C121.732 4.14663 122.451 4.38007 123.004 4.84695C123.569 5.31383 123.852 5.91586 123.852 6.65304C123.852 7.1322 123.735 7.56222 123.502 7.9431C123.268 8.31169 122.942 8.60656 122.525 8.82771ZM120.719 7.15063C120.719 6.90491 120.639 6.70832 120.479 6.56089C120.319 6.40117 120.098 6.32131 119.816 6.32131H118.304V7.99839H119.816C120.098 7.99839 120.319 7.91853 120.479 7.7588C120.639 7.59908 120.719 7.39636 120.719 7.15063ZM119.926 11.7949C120.221 11.7949 120.455 11.7211 120.627 11.5737C120.799 11.414 120.885 11.1928 120.885 10.9102C120.885 10.6399 120.799 10.4249 120.627 10.2652C120.467 10.1055 120.233 10.0256 119.926 10.0256H118.304V11.7949H119.926Z" fill="white"/>
<path d="M127.613 4.14663H135.372V14.0985H131.999V7.02163H130.451L130.175 9.84133C130.015 11.3403 129.585 12.4337 128.885 13.1218C128.197 13.7975 127.208 14.1354 125.918 14.1354H125.015V11.3157H125.457C125.924 11.3157 126.274 11.1928 126.507 10.9471C126.753 10.7014 126.907 10.3021 126.968 9.74919L127.613 4.14663Z" fill="white"/>
<path d="M147.788 9.03044C147.788 9.31302 147.763 9.61404 147.714 9.93348H140.324C140.434 10.4987 140.662 10.9287 141.006 11.2235C141.362 11.5184 141.811 11.6659 142.351 11.6659C142.621 11.6659 142.873 11.629 143.107 11.5553C143.34 11.4816 143.543 11.3771 143.715 11.242C143.899 11.0945 144.047 10.9225 144.157 10.7259H147.567C147.223 11.8686 146.578 12.7716 145.632 13.4351C144.698 14.0985 143.604 14.4303 142.351 14.4303C140.803 14.4303 139.513 13.9265 138.481 12.9191C137.461 11.8993 136.951 10.6338 136.951 9.12258C136.951 8.11511 137.185 7.20592 137.652 6.39502C138.118 5.58413 138.764 4.95138 139.587 4.49679C140.41 4.0422 141.331 3.8149 142.351 3.8149C143.408 3.8149 144.348 4.04834 145.171 4.51522C146.006 4.96981 146.651 5.59641 147.106 6.39502C147.561 7.18135 147.788 8.05982 147.788 9.03044ZM142.351 6.5056C141.86 6.5056 141.442 6.64075 141.098 6.91105C140.766 7.16906 140.527 7.54379 140.379 8.03525H144.415C144.108 7.01548 143.42 6.5056 142.351 6.5056Z" fill="white"/>
<path d="M155.484 4.14663H158.894V14.0985H155.484V10.5969H152.757V14.0985H149.347V4.14663H152.757V7.57451H155.484V4.14663Z" fill="white"/>
<path d="M167.201 4.14663H170.61V14.0985H167.201V10.5969H164.473V14.0985H161.064V4.14663H164.473V7.57451H167.201V4.14663Z" fill="white"/>
<path d="M175.95 4.14663H181.442V14.0985H178.291V10.8918H177.185L175.6 14.0985H171.951L174.126 10.3021C173.597 10.0195 173.186 9.63861 172.891 9.15944C172.596 8.66799 172.448 8.12125 172.448 7.51922C172.448 6.53632 172.774 5.73156 173.425 5.10496C174.089 4.46607 174.93 4.14663 175.95 4.14663ZM176.872 8.58813H178.291V6.54246H176.872C176.65 6.54246 176.454 6.58546 176.282 6.67147C176.122 6.75747 175.999 6.88033 175.913 7.04006C175.839 7.18749 175.803 7.36564 175.803 7.57451C175.803 7.88167 175.895 8.12739 176.079 8.31169C176.276 8.49598 176.54 8.58813 176.872 8.58813Z" fill="white"/>
</svg>
